SplineFontDB: 3.0
FontName: Quicksand-Italic
FullName: Quicksand Italic
FamilyName: Quicksand
Weight: Regular
Copyright: Copyright (c) 2011, Andrew Paglinawan (www.andrewpaglinawan.com), with Reserved Font Name "Quicksand".
Version: 001.001
ItalicAngle: -12
UnderlinePosition: -50
UnderlineWidth: 50
Ascent: 800
Descent: 200
LayerCount: 2
Layer: 0 0 "Back"  1
Layer: 1 0 "Fore"  0
NeedsXUIDChange: 1
FSType: 0
OS2Version: 0
OS2_WeightWidthSlopeOnly: 0
OS2_UseTypoMetrics: 0
CreationTime: 1318372931
ModificationTime: 1318373154
OS2TypoAscent: 0
OS2TypoAOffset: 1
OS2TypoDescent: 0
OS2TypoDOffset: 1
OS2TypoLinegap: 0
OS2WinAscent: 0
OS2WinAOffset: 1
OS2WinDescent: 0
OS2WinDOffset: 1
HheadAscent: 0
HheadAOffset: 1
HheadDescent: 0
HheadDOffset: 1
OS2Vendor: 'PfEd'
MarkAttachClasses: 1
DEI: 91125
GaspTable: 1 65535 15
Encoding: Custom
UnicodeInterp: none
NameList: Adobe Glyph List
DisplaySize: -48
AntiAlias: 1
FitToEm: 1
WinInfo: 50 25 10
BeginPrivate: 6
StdHW 4 [49]
StemSnapH 5 [49 ]
StdVW 4 [49]
StemSnapV 38 [20 30 44 47 48 49 50 98 101 106 110 ]
BlueValues 21 [0 0 505 505 700 700]
OtherBlues 11 [-205 -205]
EndPrivate
BeginChars: 280 190

StartChar: B
Encoding: 66 66 0
Width: 594
Flags: W
HStem: 1 49<126 330 160 330 160 330> 352 50<222 348 222 392 213 348> 652 49<266 401 266 266>
VStem: 502 49<548 553> 515 48<227.5 232>
LayerCount: 2
Fore
SplineSet
126 1 m 1xe8
 110 5 103.666992188 14.6669921875 107 30 c 2
 221 681 l 2
 224.333007812 694.333007812 233 701 247 701 c 2
 401 701 l 2
 444.333007812 701 480.333007812 686.666992188 509 658 c 0
 537 631.333007812 551 596.333007812 551 553 c 0xf0
 551 543 550 533 548 523 c 0
 538 466.333007812 508.333007812 421.666992188 459 389 c 1
 481 379.666992188 499.666992188 367.333007812 515 352 c 0
 548.333007812 320 564.333007812 280 563 232 c 0
 563 220.666992188 562 209 560 197 c 0
 550 142.333007812 523 96.1669921875 479 58.5 c 0
 435 20.8330078125 385.333007812 1.6669921875 330 1 c 2
 126 1 l 1xe8
515 232 m 0
 514.333007812 266.666992188 502.833007812 295.166992188 480.5 317.5 c 0
 458.166992188 339.833007812 428.666992188 351.333007812 392 352 c 2
 213 352 l 1
 160 50 l 1
 330 50 l 2
 372 49.3330078125 411 64.5 447 95.5 c 0
 483 126.5 504.666992188 163 512 205 c 0
 514 214 515 223 515 232 c 0
502 553 m 0xf0
 501.333007812 582.333007812 491.833007812 606 473.5 624 c 0
 455.166992188 642 431 651.333007812 401 652 c 2
 266 652 l 1
 222 402 l 1
 348 402 l 2
 383.333007812 401.333007812 416.166992188 414 446.5 440 c 0
 483.5 471.713867188 502 509.380859375 502 553 c 0xf0
EndSplineSet
EndChar

StartChar: C
Encoding: 67 67 1
Width: 719
Flags: MW
HStem: 0 49 651 49<494 529.667>
VStem: 73 49<259.333 306.333>
LayerCount: 2
Fore
SplineSet
614 75 m 0
 540.666992188 25 461 0 375 0 c 0
 289 0 217 28 159 84 c 0
 101.666992188 140 73 210.333007812 73 295 c 0
 73 317.666992188 74.6669921875 337.333007812 78 354 c 0
 95.3330078125 450.666992188 144.333007812 532.333007812 225 599 c 0
 305.666992188 665.666992188 395.333007812 699.333007812 494 700 c 0
 577.333007812 700 648 674.333007812 706 623 c 0
 711.333007812 618.333007812 714.166992188 612.5 714.5 605.5 c 0
 714.833007812 598.5 712.666992188 592.666992188 708 588 c 0
 697.333007812 576 686 575.333007812 674 586 c 0
 625.333007812 629.333007812 565.333007812 651 494 651 c 0
 408 651.666992188 328.833007812 621.833007812 256.5 561.5 c 0
 166.833007812 486.708984375 122 397.875976562 122 295 c 0
 122 223.666992188 145.833007812 165 193.5 119 c 0
 241.166992188 73 302.166992188 49.8330078125 376.5 49.5 c 0
 450.833007812 49.1669921875 520.666992188 71 586 115 c 0
 598.666992188 124.333007812 609.833007812 122.5 619.5 109.5 c 0
 629.166992188 96.5 627.333007812 85 614 75 c 0
EndSplineSet
EndChar

StartChar: D
Encoding: 68 68 2
Width: 719
Flags: MW
HStem: -1 49<126 261 160 261 160 261> 650 49<266 266 266 376>
VStem: 624 49<397.333 406>
LayerCount: 2
Fore
SplineSet
126 -1 m 1
 110.666992188 2.3330078125 104 12 106 28 c 2
 221 679 l 2
 221.666992188 685 224.333007812 689.833007812 229 693.5 c 0
 233.666992188 697.166992188 239 699 245 699 c 2
 376 699 l 2
 462.666992188 699 533.833007812 671.166992188 589.5 615.5 c 0
 645.166992188 559.833007812 673 490 673 406 c 0
 673 388.666992188 671.333007812 368.333007812 668 345 c 0
 650.666992188 249 602.666992188 167.5 524 100.5 c 0
 445.333007812 33.5 357.666992188 -0.3330078125 261 -1 c 2
 126 -1 l 1
266 650 m 1
 160 48 l 1
 261 48 l 2
 344.333007812 47.3330078125 421.333007812 77.1669921875 492 137.5 c 0
 580 212.631835938 624 302.131835938 624 406 c 0
 623.333007812 476.666992188 600.166992188 534.833007812 554.5 580.5 c 0
 508.833007812 626.166992188 449.333007812 649.333007812 376 650 c 2
 266 650 l 1
EndSplineSet
EndChar

StartChar: F
Encoding: 70 70 3
Width: 600
Flags: MW
HStem: 2 21G<126 126 126 131> 327 49<217 507 217 507 209 507> 653 49<266 606 266 266>
LayerCount: 2
Fore
SplineSet
126 2 m 1
 110 6 103.666992188 15.6669921875 107 31 c 2
 221 682 l 2
 223 695.333007812 231.333007812 702 246 702 c 2
 606 702 l 2
 612.666992188 702 618.333007812 699.5 623 694.5 c 0
 627.666992188 689.5 630 683.666992188 630 677 c 0
 630 670.333007812 627.666992188 664.666992188 623 660 c 0
 618.333007812 655.333007812 612.666992188 653 606 653 c 2
 266 653 l 1
 217 376 l 1
 507 376 l 2
 513.666992188 376 519.333007812 373.666992188 524 369 c 0
 528.666992188 364.333007812 531 358.666992188 531 352 c 0
 531 345.333007812 528.666992188 339.5 524 334.5 c 0
 519.333007812 329.5 513.666992188 327 507 327 c 2
 209 327 l 1
 155 22 l 2
 154.333007812 16 151.666992188 11.1669921875 147 7.5 c 0
 142.333007812 3.8330078125 137 2 131 2 c 2
 126 2 l 1
EndSplineSet
EndChar

StartChar: G
Encoding: 71 71 4
Width: 800
Flags: MW
HStem: 2 49 313 49<425.667 642 429 614> 653 49<495 530.667>
VStem: 73 49<297 304 297 306.667>
LayerCount: 2
Fore
SplineSet
614 77 m 0
 541.333007812 27 461.833007812 2 375.5 2 c 0
 289.166992188 2 217.166992188 30 159.5 86 c 0
 101.833007812 142 73 212.333007812 73 297 c 0
 73 316.333007812 75 336 79 356 c 0
 90.3330078125 419.333007812 116.333007812 477.5 157 530.5 c 0
 197.666992188 583.5 247.833007812 625.333007812 307.5 656 c 0
 367.166992188 686.666992188 429.666992188 702 495 702 c 0
 578.333007812 702 649 676.333007812 707 625 c 0
 712.333007812 620.333007812 715.166992188 614.666992188 715.5 608 c 0
 715.833007812 601.333007812 713.666992188 595.333007812 709 590 c 0
 704.333007812 584.666992188 698.666992188 581.833007812 692 581.5 c 0
 685.333007812 581.166992188 679.333007812 583.333007812 674 588 c 0
 626 631.333007812 566.333007812 653 495 653 c 0
 409 653.666992188 329.666992188 623.833007812 257 563.5 c 0
 184.333007812 503.166992188 141 431.333007812 127 348 c 0
 123.666992188 328 122 311 122 297 c 0
 122.666992188 225.666992188 146.833007812 167 194.5 121 c 0
 242.166992188 75 302.166992188 51.8330078125 374.5 51.5 c 0
 446.833007812 51.1669921875 515 71.3330078125 579 112 c 1
 614 313 l 1
 429 313 l 2
 422.333007812 313 416.666992188 315.333007812 412 320 c 0
 407.333007812 324.666992188 405 330.333007812 405 337 c 0
 405 343.666992188 407.333007812 349.5 412 354.5 c 0
 416.666992188 359.5 422.333007812 362 429 362 c 2
 642 362 l 2
 651.05859375 362 657.823242188 358.833007812 662.293945312 352.5 c 0
 666.764648438 346.166992188 668.333007812 339.666992188 667 333 c 2
 625 95 l 2
 625 89.6669921875 624 87 622 87 c 1
 622 86 l 1
 618.666992188 80.6669921875 616 77.6669921875 614 77 c 0
EndSplineSet
EndChar

StartChar: H
Encoding: 72 72 5
Width: 760
Flags: MW
HStem: -2 21G<126 130 126 126 535 539 535 535> 323 49<217 567 208 576>
LayerCount: 2
Fore
SplineSet
230.5 693 m 0
 236.166992188 697 242.333007812 698.5 249 697.5 c 0
 255.666992188 696.5 261 693.166992188 265 687.5 c 0
 269 681.833007812 270.333007812 675.666992188 269 669 c 2
 217 372 l 1
 576 372 l 1
 630 677 l 2
 630.666992188 683.666992188 633.833007812 689 639.5 693 c 0
 645.166992188 697 651.333007812 698.5 658 697.5 c 0
 664.666992188 696.5 670 693.166992188 674 687.5 c 0
 678 681.833007812 679.333007812 675.666992188 678 669 c 2
 563 18 l 2
 562.333007812 12 559.666992188 7.1669921875 555 3.5 c 0
 550.333007812 -0.1669921875 545 -2 539 -2 c 2
 535 -2 l 2
 528.333007812 -1.3330078125 523 1.8330078125 519 7.5 c 0
 515 13.1669921875 513.666992188 19.3330078125 515 26 c 2
 567 323 l 1
 208 323 l 1
 154 18 l 2
 152 4.6669921875 144 -2 130 -2 c 2
 126 -2 l 2
 119.333007812 -1.3330078125 114 1.8330078125 110 7.5 c 0
 106 13.1669921875 104.666992188 19.3330078125 106 26 c 2
 221 677 l 2
 221.666992188 683.666992188 224.833007812 689 230.5 693 c 0
EndSplineSet
EndChar

StartChar: I
Encoding: 73 73 6
Width: 305
Flags: MW
HStem: -2 21G<133 137 133 133>
LayerCount: 2
Fore
SplineSet
137 -2 m 2
 133 -2 l 2
 126.333007812 -1.3330078125 121 1.8330078125 117 7.5 c 0
 113 13.1669921875 111.666992188 19.3330078125 113 26 c 2
 228 677 l 2
 228.666992188 683.666992188 231.833007812 689 237.5 693 c 0
 243.166992188 697 249.333007812 698.5 256 697.5 c 0
 262.666992188 696.5 268 693.166992188 272 687.5 c 0
 276 681.833007812 277.333007812 675.666992188 276 669 c 2
 161 18 l 2
 159 4.6669921875 151 -2 137 -2 c 2
EndSplineSet
EndChar

StartChar: J
Encoding: 74 74 7
Width: 594
Flags: MW
HStem: -1 49<224.333 244 244 245>
LayerCount: 2
Fore
SplineSet
93 174 m 0
 98.3330078125 136.666992188 114.666992188 106.333007812 142 83 c 0
 169.333007812 59.6669921875 203.666992188 48 245 48 c 0
 297.666992188 47.3330078125 346.333007812 66 391 104 c 0
 435.666992188 142 462.666992188 187.333007812 472 240 c 2
 549 678 l 2
 549.666992188 684.666992188 552.833007812 690 558.5 694 c 0
 564.166992188 698 570.333007812 699.5 577 698.5 c 0
 583.666992188 697.5 589 694.166992188 593 688.5 c 0
 597 682.833007812 598.333007812 676.666992188 597 670 c 2
 520 232 l 2
 508 166.666992188 475.5 111.5 422.5 66.5 c 0
 369.5 21.5 310.333007812 -1 245 -1 c 2
 244 -1 l 2
 192 -1 147.5 14.8330078125 110.5 46.5 c 0
 73.5 78.1669921875 51.3330078125 118.333007812 44 167 c 0
 43.3330078125 173.666992188 45 179.666992188 49 185 c 0
 53 190.333007812 58.3330078125 193.666992188 65 195 c 0
 71.6669921875 196.333007812 77.8330078125 194.833007812 83.5 190.5 c 0
 89.1669921875 186.166992188 92.3330078125 180.666992188 93 174 c 0
EndSplineSet
EndChar

StartChar: K
Encoding: 75 75 8
Width: 715
Flags: MW
HStem: 2 21G<126 130 126 126 607 614>
LayerCount: 2
Fore
SplineSet
230.5 697 m 0
 236.166992188 701 242.333007812 702.5 249 701.5 c 0
 255.666992188 700.5 261 697.166992188 265 691.5 c 0
 269 685.833007812 270.333007812 679.666992188 269 673 c 2
 199 273 l 1
 696 696 l 2
 700.666992188 700 706.333007812 701.666992188 713 701 c 0
 719.666992188 700.333007812 725.333007812 697.666992188 730 693 c 0
 734.666992188 688.333007812 736.666992188 682.5 736 675.5 c 0
 735.333007812 668.5 732.333007812 662.666992188 727 658 c 2
 409 387 l 1
 634 39 l 2
 638 33.6669921875 639.166992188 27.6669921875 637.5 21 c 0
 635.833007812 14.3330078125 632.666992188 9.5 628 6.5 c 0
 623.333007812 3.5 617.5 2 610.5 2 c 0
 603.5 2 597.666992188 5.6669921875 593 13 c 2
 371 356 l 1
 186 198 l 1
 185 198 l 1
 154 22 l 2
 152 8.6669921875 144 2 130 2 c 2
 126 2 l 2
 119.333007812 2.6669921875 114 5.8330078125 110 11.5 c 0
 106 17.1669921875 104.666992188 23.3330078125 106 30 c 2
 221 681 l 2
 221.666992188 687.666992188 224.833007812 693 230.5 697 c 0
EndSplineSet
EndChar

StartChar: L
Encoding: 76 76 9
Width: 619
Flags: MW
HStem: -1 48<159 490 159 490 126 490>
LayerCount: 2
Fore
SplineSet
515 23 m 0
 515 16.3330078125 512.666992188 10.6669921875 508 6 c 0
 503.333007812 1.3330078125 497.333007812 -1 490 -1 c 2
 126 -1 l 2
 119.333007812 -0.3330078125 114 2.8330078125 110 8.5 c 0
 106 14.1669921875 104.666992188 20.3330078125 106 27 c 2
 221 678 l 2
 221.666992188 684.666992188 224.833007812 690 230.5 694 c 0
 236.166992188 698 242.333007812 699.5 249 698.5 c 0
 255.666992188 697.5 261 694.166992188 265 688.5 c 0
 269 682.833007812 270.333007812 676.666992188 269 670 c 2
 159 47 l 1
 490 47 l 2
 496.666992188 47 502.5 44.6669921875 507.5 40 c 0
 512.5 35.3330078125 515 29.6669921875 515 23 c 0
EndSplineSet
EndChar

StartChar: M
Encoding: 77 77 10
Width: 868
Flags: MW
HStem: -1 21G<126 131 126 126 668 668 668 672>
LayerCount: 2
Fore
SplineSet
452 278 m 2
 449 278 l 2
 439 278 432 282.333007812 428 291 c 2
 258 603 l 1
 155 19 l 2
 154.333007812 13 151.666992188 8.1669921875 147 4.5 c 0
 142.333007812 0.8330078125 137 -1 131 -1 c 2
 126 -1 l 2
 119.333007812 -0.3330078125 114 2.8330078125 110 8.5 c 0
 106 14.1669921875 104.666992188 20.3330078125 106 27 c 2
 221 678 l 2
 222.333007812 684 225.333007812 689 230 693 c 0
 234.666992188 697 240 698.666992188 246 698 c 1
 255.333007812 699.333007812 263 695.333007812 269 686 c 2
 455 342 l 1
 767 690 l 2
 772.333007812 696.666992188 778.666992188 699.333007812 786 698 c 1
 788 699.333007812 789.666992188 699.333007812 791 698 c 1
 797.666992188 697.333007812 803 694.166992188 807 688.5 c 0
 811 682.833007812 812.333007812 676.666992188 811 670 c 2
 696 19 l 2
 694 5.6669921875 686 -1 672 -1 c 2
 668 -1 l 2
 661.333007812 -0.3330078125 656 2.8330078125 652 8.5 c 0
 648 14.1669921875 646.666992188 20.3330078125 648 27 c 2
 749 596 l 1
 470 286 l 2
 466 280.666992188 460 278 452 278 c 2
EndSplineSet
EndChar

StartChar: N
Encoding: 78 78 11
Width: 790
Flags: MW
HStem: 2 21G<126 130 126 126 596 600 596 596>
LayerCount: 2
Fore
SplineSet
106 30 m 2
 220 678 l 1
 221 679 l 1
 221 686.333007812 225 693 233 699 c 1
 247.666992188 706.333007812 258.666992188 703 266 689 c 2
 588 98 l 1
 690 678 l 2
 690.666992188 684.666992188 693.833007812 690 699.5 694 c 0
 705.166992188 698 711.333007812 699.333007812 718 698 c 0
 733.333007812 694.666992188 740 685 738 669 c 2
 624 22 l 2
 623.333007812 16 620.5 11.1669921875 615.5 7.5 c 0
 610.5 3.8330078125 605.333007812 2 600 2 c 2
 596 2 l 2
 588.666992188 2.6669921875 583.833007812 5.1669921875 581.5 9.5 c 0
 579.166992188 13.8330078125 577.333007812 16.6669921875 576 18 c 2
 257 604 l 1
 154 22 l 2
 152 8.6669921875 144 2 130 2 c 2
 126 2 l 2
 119.333007812 2.6669921875 114 5.8330078125 110 11.5 c 0
 106 17.1669921875 104.666992188 23.3330078125 106 30 c 2
EndSplineSet
EndChar

StartChar: O
Encoding: 79 79 12
Width: 850
Flags: MW
HStem: 0 48<352 391 352 402.333> 651 49<426.333 507.667 465 507.667>
VStem: 73 49<289 297 289 299.667> 697 49<402 410>
LayerCount: 2
Fore
SplineSet
467 700 m 0
 548.333007812 700 615.166992188 672.166992188 667.5 616.5 c 0
 719.833007812 560.833007812 746 492 746 410 c 0
 746 388.666992188 744 367 740 345 c 1
 716 350 l 1
 740 345 l 1
 722.666992188 249 676.5 167.5 601.5 100.5 c 0
 526.5 33.5 445.666992188 0 359 0 c 0
 272.333007812 0 203 27.3330078125 151 82 c 0
 99 136.666992188 73 205.666992188 73 289 c 0
 73 310.333007812 75 332 79 354 c 0
 96.3330078125 450 142.333007812 531.5 217 598.5 c 0
 291.666992188 665.5 375 699.333007812 467 700 c 0
692 354 m 0
 695.333007812 375.333007812 697 394 697 410 c 0
 696.333007812 480 674.666992188 537.5 632 582.5 c 0
 589.333007812 627.5 534.333007812 650.333007812 467 651 c 2
 465 651 l 2
 387.666992188 651 315.666992188 621 249 561 c 0
 182.333007812 501 141.666992188 429 127 345 c 0
 123.666992188 323.666992188 122 305 122 289 c 0
 122.666992188 219 144.333007812 161.5 187 116.5 c 0
 229.666992188 71.5 284.666992188 48.6669921875 352 48 c 0
 430 48 502.5 78 569.5 138 c 0
 636.5 198 677.333007812 270 692 354 c 0
EndSplineSet
EndChar

StartChar: P
Encoding: 80 80 13
Width: 583
Flags: MW
HStem: 0 21G<125.804 137> 300 49<212 381 212 381 203 381> 651 49<265 443 265 265>
VStem: 565 49<525.333 548.667>
LayerCount: 2
Fore
SplineSet
245 700 m 2
 443 700 l 2
 492.333007812 700 533.333007812 683.666992188 566 651 c 0
 598 620.333007812 614 580.333007812 614 531 c 0
 614 519.666992188 613 508 611 496 c 0
 601 441.333007812 573.833007812 395.166992188 529.5 357.5 c 0
 485.166992188 319.833007812 435.666992188 300.666992188 381 300 c 2
 203 300 l 1
 154 20 l 2
 152 6.6669921875 144 0 130 0 c 0
 121.607421875 0 115.176757812 3.1669921875 110.706054688 9.5 c 0
 106.235351562 15.8330078125 104.666992188 22.3330078125 106 29 c 2
 221 680 l 2
 221.666992188 686 224.333007812 690.833007812 229 694.5 c 0
 233.666992188 698.166992188 239 700 245 700 c 2
565 531 m 0
 565 566.333007812 553.833007812 595 531.5 617 c 0
 509.166992188 639 479.666992188 650.333007812 443 651 c 2
 265 651 l 1
 212 349 l 1
 381 349 l 2
 422.333007812 348.333007812 461.333007812 363.5 498 394.5 c 0
 542.666992188 432.263671875 565 477.763671875 565 531 c 0
EndSplineSet
EndChar

StartChar: Q
Encoding: 81 81 14
Width: 844
Flags: MW
HStem: -144 49<571.667 584 584 585> -65 113<339.333 362.333> 660 50
LayerCount: 2
Fore
SplineSet
764 -50 m 0
 770.666992188 -62.6669921875 767 -74.3330078125 753 -85 c 0
 695.666992188 -124.333007812 639.666992188 -144 585 -144 c 2
 584 -144 l 2
 533.333007812 -144 478.666992188 -125 420 -87 c 0
 398.666992188 -72.3330078125 375.166992188 -65 349.5 -65 c 0
 323.833007812 -65 301.5 -67.6669921875 282.5 -73 c 0
 263.5 -78.3330078125 250.666992188 -83 244 -87 c 1
 243 -87 l 1
 233 -92.3330078125 224 -91.6669921875 216 -85 c 1
 215 -85 l 1
 202.354492188 -64.767578125 206.688476562 -49.767578125 228 -40 c 2
 328 2 l 1
 246.666992188 13.3330078125 184 52.5 140 119.5 c 0
 96 186.5 82.1669921875 266.666992188 98.5 360 c 0
 114.833007812 453.333007812 161.833007812 534.833007812 239.5 604.5 c 0
 317.166992188 674.166992188 402.333007812 709.333007812 495 710 c 1
 556.333007812 709.333007812 610 693 656 661 c 0
 702 629 735 585.666992188 755 531 c 0
 775 476.333007812 779 415.166992188 767 347.5 c 0
 755 279.833007812 724.666992188 216.333007812 676 157 c 0
 627.333007812 97.6669921875 570.333007812 54 505 26 c 2
 396 -20 l 1
 416 -24 434.666992188 -32 452 -44 c 0
 504 -78 550.833007812 -95 592.5 -95 c 0
 634.166992188 -95 680 -78.6669921875 730 -46 c 0
 736 -41.3330078125 742.333007812 -39.3330078125 749 -40 c 0
 755.666992188 -40.6669921875 760.666992188 -44 764 -50 c 0
269 570.5 m 0
 202.333007812 510.833007812 161.5 438.666992188 146.5 354 c 0
 131.5 269.333007812 146.833007812 197.166992188 192.5 137.5 c 0
 238.166992188 77.8330078125 300.166992188 48 378.5 48 c 0
 456.833007812 48 529.5 77.8330078125 596.5 137.5 c 0
 663.5 197.166992188 704.5 269.333007812 719.5 354 c 0
 734.5 438.666992188 719 510.833007812 673 570.5 c 0
 627 630.166992188 564.833007812 660 486.5 660 c 0
 408.166992188 660 335.666992188 630.166992188 269 570.5 c 0
EndSplineSet
EndChar

StartChar: R
Encoding: 82 82 15
Width: 625
Flags: MW
HStem: 0 21G<112.471 123.667> 300 49<199 367 199 367 190 367> 651 49<252 252 252 429>
VStem: 470 49<84.3335 97.6665> 552 49<528 531>
LayerCount: 2
Fore
SplineSet
480 186 m 0
 479.333007812 219.333007812 464 247.333007812 434 270 c 0
 415.333007812 283.333007812 393 293.333007812 367 300 c 1
 190 300 l 1
 141 20 l 2
 138.333007812 6.6669921875 130.333007812 0 117 0 c 0
 107.94140625 0 101.176757812 3.1669921875 96.7060546875 9.5 c 0
 92.2353515625 15.8330078125 90.6669921875 22.3330078125 92 29 c 2
 207 680 l 2
 209 693.333007812 217.333007812 700 232 700 c 2
 429 700 l 2
 479.666992188 700 520.666992188 683.666992188 552 651 c 1
 584.666992188 619.666992188 601 579.666992188 601 531 c 0
 601 478.75 583 431.25 547 388.5 c 0
 520.333007812 356.833007812 488.333007812 333 451 317 c 1
 503 285.666992188 528.666992188 242 528 186 c 0
 528 178.666992188 527.333007812 167.666992188 526 153 c 1
 521.333007812 129 519 108.833007812 519 92.5 c 0
 519 76.1669921875 520.666992188 65.3330078125 524 60 c 1
 536.666992188 61.3330078125 545.333007812 55.3330078125 550 42 c 0
 552 35.3330078125 551.333007812 29.1669921875 548 23.5 c 0
 544.666992188 17.8330078125 539.666992188 14 533 12 c 0
 531.666992188 10.6669921875 528 10 522 10 c 2
 521 10 l 2
 506.333007812 10 494.166992188 16.8330078125 484.5 30.5 c 0
 474.833007812 44.1669921875 470 62.6669921875 470 86 c 0
 470 109.333007812 471.666992188 129.833007812 475 147.5 c 0
 478.333007812 165.166992188 480 178 480 186 c 0
252 651 m 1
 199 349 l 1
 367 349 l 2
 409 348.333007812 448.166992188 363.5 484.5 394.5 c 0
 520.833007812 425.5 542.666992188 462 550 504 c 0
 551.333007812 516 552 525 552 531 c 0
 551.333007812 566.333007812 539.833007812 595 517.5 617 c 0
 495.166992188 639 465.666992188 650.333007812 429 651 c 2
 252 651 l 1
EndSplineSet
EndChar

StartChar: S
Encoding: 83 83 16
Width: 667
Flags: MW
HStem: 0 44<308 342.333> 657 43<396.667 433.667>
LayerCount: 2
Fore
SplineSet
73 100 m 0
 69 103.333007812 67.1669921875 108 67.5 114 c 0
 67.8330078125 120 70.3330078125 125.333007812 75 130 c 0
 79.6669921875 134.666992188 85 137.333007812 91 138 c 0
 97 138.666992188 102 137 106 133 c 0
 170 73.6669921875 240 44 316 44 c 0
 375.333007812 44 428.166992188 59 474.5 89 c 0
 520.833007812 119 547.166992188 153 553.5 191 c 0
 559.833007812 229 547.166992188 260.166992188 515.5 284.5 c 0
 483.833007812 308.833007812 433.333007812 328 364 342 c 1
 362 342 l 1
 211.077148438 371.885742188 144.077148438 431.552734375 161 521 c 1
 169.666992188 572.333007812 200.333007812 615 253 649 c 0
 305.666992188 683 364.333007812 700 429 700 c 0
 457 700 484.666992188 695.333007812 512 686 c 0
 539.333007812 676.666992188 560.333007812 667.333007812 575 658 c 0
 589.666992188 648.666992188 607.666992188 636 629 620 c 0
 639.666992188 612.666992188 640 602.666992188 630 590 c 0
 619.333007812 578 608.666992188 576 598 584 c 0
 576 600 558.666992188 612 546 620 c 0
 533.333007812 628 515.333007812 636.166992188 492 644.5 c 0
 468.666992188 652.833007812 445.333007812 657 422 657 c 0
 368 657 319 643 275 615 c 0
 233.666992188 587.666992188 210 556.833007812 204 522.5 c 0
 198 488.166992188 210.333007812 459.5 241 436.5 c 0
 271.666992188 413.5 317.333007812 396.333007812 378 385 c 1
 380 385 l 1
 452 371 506.666992188 350 544 322 c 0
 588.666992188 288.666992188 606.166992188 244.833007812 596.5 190.5 c 0
 586.833007812 136.166992188 553 91 495 55 c 1
 439 18.3330078125 376.666992188 0 308 0 c 0
 220 0.6669921875 141.666992188 34 73 100 c 0
EndSplineSet
EndChar

StartChar: T
Encoding: 84 84 17
Width: 648
Flags: MW
HStem: 1 21G<193.274 204.137> 652 49<70.6665 545 74 280 330 330 330 545>
LayerCount: 2
Fore
SplineSet
219 21 m 2
 216.333007812 7.6669921875 209.568359375 1 198.706054688 1 c 0
 187.842773438 1 180.176757812 4.1669921875 175.706054688 10.5 c 0
 171.235351562 16.8330078125 169.666992188 23.3330078125 171 30 c 2
 280 652 l 1
 74 652 l 2
 67.3330078125 652 61.6669921875 654.5 57 659.5 c 0
 52.3330078125 664.5 50 670.333007812 50 677 c 0
 50 683.666992188 52.3330078125 689.333007812 57 694 c 0
 61.6669921875 698.666992188 67.3330078125 701 74 701 c 2
 545 701 l 2
 551.666992188 701 557.333007812 698.666992188 562 694 c 0
 566.666992188 689.333007812 569 683.666992188 569 677 c 0
 569 670.333007812 566.666992188 664.5 562 659.5 c 0
 557.333007812 654.5 551.666992188 652 545 652 c 2
 330 652 l 1
 219 21 l 2
EndSplineSet
EndChar

StartChar: U
Encoding: 85 85 18
Width: 814
Flags: MW
HStem: 1 49
VStem: 105 49<239 246>
LayerCount: 2
Fore
SplineSet
724 701 m 0
 739.333007812 697.666992188 746 688 744 672 c 2
 674 280 l 2
 660 202.666992188 621.333007812 137 558 83 c 0
 494.666992188 29 424.333007812 1.6669921875 347 1 c 2
 346 1 l 2
 277.333007812 1 219.666992188 23.6669921875 173 69 c 0
 127.666992188 114.333007812 105 171 105 239 c 0
 105 253 106.666992188 269.333007812 110 288 c 2
 179 681 l 2
 179.666992188 687.666992188 182.833007812 693 188.5 697 c 0
 194.166992188 701 200.333007812 702.333007812 207 701 c 0
 222.333007812 697.666992188 229 688 227 672 c 2
 158 280 l 2
 155.333007812 267.333007812 154 253.666992188 154 239 c 0
 154.666992188 184.333007812 172.666992188 139.333007812 208 104 c 0
 243.333007812 68.6669921875 291.5 50.6669921875 352.5 50 c 0
 413.5 49.3330078125 471.666992188 72.6669921875 527 120 c 0
 582.333007812 167.333007812 615.333007812 223.333007812 626 288 c 2
 696 681 l 2
 696.666992188 687.666992188 699.833007812 693 705.5 697 c 0
 711.166992188 701 717.333007812 702.333007812 724 701 c 0
EndSplineSet
EndChar

StartChar: V
Encoding: 86 86 19
Width: 750
Flags: MW
HStem: 1 21G<241.667 244.333>
LayerCount: 2
Fore
SplineSet
259 7 m 0
 258.333007812 6.3330078125 257.666992188 6 257 6 c 0
 256.333007812 6 255.5 5.5830078125 254.5 4.75 c 0
 253.5 3.9169921875 252 3 250 2 c 1
 249 2 l 2
 247.666992188 1.3330078125 245.666992188 1 243 1 c 0
 240.333007812 1 238.333007812 1.3330078125 237 2 c 2
 236 2 l 1
 233.333007812 3.3330078125 231.666992188 4.3330078125 231 5 c 2
 230 5 l 2
 230 5.6669921875 229.666992188 6 229 6 c 0
 228.333007812 6 226.333007812 7.6669921875 223 11 c 0
 221.666992188 13 220.333007812 16 219 20 c 2
 60 671 l 2
 58 677.666992188 58.8330078125 683.833007812 62.5 689.5 c 0
 66.1669921875 695.166992188 71.3330078125 698.833007812 78 700.5 c 0
 84.6669921875 702.166992188 90.8330078125 701.333007812 96.5 698 c 0
 102.166992188 694.666992188 105.666992188 689.666992188 107 683 c 2
 252 89 l 1
 611 689 l 2
 614.333007812 695 619.333007812 698.833007812 626 700.5 c 0
 632.666992188 702.166992188 638.833007812 701.333007812 644.5 698 c 0
 650.166992188 694.666992188 653.833007812 689.666992188 655.5 683 c 0
 657.166992188 676.333007812 656.333007812 670 653 664 c 2
 264 13 l 1
 260 9 l 2
 260 8.3330078125 259.833007812 8 259.5 8 c 0
 259.166992188 8 259 7.6669921875 259 7 c 0
EndSplineSet
EndChar

StartChar: W
Encoding: 87 87 20
Width: 1102
Flags: W
HStem: -20 20G<239 240 239 239 248 252 248 248 644 645 644 644 652.667 653 653 657> -1 21G<246 246 651 651.333>
LayerCount: 2
Fore
SplineSet
667 5 m 2x80
 657 0 l 1
 653 0 l 2x80
 652.333007812 0 652 -0.1669921875 652 -0.5 c 0
 652 -0.8330078125 651.666992188 -1 651 -1 c 2x40
 645 0 l 1
 644 0 l 1
 641.333007812 1.3330078125 639.666992188 2.3330078125 639 3 c 2
 638 3 l 1
 636.666992188 4.3330078125 635.333007812 5.5 634 6.5 c 0
 630 9.5 628 12 628 14 c 0
 628 16 627.666992188 17.3330078125 627 18 c 2
 524 441 l 1
 267 11 l 1
 266 10 l 2
 266 9 265.5 8.0830078125 264.5 7.25 c 0
 263.5 6.4169921875 262.833007812 6 262.5 6 c 0
 262.166992188 6 261.333007812 5.5 260 4.5 c 0
 258.666992188 3.5 258 2.8330078125 258 2.5 c 0
 258 1.5 256.333007812 1 253 1 c 1
 252 0 l 1
 248 0 l 1x80
 246 -1 l 1x40
 240 0 l 1
 239 0 l 1
 236.333007812 1.3330078125 234.666992188 2.3330078125 234 3 c 2
 233 3 l 1
 231.666992188 4.3330078125 230.333007812 5.5 229 6.5 c 0
 226.185546875 8.611328125 223.8515625 12.4443359375 222 18 c 2
 63 669 l 2
 59.6669921875 684.333007812 65.6669921875 694.333007812 81 699 c 0
 87.6669921875 700.333007812 93.8330078125 699.333007812 99.5 696 c 0
 105.166992188 692.666992188 108.666992188 687.666992188 110 681 c 2
 256 87 l 1
 510 513 l 2
 515.333007812 521 521.833007812 525.166992188 529.5 525.5 c 0
 545.245117188 526.184570312 554.745117188 520.017578125 558 507 c 2
 661 87 l 1
 1019 687 l 2
 1022.33300781 693 1027.33300781 696.833007812 1034 698.5 c 0
 1040.66699219 700.166992188 1047 699.333007812 1053 696 c 0
 1066.33300781 687.333007812 1069 676 1061 662 c 2
 672 11 l 2
 670.666992188 9.6669921875 669.666992188 8.5 669 7.5 c 0
 668.333007812 6.5 667.833007812 6 667.5 6 c 0
 667.166992188 6 667 5.6669921875 667 5 c 2x80
EndSplineSet
EndChar

StartChar: X
Encoding: 88 88 21
Width: 722
Flags: MW
HStem: -2 21G<97.6665 104.333 568.667 575.333>
LayerCount: 2
Fore
SplineSet
426 345 m 1
 598 35 l 2
 605.333007812 20.3330078125 602 9 588 1 c 0
 584 -1 578.666992188 -2 572 -2 c 0
 565.333007812 -2 559.666992188 2.3330078125 555 11 c 2
 391 307 l 1
 119 6 l 2
 113.666992188 0.6669921875 107.666992188 -2 101 -2 c 0
 94.3330078125 -2 88.6669921875 0.3330078125 84 5 c 0
 72 15.6669921875 71.3330078125 27 82 39 c 2
 366 352 l 1
 194 662 l 2
 190.666992188 668 190 674.166992188 192 680.5 c 0
 194 686.833007812 197.666992188 691.666992188 203 695 c 0
 209 698.333007812 215.333007812 699.166992188 222 697.5 c 0
 228.666992188 695.833007812 233.666992188 692 237 686 c 2
 401 390 l 1
 673 690 l 2
 677.666992188 695.333007812 683.333007812 698.166992188 690 698.5 c 0
 696.666992188 698.833007812 702.5 696.666992188 707.5 692 c 0
 712.5 687.333007812 715.166992188 681.5 715.5 674.5 c 0
 715.833007812 667.5 713.666992188 661.666992188 709 657 c 2
 426 345 l 1
EndSplineSet
EndChar

StartChar: Y
Encoding: 89 89 22
Width: 604
Flags: MW
HStem: -1 21G<203 208 203 203>
LayerCount: 2
Fore
SplineSet
581 658 m 2
 287 334 l 1
 232 19 l 2
 231.333007812 13 228.5 8.1669921875 223.5 4.5 c 0
 218.5 0.8330078125 213.333007812 -1 208 -1 c 2
 203 -1 l 2
 196.333007812 -0.3330078125 191 2.8330078125 187 8.5 c 0
 183 14.1669921875 181.666992188 20.3330078125 183 27 c 2
 239 341 l 1
 61 662 l 2
 57.6669921875 668 57 674.166992188 59 680.5 c 0
 61 686.833007812 64.6669921875 691.666992188 70 695 c 0
 76 698.333007812 82.3330078125 699.166992188 89 697.5 c 0
 95.6669921875 695.833007812 100.666992188 692 104 686 c 2
 269 387 l 1
 544 690 l 2
 548.666992188 695.333007812 554.333007812 698.166992188 561 698.5 c 0
 567.666992188 698.833007812 573.666992188 696.666992188 579 692 c 0
 591 681.333007812 591.666992188 670 581 658 c 2
EndSplineSet
EndChar

StartChar: Z
Encoding: 90 90 23
Width: 667
Flags: W
HStem: -20 20G<86.6665 87.3335> -2 49<151 572 151 572> -1 21G<72 91 72 89> 649 49<207.333 691 211 631> 677 20G<693 711>
LayerCount: 2
Fore
SplineSet
707 661 m 2x08
 705 657 l 1
 151 47 l 1
 572 47 l 2
 578.666992188 47 584.333007812 44.6669921875 589 40 c 0
 593.666992188 35.3330078125 596 29.6669921875 596 23 c 0
 596 16.3330078125 593.666992188 10.5 589 5.5 c 0
 584.333007812 0.5 578.666992188 -2 572 -2 c 2
 95 -2 l 1x48
 91 -1 l 1
 89 -1 l 2x20
 88.3330078125 -0.3330078125 87.6669921875 0 87 0 c 0x80
 86.3330078125 0 86 0.1669921875 86 0.5 c 0
 86 0.8330078125 85.6669921875 1 85 1 c 2
 81 4 l 2
 80.3330078125 4 79 5 77 7 c 0
 77 7.6669921875 76.8330078125 8 76.5 8 c 0
 74.1669921875 8 73 10.3330078125 73 15 c 1
 72 17 l 1
 72 20 l 2
 72 20.6669921875 71.6669921875 21.3330078125 71 22 c 2
 71 23 l 1
 72 24 l 1
 72 29 l 1
 74 31 75 33.3330078125 75 36 c 1
 77 38 l 2
 77 38.6669921875 77.3330078125 39 78 39 c 2
 631 649 l 1
 211 649 l 2
 203.666992188 649 197.666992188 651.5 193 656.5 c 0
 188.333007812 661.5 186 667.333007812 186 674 c 0
 186 680.666992188 188.5 686.333007812 193.5 691 c 0
 198.5 695.666992188 204.333007812 698 211 698 c 2
 691 698 l 2x30
 691.666992188 698 692.333007812 697.666992188 693 697 c 2
 695 697 l 2
 695.666992188 696.333007812 696.333007812 696 697 696 c 0
 697.666992188 696 698 695.666992188 698 695 c 2
 699 695 l 1
 700.333007812 693.666992188 701.666992188 692.5 703 691.5 c 0
 704.333007812 690.5 705.166992188 689.833007812 705.5 689.5 c 0
 705.833007812 689.166992188 706 688.833007812 706 688.5 c 0
 706 686.833007812 706.666992188 686 708 686 c 1
 709 684 l 2
 709 682.666992188 709.333007812 682 710 682 c 2
 710 679 l 2
 710.666992188 679 711 678.333007812 711 677 c 2
 711 670 l 2
 710.333007812 669.333007812 710 668.5 710 667.5 c 0
 710 665.833007812 709.333007812 664.333007812 708 663 c 0
 708 661.666992188 707.666992188 661 707 661 c 2x08
EndSplineSet
EndChar

StartChar: ampersand
Encoding: 38 38 24
Width: 696
Flags: MW
HStem: -1 49 271 49<407 439 399.333 444.333> 650 49
VStem: 49 49 452 49<553.333 555> 546 49<388 395 395 395>
LayerCount: 2
Fore
SplineSet
439 320 m 1
 473 319 l 2
 473.666992188 318.333007812 475.333007812 318 478 318 c 0
 498 318 514.333007812 323.666992188 527 335 c 0
 539.666992188 346.333007812 546 364 546 388 c 2
 546 395 l 2
 545.333007812 401.666992188 547.333007812 407.5 552 412.5 c 0
 556.666992188 417.5 562.333007812 420.333007812 569 421 c 0
 575.666992188 421.666992188 581.5 419.666992188 586.5 415 c 0
 591.5 410.333007812 594.333007812 404.666992188 595 398 c 2
 595 388 l 2
 595 347.333007812 582 316.666992188 556 296 c 0
 544 286 529.666992188 278.666992188 513 274 c 1
 513 264 l 2
 513 248.666992188 511.666992188 235.333007812 509 224 c 0
 498.333007812 161.333007812 467.5 108.333007812 416.5 65 c 0
 365.5 21.6669921875 310.166992188 -0.1669921875 250.5 -0.5 c 0
 190.833007812 -0.8330078125 142 17.3330078125 104 54 c 0
 67.3330078125 90.6669921875 49 136.666992188 49 192 c 0
 49 244.319335938 65.5 293.486328125 98.5 339.5 c 0
 122.166992188 372.5 151.333007812 399 186 419 c 1
 168 444.333007812 159 473 159 505 c 0
 159 515 160 524.666992188 162 534 c 0
 170 580 192.5 618.833007812 229.5 650.5 c 0
 266.5 682.166992188 307.333007812 698.166992188 352 698.5 c 0
 396.666992188 698.833007812 432.666992188 685.333007812 460 658 c 0
 487.333007812 630.666992188 501 596.333007812 501 555 c 0
 501 530.8828125 497.5 516.352539062 490.5 511.412109375 c 0
 483.5 506.470703125 476.666992188 504.5 470 505.5 c 0
 463.333007812 506.5 458 509.833007812 454 515.5 c 0
 450 521.166992188 448.666992188 528.333007812 450 537 c 0
 451.333007812 545.666992188 452 551.666992188 452 555 c 0
 451.333007812 583 442.333007812 605.666992188 425 623 c 0
 407.666992188 640.333007812 383.333007812 649.333007812 352 650 c 0
 320.666992188 650.666992188 290.5 638.5 261.5 613.5 c 0
 225.833007812 582.752929688 208 546.5859375 208 505 c 0
 208 473 219 448.666992188 241 432 c 0
 253 422 254.333007812 410.333007812 245 397 c 1
 243 396 l 1
 239 392 236.333007812 390 235 390 c 0
 200.333007812 374.666992188 170.833007812 351.833007812 146.5 321.5 c 0
 114.166992188 281.194335938 98.1669921875 239.034179688 98.5 195.020507812 c 0
 98.8330078125 151.006835938 112.5 115.666992188 139.5 89 c 0
 166.5 62.3330078125 203.333007812 48.6669921875 250 48 c 0
 296.666992188 47.3330078125 341.333007812 65.1669921875 384 101.5 c 0
 437.333007812 146.916992188 464 201.083007812 464 264 c 2
 464 270 l 1
 458 270.666992188 449.666992188 271 439 271 c 0
 375 271 331 256.333007812 307 227 c 1
 292.333007812 211 285 191.666992188 285 169 c 0
 285 166.333007812 285.333007812 164.666992188 286 164 c 2
 286 163 l 2
 286.666992188 156.333007812 285 150.333007812 281 145 c 0
 277 139.666992188 271.666992188 136.666992188 265 136 c 2
 261 136 l 2
 248.111328125 136 240.111328125 143 237 157 c 0
 237 160.333007812 236.666992188 164.333007812 236 169 c 0
 238 205 249 235 269 259 c 0
 303 299.666992188 359.666992188 320 439 320 c 1
EndSplineSet
EndChar

StartChar: zero
Encoding: 48 48 26
Width: 710
Flags: MW
HStem: 0 49<237.333 257 257 258> 651 49<345.667 392.667>
VStem: 65 49<234 280> 516 49<420 466>
LayerCount: 2
Fore
SplineSet
73 354 m 0
 90.3330078125 449.333007812 127.833007812 530.833007812 185.5 598.5 c 0
 243.166992188 666.166992188 303.5 700 366.5 700 c 0
 429.5 700 478.333007812 674.5 513 623.5 c 0
 547.666992188 572.5 565 509 565 433 c 0
 565 407 562.333007812 378 557 346 c 1
 533 350 l 1
 557 346 l 1
 541 253.333007812 504.333007812 172.666992188 447 104 c 1
 387.666992188 34.6669921875 324.666992188 0 258 0 c 2
 257 0 l 2
 199 0 152.5 25.8330078125 117.5 77.5 c 0
 82.5 129.166992188 65 192.333007812 65 267 c 0
 65 293 67.6669921875 322 73 354 c 0
509 354 m 0
 513.666992188 380 516 406.333007812 516 433 c 0
 516 499 502.333007812 551.833007812 475 591.5 c 0
 447.666992188 631.166992188 413.333007812 651 372 651 c 0
 319.333007812 651 268 621.5 218 562.5 c 0
 168 503.5 135.666992188 431.333007812 121 346 c 0
 116.333007812 320.666992188 114 294.333007812 114 267 c 0
 114 201 127.666992188 148.166992188 155 108.5 c 0
 182.333007812 68.8330078125 216.666992188 49 258 49 c 0
 310.666992188 49 361.833007812 78.3330078125 411.5 137 c 0
 461.166992188 195.666992188 493.666992188 268 509 354 c 0
EndSplineSet
EndChar

StartChar: one
Encoding: 49 49 27
Width: 335
Flags: W
HStem: 0 21G<88.8037 99.6665> 679 20G<200 202 202 202 214 216 216 216> 680 20G<204 212 212 212.333>
LayerCount: 2
Fore
SplineSet
232 682 m 1xc0
 232 677 l 2
 232.666992188 676.333007812 232.666992188 675.666992188 232 675 c 2
 232 672 l 1
 117 20 l 2
 114.333007812 6.6669921875 106.333007812 0 93 0 c 0
 84.607421875 0 78.1767578125 3.1669921875 73.7060546875 9.5 c 0
 69.2353515625 15.8330078125 67.6669921875 22.3330078125 69 29 c 2
 175 630 l 1
 69 573 l 2
 65.6669921875 571 60.6669921875 570 54 570 c 0
 47.3330078125 570 41.3330078125 574.333007812 36 583 c 0
 28.6669921875 597.666992188 32 608.666992188 46 616 c 2
 197 697 l 1
 197 698 l 1
 198.333007812 698 199.333007812 698.333007812 200 699 c 2
 202 699 l 1xc0
 204 700 l 1
 212 700 l 2xa0
 212.666992188 700 213.333007812 699.666992188 214 699 c 2
 216 699 l 1
 222 696 l 1
 225.333007812 692.666992188 227.333007812 691 228 691 c 1
 228 689.666992188 228.666992188 688.333007812 230 687 c 1
 230 686 l 2
 230.666992188 685.333007812 231 684.666992188 231 684 c 2
 232 682 l 1xc0
EndSplineSet
EndChar

StartChar: two
Encoding: 50 50 28
Width: 590
Flags: MW
HStem: 1 49<143 465 143 465> 652 49<355.333 404.667>
VStem: 523 49
LayerCount: 2
Fore
SplineSet
535 624 m 0
 559.666992188 590.666992188 571.833007812 553.5 571.5 512.5 c 0
 571.166992188 471.5 561.666992188 432.666992188 543 396 c 0
 524.333007812 359.333007812 498.333007812 328 465 302 c 2
 143 50 l 1
 465 50 l 2
 471.666992188 50 477.5 47.6669921875 482.5 43 c 0
 487.5 38.3330078125 490 32.6669921875 490 26 c 0
 490 19.3330078125 487.666992188 13.5 483 8.5 c 0
 478.333007812 3.5 472.333007812 1 465 1 c 2
 72 1 l 2
 63.3330078125 1 56.8330078125 3.8330078125 52.5 9.5 c 0
 48.1669921875 15.1669921875 46.5 21.5 47.5 28.5 c 0
 48.5 35.5 51.6669921875 41 57 45 c 2
 435 340 l 2
 463 362 484.666992188 388 500 418 c 0
 515.333007812 448 523 478.833007812 523 510.5 c 0
 523 542.166992188 514 570.333007812 496 595 c 0
 468 633 429.333007812 652 380 652 c 0
 330.666992188 652 285.333007812 636.333007812 244 605 c 1
 205 573 l 2
 199.666992188 569 193.5 567.5 186.5 568.5 c 0
 179.5 569.5 174 572.666992188 170 578 c 0
 166 583.333007812 164.333007812 589.333007812 165 596 c 0
 165.666992188 602.666992188 168.666992188 608 174 612 c 2
 214 643 l 2
 263.333007812 681.666992188 317.333007812 701 376 701 c 0
 444.666992188 701 497.666992188 675.333007812 535 624 c 0
EndSplineSet
EndChar

StartChar: three
Encoding: 51 51 29
Width: 610
Flags: MW
HStem: 0 51<217.333 234 234 235> 650 50<231.667 571 244 503>
LayerCount: 2
Fore
SplineSet
580 656 m 1
 366 470 l 1
 412 460 448 438.666992188 474 406 c 1
 512.666992188 360.666992188 526.333007812 304.833007812 515 238.5 c 0
 503.666992188 172.166992188 470.166992188 115.833007812 414.5 69.5 c 0
 358.833007812 23.1669921875 299 0 235 0 c 2
 234 0 l 2
 168.666992188 0 117 23.3330078125 79 70 c 0
 75 74.6669921875 73.6669921875 80.3330078125 75 87 c 0
 76.3330078125 93.6669921875 79.6669921875 99.6669921875 85 105 c 0
 91 109.666992188 97.5 112 104.5 112 c 0
 111.5 112 117 109.666992188 121 105 c 0
 151 69 191.666992188 51 243 51 c 0
 294.333007812 51 342 69 386 105 c 1
 429.333007812 142.333007812 455.333007812 187 464 239 c 0
 472.666992188 291 462.166992188 335 432.5 371 c 0
 402.833007812 407 362 425 310 425 c 0
 302.666992188 425 296.666992188 428.333007812 292 435 c 1
 291 435 l 1
 281.666992188 447 283.666992188 459 297 471 c 2
 503 650 l 1
 235 650 l 2
 228.333007812 650 222.833007812 652.333007812 218.5 657 c 0
 214.166992188 661.666992188 212.666992188 667.666992188 214 675 c 0
 215.333007812 682.333007812 219 688.333007812 225 693 c 0
 231 697.666992188 237.333007812 700 244 700 c 2
 571 700 l 2
 578.333007812 700 583.833007812 697.5 587.5 692.5 c 0
 591.166992188 687.5 592.666992188 682.5 592 677.5 c 0
 590.682617188 667.622070312 586.682617188 660.455078125 580 656 c 1
EndSplineSet
EndChar

StartChar: four
Encoding: 52 52 30
Width: 664
Flags: W
HStem: 1 21G<452.804 463.667> 145 49<132 453 511 554 132 503> 680 20G<564 564.667> 681 20G<567 576 576 576>
LayerCount: 2
Fore
SplineSet
554 694 m 2xd0
 554.666992188 694 556.111328125 694.833007812 558.333007812 696.5 c 0
 560.555664062 698.166992188 561.77734375 699 562 699 c 2
 564 700 l 2xe0
 565.333007812 700 566.333007812 700.333007812 567 701 c 2
 576 701 l 1
 589 694 l 1
 592 691 l 1
 594 686 l 2
 594.666992188 685.333007812 595 684.666992188 595 684 c 0
 595 683.333007812 595.333007812 682.666992188 596 682 c 2
 596 672 l 1
 511 194 l 1
 554 194 l 2
 560.666992188 194 566.5 191.666992188 571.5 187 c 0
 576.5 182.333007812 579 176.666992188 579 170 c 0
 579 163.333007812 576.5 157.5 571.5 152.5 c 0
 566.5 147.5 560.666992188 145 554 145 c 2
 503 145 l 1
 481 21 l 2
 478.333007812 7.6669921875 470.333007812 1 457 1 c 0
 448.607421875 1 442.176757812 4.1669921875 437.706054688 10.5 c 0
 433.235351562 16.8330078125 431.666992188 23.3330078125 433 30 c 2
 453 145 l 1
 74 145 l 2
 67.3330078125 145 61.6669921875 147.333007812 57 152 c 0
 45.6669921875 164 45.6669921875 175.666992188 57 187 c 2
 554 694 l 2xd0
132 194 m 1
 462 194 l 1
 534 603 l 1
 132 194 l 1
EndSplineSet
EndChar

StartChar: five
Encoding: 53 53 31
Width: 605
Flags: MW
HStem: -1 50<202 254 202 258> 424 50<283.333 328> 649 50<245 554 245 245>
VStem: 456 50<263 297>
LayerCount: 2
Fore
SplineSet
554 699 m 2
 561.333007812 699 567.5 696.5 572.5 691.5 c 0
 577.5 686.5 580 680.666992188 580 674 c 0
 580 667.333007812 577.5 661.5 572.5 656.5 c 0
 567.5 651.5 561.333007812 649 554 649 c 2
 245 649 l 1
 184 445 l 1
 224 464.333007812 263.666992188 474 303 474 c 0
 369.666992188 474 422.333007812 450.333007812 461 403 c 0
 491 366.333007812 506 326.333007812 506 283 c 0
 506 197.916992188 472.333007812 125.916992188 405 67 c 1
 350.333007812 21.6669921875 290.5 -1 225.5 -1 c 0
 160.5 -1 108.333007812 22.6669921875 69 70 c 0
 64.3330078125 75.3330078125 62.3330078125 81.5 63 88.5 c 0
 63.6669921875 95.5 66.6669921875 101.333007812 72 106 c 0
 86 116 98 114.666992188 108 102 c 0
 136 66.6669921875 176 49 228 49 c 0
 280 49 328 68 372 106 c 0
 398.666992188 128.666992188 419.333007812 154.833007812 434 184.5 c 0
 448.666992188 214.166992188 456 246 456 280 c 0
 456 314 444.666992188 344.333007812 422 371 c 1
 394 406.333007812 354 424 302 424 c 0
 250 424 202 405 158 367 c 0
 152.666992188 362.333007812 146.5 360.333007812 139.5 361 c 0
 132.5 361.666992188 127 364.5 123 369.5 c 0
 119 374.5 117 379.333007812 117 384 c 1
 115.666992188 387.333007812 115.666992188 391 117 395 c 2
 202 680 l 2
 204 686.666992188 208.333007812 691.666992188 215 695 c 0
 218.333007812 697.666992188 222.666992188 699 228 699 c 2
 554 699 l 2
EndSplineSet
EndChar

StartChar: six
Encoding: 54 54 32
Width: 642
Flags: MW
HStem: 2 49 415 49<308.667 334 334 335> 653 49
VStem: 65 48<212 215 215 215> 485 49<265 269>
LayerCount: 2
Fore
SplineSet
155 391 m 1
 207.666992188 439.666992188 265 464 327 464 c 0
 389 464 439.333007812 445.333007812 478 408 c 0
 515.333007812 370.666992188 534 324.333007812 534 269 c 0
 534 261 532.666992188 247.666992188 530 229 c 1
 506 233 l 1
 530 229 l 1
 518.666992188 165.666992188 487.166992188 112.166992188 435.5 68.5 c 0
 383.833007812 24.8330078125 327.666992188 2.8330078125 267 2.5 c 0
 206.333007812 2.1669921875 157.333007812 20.6669921875 120 58 c 0
 82.6669921875 95.3330078125 64 141.666992188 64 197 c 0
 64 203.666992188 64.3330078125 208.666992188 65 212 c 2
 65 215 l 1
 73 329 107.333007812 432.333007812 168 525 c 0
 242.666992188 638.333007812 338.666992188 697.333007812 456 702 c 0
 462.666992188 702.666992188 468.5 700.666992188 473.5 696 c 0
 478.5 691.333007812 481.166992188 685.666992188 481.5 679 c 0
 481.833007812 672.333007812 479.666992188 666.5 475 661.5 c 0
 470.333007812 656.5 464.666992188 653.666992188 458 653 c 0
 358.666992188 649.666992188 275.666992188 598 209 498 c 0
 189.666992188 467.333007812 171.666992188 431.666992188 155 391 c 1
403.5 105.5 m 0
 457.833007812 151.538085938 485 206.038085938 485 269 c 0
 484.333007812 311.666992188 470.333007812 346.5 443 373.5 c 0
 415.666992188 400.5 379.666992188 414.333007812 335 415 c 2
 334 415 l 2
 283.333007812 415 236.5 396.666992188 193.5 360 c 0
 139.833007812 314.237304688 113 259.904296875 113 197 c 0
 113.666992188 154.333007812 127.666992188 119.5 155 92.5 c 0
 182.333007812 65.5 219.666992188 51.6669921875 267 51 c 0
 314.333007812 50.3330078125 359.833007812 68.5 403.5 105.5 c 0
EndSplineSet
EndChar

StartChar: seven
Encoding: 55 55 33
Width: 587
Flags: W
HStem: 1 21G<92.3335 99.6665> 652 49<100.667 486 104 438> 680 20G<487.667 506>
LayerCount: 2
Fore
SplineSet
505 670 m 1xa0
 503 665 l 1
 502 664 l 1
 113 13 l 2
 109 5 103.333007812 1 96 1 c 0
 88.6669921875 1 82.6669921875 2.5 78 5.5 c 0
 73.3330078125 8.5 70.1669921875 13.3330078125 68.5 20 c 0
 66.8330078125 26.6669921875 67.6669921875 32.6669921875 71 38 c 2
 438 652 l 1
 104 652 l 2
 97.3330078125 652 91.6669921875 654.5 87 659.5 c 0
 82.3330078125 664.5 80 670.333007812 80 677 c 0
 80 683.666992188 82.3330078125 689.333007812 87 694 c 0
 91.6669921875 698.666992188 97.3330078125 701 104 701 c 2
 486 701 l 2xc0
 486.666992188 700.333007812 487.333007812 700 488 700 c 0
 490 700 491.666992188 699.333007812 493 698 c 1
 494 698 l 1
 494 697 l 1
 495.333007812 696.333007812 496.333007812 696 497 696 c 2
 503 689 l 1
 503 687 503.666992188 685.333007812 505 684 c 1
 505 682 l 2
 505 681.333007812 505.333007812 680.666992188 506 680 c 2
 506 675 l 2
 506 673.666992188 505.666992188 673 505 673 c 2
 505 670 l 1xa0
EndSplineSet
EndChar

StartChar: eight
Encoding: 56 56 34
Width: 630
Flags: MW
HStem: 0 48 406 51 652 48
VStem: 55 48<191 196 191 221.524> 468 48<231.208 262>
LayerCount: 2
Fore
SplineSet
409 435 m 1
 428.333007812 425.666992188 445.666992188 413.666992188 461 399 c 0
 497.666992188 362.333007812 516 316.666992188 516 262 c 0
 516 185.315429688 484 119.815429688 420 65.5 c 0
 369.333007812 22.5 314.5 0.8330078125 255.5 0.5 c 0
 196.5 0.1669921875 148 18.3330078125 110 55 c 0
 73.3330078125 91.6669921875 55 137 55 191 c 0
 55 252.047851562 77 307.713867188 121 358 c 0
 153.666992188 395.333007812 192.666992188 422 238 438 c 1
 231 445 l 2
 207.666992188 468.333007812 196 497.666992188 196 533 c 0
 196 582.354492188 216.333007812 624.1875 257 658.5 c 0
 289 685.5 324.166992188 699.166992188 362.5 699.5 c 0
 400.833007812 699.833007812 431.833007812 688.166992188 455.5 664.5 c 0
 479.166992188 640.833007812 491 611.333007812 491 576 c 0
 491 564.666992188 490.333007812 556 489 550 c 0
 479.666992188 500 453 461.666992188 409 435 c 1
245 550 m 1
 221 554 l 1
 245 550 l 1
 244.333007812 546 244 540.333007812 244 533 c 0
 244 511 251 493 265 479 c 0
 279 465 298.833007812 457.666992188 324.5 457 c 0
 350.166992188 456.333007812 375 466.333007812 399 487 c 0
 428.333007812 512.258789062 443 541.92578125 443 576 c 0
 443 598 436 616 422 630 c 0
 408 644 388.166992188 651.333007812 362.5 652 c 0
 336.833007812 652.666992188 312 642.666992188 288 622 c 0
 264 601.333007812 249.666992188 577.333007812 245 550 c 1
388 101.5 m 0
 441.333007812 146.916992188 468 200.416992188 468 262 c 0
 467.333007812 304 453.666992188 338.333007812 427 365 c 0
 400.333007812 391.666992188 363.666992188 405.166992188 317 405.5 c 0
 270.333007812 405.833007812 225.666992188 387.833007812 183 351.5 c 0
 140.333007812 315.166992188 114.666992188 272.333007812 106 223 c 1
 83 227 l 1
 106 223 l 1
 104 211.666992188 103 201 103 191 c 0
 103.666992188 149.666992188 117.5 115.666992188 144.5 89 c 0
 171.5 62.3330078125 208.166992188 48.6669921875 254.5 48 c 0
 300.833007812 47.3330078125 345.333007812 65.1669921875 388 101.5 c 0
EndSplineSet
EndChar

StartChar: nine
Encoding: 57 57 35
Width: 642
Flags: MW
HStem: 0 49<139.667 142 138.667 143 138.667 144> 238 49 651 49
VStem: 66 49<433 438 433 472.402> 486 49<487 505 487 505>
LayerCount: 2
Fore
SplineSet
479 644 m 0
 516.333007812 608 535 561.666992188 535 505 c 2
 535 487 l 1
 525.666992188 372.333007812 491 269.333007812 431 178 c 0
 356.333007812 64 260.666992188 4.6669921875 144 0 c 1
 143 0 l 2
 136.333007812 0 130.666992188 2.3330078125 126 7 c 0
 121.333007812 11.6669921875 118.666992188 17.3330078125 118 24 c 0
 118 30.6669921875 120.333007812 36.5 125 41.5 c 0
 129.666992188 46.5 135.333007812 49 142 49 c 0
 242 53.6669921875 324.666992188 105.666992188 390 205 c 0
 411.333007812 237 429.333007812 272.333007812 444 311 c 1
 392 263.666992188 332 239.333007812 264 238 c 1
 206.666992188 238 159.333007812 256.666992188 122 294 c 0
 84.6669921875 330 66 376.333007812 66 433 c 0
 66 511.803710938 98.6669921875 578.63671875 164 633.5 c 0
 216 677.166992188 272.166992188 699.166992188 332.5 699.5 c 0
 392.833007812 699.833007812 441.666992188 681.333007812 479 644 c 0
156.5 328.5 m 0
 183.5 301.5 220.833007812 287.666992188 268.5 287 c 0
 316.166992188 286.333007812 361.666992188 304.5 405 341.5 c 0
 459 387.607421875 486 442.107421875 486 505 c 0
 485.333007812 547.666992188 471.5 582.5 444.5 609.5 c 0
 417.5 636.5 380.166992188 650.333007812 332.5 651 c 0
 284.833007812 651.666992188 239.333007812 633.5 196 596.5 c 0
 152.666992188 559.5 126.666992188 515.666992188 118 465 c 1
 94 469 l 1
 118 465 l 1
 116 453.666992188 115 443 115 433 c 0
 115.666992188 390.333007812 129.5 355.5 156.5 328.5 c 0
EndSplineSet
EndChar

StartChar: a
Encoding: 97 97 36
Width: 619
Flags: MW
HStem: 0 48 440 48
VStem: 40 47<203 209.667 203 211.333>
LayerCount: 2
Fore
SplineSet
235 0 m 0
 178.333007812 0 131.666992188 19.3330078125 95 58 c 0
 58.3330078125 96.6669921875 40 145 40 203 c 0
 40 219.666992188 41.3330078125 234.666992188 44 248 c 0
 56 314.666992188 87.8330078125 371.166992188 139.5 417.5 c 0
 191.166992188 463.833007812 247.166992188 487.166992188 307.5 487.5 c 0
 367.833007812 487.833007812 416.666992188 468.333007812 454 429 c 0
 466 415.666992188 475.666992188 402.333007812 483 389 c 1
 497 468 l 2
 498.333007812 474.666992188 501.5 479.833007812 506.5 483.5 c 0
 511.5 487.166992188 517.333007812 488.5 524 487.5 c 0
 530.666992188 486.5 535.833007812 483.333007812 539.5 478 c 0
 543.166992188 472.666992188 544.666992188 466.666992188 544 460 c 2
 466 20 l 2
 464 6.6669921875 456 0 442 0 c 2
 438 0 l 1
 431.333007812 1.3330078125 426.166992188 4.6669921875 422.5 10 c 0
 418.833007812 15.3330078125 417.666992188 21.3330078125 419 28 c 2
 430 92 l 1
 376 32 311 1.3330078125 235 0 c 0
91 240 m 0
 88.3330078125 228.666992188 87 216.333007812 87 203 c 0
 87.6669921875 157.666992188 101.666992188 120.666992188 129 92 c 0
 156.333007812 63.3330078125 193.5 48.6669921875 240.5 48 c 0
 287.5 47.3330078125 333.166992188 66.6669921875 377.5 106 c 0
 433.166992188 155.388671875 461 215.0546875 461 285 c 0
 460.333007812 330.333007812 446.5 367.333007812 419.5 396 c 0
 392.5 424.666992188 357 439.333007812 313 440 c 2
 312 440 l 2
 261.333007812 440 214.166992188 420.333007812 170.5 381 c 0
 126.833007812 341.666992188 100.333007812 294.666992188 91 240 c 0
EndSplineSet
EndChar

StartChar: b
Encoding: 98 98 37
Width: 660
Flags: MW
HStem: -2 49 439 49<383 439.667 409 439.667>
VStem: 563 49<275 283>
LayerCount: 2
Fore
SplineSet
115 -2 m 1
 99 2 92.6669921875 11.6669921875 96 27 c 2
 210 678 l 2
 213.333007812 693.333007812 223 700 239 698 c 1
 254.333007812 694.666992188 261 685 259 669 c 2
 210 396 l 1
 266 456 332.666992188 486.666992188 410 488 c 1
 469.333007812 488 517.833007812 468.5 555.5 429.5 c 0
 593.166992188 390.5 612 341.666992188 612 283 c 0
 612 267 610.666992188 252.333007812 608 239 c 1
 584 243 l 1
 608 239 l 1
 596 171.666992188 563.5 114.833007812 510.5 68.5 c 0
 457.5 22.1669921875 398.333007812 -1.3330078125 333 -2 c 2
 332 -2 l 2
 273.333007812 -2 225 17.6669921875 187 57 c 0
 175 70.3330078125 165.333007812 83.6669921875 158 97 c 1
 144 18 l 2
 143.333007812 12 140.5 7.1669921875 135.5 3.5 c 0
 130.5 -0.1669921875 125.333007812 -2 120 -2 c 2
 115 -2 l 1
409 439 m 2
 357 439 308.5 419.166992188 263.5 379.5 c 0
 218.5 339.833007812 191.666992188 293 183 239 c 0
 180.333007812 227.666992188 179 215.666992188 179 203 c 0
 179.666992188 157 194 119.666992188 222 91 c 0
 250 62.3330078125 288.5 47.6669921875 337.5 47 c 0
 386.5 46.3330078125 433.5 65.8330078125 478.5 105.5 c 0
 534.833007812 155.157226562 563 214.323242188 563 283 c 0
 562.333007812 329 548.166992188 366.333007812 520.5 395 c 0
 492.833007812 423.666992188 456 438.333007812 410 439 c 2
 409 439 l 2
EndSplineSet
EndChar

StartChar: c
Encoding: 99 99 38
Width: 571
Flags: MW
HStem: 1 48 442 48
VStem: 58 48<185 215.333>
LayerCount: 2
Fore
SplineSet
58 208 m 0
 58 222.666992188 59.3330078125 236.333007812 62 249 c 0
 74 316.333007812 107.833007812 373.166992188 163.5 419.5 c 0
 219.166992188 465.833007812 279.166992188 489.166992188 343.5 489.5 c 0
 407.833007812 489.833007812 460 472 500 436 c 0
 511.333007812 424.666992188 511.5 413.166992188 500.5 401.5 c 0
 489.5 389.833007812 478.666992188 389.333007812 468 400 c 0
 436.666992188 428 395.166992188 442.166992188 343.5 442.5 c 0
 291.833007812 442.833007812 242.166992188 423 194.5 383 c 0
 135.5 333.489257812 106 275.15625 106 208 c 0
 106 162 121.5 124.166992188 152.5 94.5 c 0
 183.5 64.8330078125 223.333007812 49.8330078125 272 49.5 c 0
 320.666992188 49.1669921875 366.333007812 63.6669921875 409 93 c 0
 414.333007812 96.3330078125 420.333007812 97.3330078125 427 96 c 0
 433.666992188 94.6669921875 438.666992188 91.3330078125 442 86 c 0
 450 72.6669921875 448 61.6669921875 436 53 c 0
 384 18.3330078125 328.333007812 1 269 1 c 0
 209.666992188 1 159.666992188 20.6669921875 119 60 c 0
 78.3330078125 99.3330078125 58 148.666992188 58 208 c 0
EndSplineSet
EndChar

StartChar: d
Encoding: 100 100 39
Width: 660
Flags: MW
HStem: 1 49 442 49
VStem: 60 49<206 211.333 206 214>
LayerCount: 2
Fore
SplineSet
261 1 m 2
 202.333007812 1 154.166992188 20.5 116.5 59.5 c 0
 78.8330078125 98.5 60 147.333007812 60 206 c 0
 60 222 61.3330078125 236.666992188 64 250 c 0
 76 317.333007812 108.5 374.166992188 161.5 420.5 c 0
 214.5 466.833007812 272.166992188 490.166992188 334.5 490.5 c 0
 396.833007812 490.833007812 447 471.333007812 485 432 c 0
 493 424 503 410.666992188 515 392 c 1
 565 681 l 2
 566.333007812 687.666992188 569.833007812 692.833007812 575.5 696.5 c 0
 581.166992188 700.166992188 587.333007812 701.666992188 594 701 c 0
 609.333007812 697.666992188 616 688 614 672 c 2
 499 21 l 2
 498.333007812 15 495.666992188 10.1669921875 491 6.5 c 0
 486.333007812 2.8330078125 481 1 475 1 c 2
 471 1 l 1
 463.666992188 2.3330078125 458.166992188 5.8330078125 454.5 11.5 c 0
 450.833007812 17.1669921875 449.666992188 23.3330078125 451 30 c 2
 462 93 l 1
 405.333007812 31.6669921875 338.666992188 1 262 1 c 2
 261 1 l 2
112 242 m 1
 88 246 l 1
 112 242 l 1
 110 228.666992188 109 216.666992188 109 206 c 0
 109.666992188 160 123.833007812 122.666992188 151.5 94 c 0
 179.166992188 65.3330078125 217.5 50.6669921875 266.5 50 c 0
 315.5 49.3330078125 362.666992188 68.8330078125 408 108.5 c 0
 464.666992188 158.083007812 493 217.25 493 286 c 0
 492.333007812 332 478 369.333007812 450 398 c 0
 422 426.666992188 383.666992188 441.333007812 335 442 c 0
 286.333007812 442.666992188 239.333007812 423.166992188 194 383.5 c 0
 148.666992188 343.833007812 121.333007812 296.666992188 112 242 c 1
EndSplineSet
EndChar

StartChar: e
Encoding: 101 101 40
Width: 609
Flags: MW
HStem: 1 48 235 49<121 491 121 513 108 491> 442 48
VStem: 58 48<182.333 211.667 182.333 213> 491 48<284 286 286 286>
LayerCount: 2
Fore
SplineSet
539 286 m 0
 539 276.666992188 538 266 536 254 c 1
 532 241.333007812 524.333007812 235 513 235 c 2
 108 235 l 1
 106.666992188 228.333007812 106 218.333007812 106 205 c 0
 106 159.666992188 120.166992188 122.5 148.5 93.5 c 0
 176.833007812 64.5 210.666992188 49.8330078125 250 49.5 c 0
 325.4609375 48.8603515625 387.4609375 78.693359375 436 139 c 0
 440.666992188 144.333007812 446.166992188 147.333007812 452.5 148 c 0
 458.833007812 148.666992188 464.666992188 146.666992188 470 142 c 0
 482 132 483 121.333007812 473 110 c 0
 447 76.6669921875 415.166992188 50.1669921875 377.5 30.5 c 0
 339.833007812 10.8330078125 300.333007812 1 259 1 c 2
 258 1 l 2
 200 1 152.166992188 20.5 114.5 59.5 c 0
 76.8330078125 98.5 58 147 58 205 c 0
 58 221 59.3330078125 236 62 250 c 0
 74 316.666992188 106.5 373.166992188 159.5 419.5 c 0
 212.5 465.833007812 270 489.166992188 332 489.5 c 0
 394 489.833007812 444 470.333007812 482 431 c 0
 520 391.666992188 539 343.333007812 539 286 c 0
338 442 m 0
 292.666992188 442.666992188 249.5 427.833007812 208.5 397.5 c 0
 167.5 367.166992188 138.333007812 329.333007812 121 284 c 1
 491 284 l 1
 491 286 l 2
 490.333007812 331.333007812 476 368.5 448 397.5 c 0
 420 426.5 383.333007812 441.333007812 338 442 c 0
EndSplineSet
EndChar

StartChar: f
Encoding: 102 102 41
Width: 362
Flags: MW
HStem: -1 21G<94.6665 101.333> 449 49<83.6665 161 96 153 210 271 96 202> 650 49<305 321.333>
LayerCount: 2
Fore
SplineSet
327 699 m 0
 333.666992188 699 338.833007812 696.5 342.5 691.5 c 0
 346.166992188 686.5 347.5 680.666992188 346.5 674 c 0
 345.5 667.333007812 342.166992188 661.666992188 336.5 657 c 0
 330.833007812 652.333007812 324.666992188 650 318 650 c 0
 288.666992188 650 266.666992188 643.166992188 252 629.5 c 0
 237.333007812 615.833007812 226.333007812 589.333007812 219 550 c 2
 210 498 l 1
 279 498 l 2
 285.666992188 498 291 495.666992188 295 491 c 0
 299 486.333007812 300.5 480.666992188 299.5 474 c 0
 298.5 467.333007812 295.166992188 461.5 289.5 456.5 c 0
 283.833007812 451.5 277.666992188 449 271 449 c 2
 202 449 l 1
 126 23 l 2
 125.333007812 16.3330078125 122.166992188 10.6669921875 116.5 6 c 0
 110.833007812 1.3330078125 104.666992188 -1 98 -1 c 0
 91.3330078125 -1 86 1.3330078125 82 6 c 0
 78 10.6669921875 76.6669921875 16.3330078125 78 23 c 2
 153 449 l 1
 87 449 l 2
 80.3330078125 449 75.1669921875 451.5 71.5 456.5 c 0
 62.490234375 468.786132812 64.490234375 480.286132812 77.5 491 c 0
 83.1669921875 495.666992188 89.3330078125 498 96 498 c 2
 161 498 l 1
 170 550 l 2
 179.333007812 601.333007812 196.666992188 639.333007812 222 664 c 1
 248 687.333007812 283 699 327 699 c 0
EndSplineSet
EndChar

StartChar: g
Encoding: 103 103 42
Width: 660
Flags: MW
HStem: -196 48<210 224 210 224> -1 48 439 49
VStem: 60 48<201 207.333>
LayerCount: 2
Fore
SplineSet
257 -1 m 2
 199.666992188 -1 152.5 18.3330078125 115.5 57 c 0
 78.5 95.6669921875 60 143.666992188 60 201 c 0
 60 213.666992188 61.6669921875 229 65 247 c 0
 77 313 109 369.5 161 416.5 c 0
 213 463.5 269 487.166992188 329 487.5 c 0
 389 487.833007812 438 468.333007812 476 429 c 0
 488 415.666992188 497.333007812 402 504 388 c 1
 518 468 l 2
 521.333007812 483.333007812 530.333007812 490 545 488 c 0
 552.333007812 486.666992188 557.833007812 483.166992188 561.5 477.5 c 0
 565.166992188 471.833007812 566.333007812 465.666992188 565 459 c 2
 490 32 l 2
 478 -31.3330078125 446.333007812 -85 395 -129 c 0
 343.666992188 -173 286.666992188 -195.333007812 224 -196 c 0
 187.333007812 -196 154 -187.666992188 124 -171 c 0
 118 -168.333007812 114 -163.833007812 112 -157.5 c 0
 110 -151.166992188 110.666992188 -145 114 -139 c 0
 122 -126.333007812 132.666992188 -123.333007812 146 -130 c 0
 170 -142 196 -148 224 -148 c 0
 273.333007812 -148.666992188 320 -130.166992188 364 -92.5 c 0
 408 -54.8330078125 434.333007812 -10.3330078125 443 41 c 2
 451 89 l 1
 394.333007812 29 330 -1 258 -1 c 2
 257 -1 l 2
112 238 m 0
 109.333007812 226.666992188 108 214.333007812 108 201 c 0
 108.666992188 155 122.666992188 117.833007812 150 89.5 c 0
 177.333007812 61.1669921875 214.666992188 46.8330078125 262 46.5 c 0
 309.333007812 46.1669921875 355 65.5 399 104.5 c 0
 443 143.5 469.666992188 191 479 247 c 0
 481.666992188 257.666992188 483 269.333007812 483 282 c 0
 482.333007812 328.666992188 468.333007812 366.5 441 395.5 c 0
 413.666992188 424.5 377.666992188 439 333 439 c 2
 332 439 l 2
 282.666992188 439 235.833007812 419.166992188 191.5 379.5 c 0
 147.166992188 339.833007812 120.666992188 292.666992188 112 238 c 0
EndSplineSet
EndChar

StartChar: h
Encoding: 104 104 43
Width: 613
Flags: W
HStem: -20 20G<125 127 125 125> -1 21G<113 113 113 123 472 472 472 477> 441 49
VStem: 503 49<314.667 317>
LayerCount: 2
Fore
SplineSet
113 -1 m 1x70
 99.6669921875 2.3330078125 93 10 93 22 c 0
 93 24.6669921875 93.3330078125 26.3330078125 94 27 c 2
 208 678 l 2
 209.333007812 685.333007812 212.833007812 690.833007812 218.5 694.5 c 0
 224.166992188 698.166992188 230.333007812 699.5 237 698.5 c 0
 243.666992188 697.5 249 694.166992188 253 688.5 c 0
 257 682.833007812 258.333007812 676.666992188 257 670 c 2
 215 422 l 1
 261.666992188 466 315.666992188 488.666992188 377 490 c 1
 426.333007812 490 467.833007812 473.5 501.5 440.5 c 0
 535.166992188 407.5 552 366.333007812 552 317 c 0
 552 305.666992188 551 294 549 282 c 2
 501 19 l 2
 500.333007812 13 497.666992188 8.1669921875 493 4.5 c 0
 488.333007812 0.8330078125 483 -1 477 -1 c 2
 472 -1 l 1x70
 465.333007812 0.3330078125 460.166992188 3.6669921875 456.5 9 c 0
 452.833007812 14.3330078125 451.666992188 20.3330078125 453 27 c 2
 501 290 l 1
 502.333007812 303.333007812 503 312.333007812 503 317 c 0
 502.333007812 353.666992188 490.5 383.333007812 467.5 406 c 0
 444.5 428.666992188 413 440.333007812 373 441 c 0
 333 441.666992188 294.333007812 426.166992188 257 394.5 c 0
 219.666992188 362.833007812 197.333007812 325.333007812 190 282 c 2
 142 19 l 1
 142 18 l 2
 141.333007812 17.3330078125 141 16 141 14 c 1
 139 12 138 10.6669921875 138 10 c 0
 138 9.3330078125 137.416992188 8.1669921875 136.25 6.5 c 0
 135.083007812 4.8330078125 133.666992188 4 132 4 c 1
 129 1 l 2
 128.333007812 1 127.666992188 0.6669921875 127 0 c 2
 125 0 l 1xb0
 123 -1 l 1
 113 -1 l 1x70
EndSplineSet
EndChar

StartChar: i
Encoding: 105 105 44
Width: 281
Flags: MW
HStem: 0 21G<116 116 116 120>
LayerCount: 2
Fore
SplineSet
116 0 m 2
 109.333007812 0.6669921875 104.166992188 3.8330078125 100.5 9.5 c 0
 96.8330078125 15.1669921875 95.6669921875 21 97 27 c 2
 174 470 l 2
 174.666992188 476.666992188 177.833007812 481.833007812 183.5 485.5 c 0
 189.166992188 489.166992188 195.333007812 490.666992188 202 490 c 0
 218 486 224.333007812 476.333007812 221 461 c 2
 143 19 l 2
 141 6.3330078125 133.333007812 0 120 0 c 2
 116 0 l 2
243 584 m 2
 241 570.666992188 233 564 219 564 c 2
 215 564 l 1
 208.333007812 565.333007812 203.166992188 568.666992188 199.5 574 c 0
 195.833007812 579.333007812 194.666992188 585.333007812 196 592 c 2
 200 615 l 2
 200.666992188 621 203.833007812 626 209.5 630 c 0
 215.166992188 634 221.166992188 635.5 227.5 634.5 c 0
 233.833007812 633.5 239 630.166992188 243 624.5 c 0
 247 618.833007812 248.333007812 612.666992188 247 606 c 2
 243 584 l 2
EndSplineSet
EndChar

StartChar: j
Encoding: 106 106 45
Width: 249
Flags: MW
HStem: -190 21G<15.6665 19>
LayerCount: 2
Fore
SplineSet
237 586 m 2
 236.333007812 580 233.833007812 575.166992188 229.5 571.5 c 0
 225.166992188 567.833007812 220.333007812 566 215 566 c 2
 210 566 l 1
 204 567.333007812 199.166992188 570.666992188 195.5 576 c 0
 191.833007812 581.333007812 190.666992188 587.333007812 192 594 c 2
 195 617 l 2
 196.333007812 623 199.666992188 627.833007812 205 631.5 c 0
 210.333007812 635.166992188 215.666992188 636.333007812 221 635 c 0
 237 631.666992188 244 622.666992188 242 608 c 1
 237 586 l 2
195 490 m 0
 210.333007812 487.333007812 216.333007812 478.333007812 213 463 c 2
 111 -111 l 2
 107 -133 96.3330078125 -151.5 79 -166.5 c 0
 61.6669921875 -181.5 41.6669921875 -189.333007812 19 -190 c 0
 12.3330078125 -190 6.6669921875 -187.666992188 2 -183 c 0
 -2.6669921875 -178.333007812 -5 -172.666992188 -5 -166 c 0
 -5 -159.333007812 -2.6669921875 -153.833007812 2 -149.5 c 0
 6.6669921875 -145.166992188 13 -143.166992188 21 -143.5 c 0
 29 -143.833007812 38 -139.833007812 48 -131.5 c 0
 58 -123.166992188 63.6669921875 -113.666992188 65 -103 c 2
 168 472 l 2
 168.666992188 478 171.666992188 482.833007812 177 486.5 c 0
 182.333007812 490.166992188 188.333007812 491.333007812 195 490 c 0
EndSplineSet
EndChar

StartChar: k
Encoding: 107 107 46
Width: 560
Flags: MW
HStem: -2 21G<115 120 115 115 445 452>
LayerCount: 2
Fore
SplineSet
475 17 m 0
 473.666992188 10.3330078125 470.666992188 5.5 466 2.5 c 0
 461.333007812 -0.5 455.5 -2 448.5 -2 c 0
 441.5 -2 435.333007812 1.6669921875 430 9 c 2
 285 233 l 1
 164 131 l 2
 164 130.333007812 163.666992188 130 163 130 c 2
 144 18 l 1
 140.666992188 4.6669921875 132.666992188 -2 120 -2 c 2
 115 -2 l 2
 108.333007812 -1.3330078125 103 1.8330078125 99 7.5 c 0
 95 13.1669921875 93.6669921875 19.3330078125 95 26 c 2
 210 677 l 2
 211.333007812 684.333007812 214.833007812 689.833007812 220.5 693.5 c 0
 226.166992188 697.166992188 232.333007812 698.333007812 239 697 c 0
 245.666992188 695.666992188 250.833007812 692.333007812 254.5 687 c 0
 258.166992188 681.666992188 259.333007812 675.666992188 258 669 c 2
 177 206 l 1
 515 493 l 2
 519.666992188 497.666992188 525.5 499.666992188 532.5 499 c 0
 539.5 498.333007812 545 495.333007812 549 490 c 0
 559.666992188 478 559 466.666992188 547 456 c 2
 322 265 l 1
 471 35 l 2
 475 29.6669921875 476.333007812 23.6669921875 475 17 c 0
EndSplineSet
EndChar

StartChar: l
Encoding: 108 108 47
Width: 249
Flags: MW
HStem: 0 21G<122 126 122 122>
LayerCount: 2
Fore
SplineSet
226.5 695 m 0
 232.166992188 699 238.333007812 700.5 245 699.5 c 0
 251.666992188 698.5 257 695.166992188 261 689.5 c 0
 265 683.833007812 266.333007812 677.666992188 265 671 c 2
 150 20 l 2
 148 6.6669921875 140 0 126 0 c 2
 122 0 l 2
 115.333007812 0.6669921875 110 3.8330078125 106 9.5 c 0
 102 15.1669921875 100.666992188 21.3330078125 102 28 c 2
 217 679 l 2
 217.666992188 685.666992188 220.833007812 691 226.5 695 c 0
EndSplineSet
EndChar

StartChar: m
Encoding: 109 109 48
Width: 951
Flags: W
HStem: -2 21G<115 124 115 115 465 465 465 475 816 816 816 820> -1 21G<125 128 125 125> 440 48
VStem: 846 48<316.667 319>
LayerCount: 2
Fore
SplineSet
493 292 m 1xb0
 496 319 l 1
 495.333007812 354.333007812 483.833007812 383.166992188 461.5 405.5 c 0
 439.166992188 427.833007812 408.166992188 439.333007812 368.5 440 c 0
 328.833007812 440.666992188 290.833007812 425.5 254.5 394.5 c 0
 218.166992188 363.5 196.333007812 326.666992188 189 284 c 2
 142 17 l 2
 142 15 141.666992188 13.6669921875 141 13 c 2
 141 12 l 2
 140.333007812 12 140 11.6669921875 140 11 c 0
 140 9 139.333007812 8 138 8 c 1
 138 7.3330078125 137 6.1669921875 135 4.5 c 0
 133 2.8330078125 131.666992188 1.8330078125 131 1.5 c 0
 129 0.5 128 -0.3330078125 128 -1 c 2
 125 -1 l 1x70
 124 -2 l 1
 115 -2 l 2
 108.333007812 -1.3330078125 103 1.8330078125 99 7.5 c 0
 95 13.1669921875 93.6669921875 19.3330078125 95 26 c 2
 142 292 l 1
 142 293 l 1
 173 468 l 1
 177 484 186.333007812 490.333007812 201 487 c 0
 207.666992188 485.666992188 212.833007812 482.5 216.5 477.5 c 0
 220.166992188 472.5 221.333007812 466.666992188 220 460 c 2
 214 421 l 1
 258.666992188 464.333007812 311.333007812 486.666992188 372 488 c 1
 422.666992188 488 463.666992188 471.666992188 495 439 c 0
 511 423 523 404.333007812 531 383 c 1
 553.666992188 414.333007812 581.833007812 439.5 615.5 458.5 c 0
 649.166992188 477.5 687.833007812 487.166992188 731.5 487.5 c 0
 775.166992188 487.833007812 813.166992188 471.833007812 845.5 439.5 c 0
 877.833007812 407.166992188 894 367 894 319 c 0
 894 307.666992188 893 296 891 284 c 2
 844 17 l 2
 842 4.3330078125 834 -2 820 -2 c 2
 816 -2 l 1
 809.333007812 -0.6669921875 804.166992188 2.6669921875 800.5 8 c 0
 796.833007812 13.3330078125 795.666992188 19.3330078125 797 26 c 2
 844 292 l 1
 845.333007812 305.333007812 846 314.333007812 846 319 c 0
 845.333007812 354.333007812 833.833007812 383.166992188 811.5 405.5 c 0
 789.166992188 427.833007812 758.333007812 439.166992188 719 439.5 c 0
 679.666992188 439.833007812 642 425 606 395 c 0
 570 365 548.333007812 329 541 287 c 0
 540.827148438 286.111328125 540.494140625 285.111328125 540 284 c 2
 493 17 l 2
 491 6.3330078125 485 0 475 -2 c 1
 465 -2 l 2
 458.333007812 -1.3330078125 453.166992188 1.8330078125 449.5 7.5 c 0
 445.833007812 13.1669921875 444.666992188 19.3330078125 446 26 c 2
 493 292 l 1xb0
EndSplineSet
EndChar

StartChar: n
Encoding: 110 110 49
Width: 613
Flags: W
HStem: 0 21G<114 123 114 114 464 464 464 467> 1 21G<125 128 125 125> 440 48
VStem: 493 48<316.667 319>
LayerCount: 2
Fore
SplineSet
123 0 m 2xb0
 114 0 l 2
 107.333007812 0.6669921875 102.166992188 3.8330078125 98.5 9.5 c 0
 94.8330078125 15.1669921875 93.6669921875 21.3330078125 95 28 c 2
 142 292 l 1
 142 293 l 1
 172 468 l 2
 173.333007812 474.666992188 176.666992188 479.833007812 182 483.5 c 0
 187.333007812 487.166992188 193.333007812 488.5 200 487.5 c 0
 206.666992188 486.5 212 483.333007812 216 478 c 0
 220 472.666992188 221.333007812 466.666992188 220 460 c 2
 213 421 l 1
 259 464.333007812 311.333007812 486.666992188 370 488 c 1
 420.666992188 488 461.833007812 471.833007812 493.5 439.5 c 0
 525.166992188 407.166992188 541 367 541 319 c 0
 541 307.666992188 540 296 538 284 c 2
 491 19 l 2
 489 6.3330078125 481 0 467 0 c 2
 464 0 l 1xb0
 457.333007812 1.3330078125 452.166992188 4.6669921875 448.5 10 c 0
 444.833007812 15.3330078125 443.666992188 21.3330078125 445 28 c 2
 491 292 l 2
 492.333007812 305.333007812 493 314.333007812 493 319 c 0
 492.333007812 354.333007812 481 383.166992188 459 405.5 c 0
 437 427.833007812 406.333007812 439.333007812 367 440 c 0
 327.666992188 440.666992188 289.833007812 425.5 253.5 394.5 c 0
 217.166992188 363.5 195.333007812 327 188 285 c 2
 142 19 l 1
 139 11 l 1
 136.333007812 8.3330078125 135 6.6669921875 135 6 c 2
 133 4 l 1
 129.666992188 4 128 3 128 1 c 1
 125 1 l 2x70
 124.333007812 0.3330078125 123.666992188 0 123 0 c 2xb0
EndSplineSet
EndChar

StartChar: o
Encoding: 111 111 50
Width: 625
Flags: MW
HStem: 0 47 442 48
VStem: 70 48<204 212> 494 47<281.667 286>
LayerCount: 2
Fore
SplineSet
541 286 m 0
 541 269.333007812 539.666992188 254 537 240 c 1
 514 245 l 1
 537 240 l 1
 525 173.333007812 493 116.666992188 441 70 c 0
 389 23.3330078125 331 0 267 0 c 2
 266 0 l 2
 209.333007812 0 162.5 19.5 125.5 58.5 c 0
 88.5 97.5 70 146 70 204 c 0
 70 220 71.3330078125 235 74 249 c 0
 86 315.666992188 118.166992188 372.333007812 170.5 419 c 0
 222.833007812 465.666992188 279.166992188 489.166992188 339.5 489.5 c 0
 399.833007812 489.833007812 448.5 470.666992188 485.5 432 c 0
 522.5 393.333007812 541 344.666992188 541 286 c 0
490 249 m 0
 492.666992188 265 494 277.333007812 494 286 c 0
 493.333007812 331.333007812 479.333007812 368.5 452 397.5 c 0
 424.666992188 426.5 389 441.333007812 345 442 c 2
 343 442 l 2
 292.333007812 442 245 422.166992188 201 382.5 c 0
 145.666992188 332.616210938 118 273.116210938 118 204 c 0
 118.666992188 158 132.666992188 120.5 160 91.5 c 0
 187.333007812 62.5 224.666992188 47.6669921875 272 47 c 0
 319.333007812 46.3330078125 365.166992188 66 409.5 106 c 0
 453.833007812 146 480.666992188 193.666992188 490 249 c 0
EndSplineSet
EndChar

StartChar: p
Encoding: 112 112 51
Width: 660
Flags: MW
HStem: -204 21G<115 119 115 115> 5 48 439 49<415 471 440 471>
VStem: 593 49<276.333 284>
LayerCount: 2
Fore
SplineSet
367 5 m 0
 292.142578125 5 234.142578125 37 193 101 c 1
 143 -184 l 2
 141 -197.333007812 133 -204 119 -204 c 2
 115 -204 l 1
 99.6669921875 -200.666992188 93 -191 95 -175 c 2
 209 468 l 2
 209.666992188 474.666992188 212.833007812 480 218.5 484 c 0
 224.166992188 488 230.5 489.333007812 237.5 488 c 0
 244.5 486.666992188 249.833007812 483.166992188 253.5 477.5 c 0
 257.166992188 471.833007812 258.333007812 465.666992188 257 459 c 2
 246 397 l 1
 302.666992188 456.333007812 367.666992188 486.666992188 441 488 c 1
 501 488 549 468.333007812 585 429 c 1
 623 391 642 342.666992188 642 284 c 0
 642 268.666992188 640.666992188 254.333007812 638 241 c 0
 626 175 593.833007812 119.166992188 541.5 73.5 c 0
 489.166992188 27.8330078125 431 5 367 5 c 0
440 439 m 2
 390 439 342.833007812 419.5 298.5 380.5 c 0
 242.833007812 331.530273438 215 273.030273438 215 205 c 0
 215.666992188 160.333007812 230 124 258 96 c 0
 286 68 323.833007812 53.6669921875 371.5 53 c 0
 419.166992188 52.3330078125 465.333007812 71.5 510 110.5 c 0
 565.333007812 158.813476562 593 216.646484375 593 284 c 0
 592.333007812 330 578.166992188 367.166992188 550.5 395.5 c 0
 522.833007812 423.833007812 486.333007812 438.333007812 441 439 c 2
 440 439 l 2
EndSplineSet
EndChar

StartChar: q
Encoding: 113 113 52
Width: 660
Flags: MW
HStem: -206 21G<430 430 430 434> 2 49 439 49
VStem: 60 49<205 210.667 205 213>
LayerCount: 2
Fore
SplineSet
430 -206 m 1
 414.666992188 -202.666992188 408 -193 410 -177 c 2
 458 94 l 1
 404 34 338 3.3330078125 260 2 c 0
 202 2 154.166992188 21.6669921875 116.5 61 c 0
 78.8330078125 100.333007812 60 148.333007812 60 205 c 0
 60 221 61.3330078125 235.666992188 64 249 c 0
 76 315 108.333007812 371.166992188 161 417.5 c 0
 213.666992188 463.833007812 270.666992188 487.166992188 332 487.5 c 0
 393.333007812 487.833007812 443 468.333007812 481 429 c 0
 489 421 499 407.666992188 511 389 c 1
 525 468 l 2
 525.666992188 474.666992188 528.833007812 480 534.5 484 c 0
 540.166992188 488 546.333007812 489.333007812 553 488 c 0
 568.333007812 484.666992188 575 475 573 459 c 2
 458 -186 l 2
 457.333007812 -192 454.5 -196.833007812 449.5 -200.5 c 0
 444.5 -204.166992188 439.333007812 -206 434 -206 c 2
 430 -206 l 1
152 95 m 0
 180 66.3330078125 218 51.6669921875 266 51 c 0
 314 50.3330078125 360.333007812 69.6669921875 405 109 c 0
 461 158.313476562 489 216.98046875 489 285 c 0
 488.333007812 329.666992188 474 366.333007812 446 395 c 0
 418 423.666992188 380 438.333007812 332 439 c 0
 284 439.666992188 237.666992188 420.5 193 381.5 c 0
 148.333007812 342.5 121.333007812 295.666992188 112 241 c 1
 88 245 l 1
 112 241 l 1
 110 228.333007812 109 216.333007812 109 205 c 0
 109.666992188 160.333007812 124 123.666992188 152 95 c 0
EndSplineSet
EndChar

StartChar: r
Encoding: 114 114 53
Width: 439
Flags: MW
HStem: 1 21G<115.067 126> 440 48<422 425.333>
LayerCount: 2
Fore
SplineSet
119 1 m 0
 111.133789062 1 105 4 100.599609375 10 c 0
 96.2001953125 16 94.6669921875 22.3330078125 96 29 c 2
 135 249 l 1
 135 250 l 1
 174 468 l 2
 175.333007812 474.666992188 178.5 479.833007812 183.5 483.5 c 0
 188.5 487.166992188 194.333007812 488.666992188 201 488 c 0
 207.666992188 487.333007812 212.833007812 484.166992188 216.5 478.5 c 0
 220.166992188 472.833007812 221.333007812 466.666992188 220 460 c 2
 203 361 l 2
 204.333007812 363 206.666992188 365.666992188 210 369 c 0
 274 448.333007812 344.666992188 488 422 488 c 0
 428.666992188 488 434.333007812 485.666992188 439 481 c 0
 443.666992188 476.333007812 446 470.666992188 446 464 c 0
 446 457.333007812 443.666992188 451.666992188 439 447 c 0
 434.333007812 442.333007812 428.666992188 440 422 440 c 0
 368.666992188 440.666992188 315.666992188 413.666992188 263 359 c 0
 235 329 208.666992188 290.666992188 184 244 c 0
 183 241 182 239 181 238 c 2
 143 21 l 2
 141 7.6669921875 133 1 119 1 c 0
EndSplineSet
EndChar

StartChar: s
Encoding: 115 115 54
Width: 492
Flags: MW
HStem: 0 48 443 47<286.667 315.667>
LayerCount: 2
Fore
SplineSet
60 69 m 0
 49.3330078125 79.6669921875 50 91 62 103 c 0
 67.3330078125 108.333007812 73.3330078125 111.333007812 80 112 c 0
 86.6669921875 112.666992188 92.3330078125 110.666992188 97 106 c 0
 137 67.3330078125 182 48 232 48 c 0
 270.666992188 48 304.333007812 57.5 333 76.5 c 0
 361.666992188 95.5 377.833007812 116 381.5 138 c 0
 388.905273438 182.432617188 348.405273438 213.098632812 260 230 c 1
 259 231 l 1
 211.666992188 239.666992188 176.333007812 253 153 271 c 0
 122.333007812 293.666992188 110.333007812 323.5 117 360.5 c 0
 123.666992188 397.5 146.666992188 429 186 455 c 1
 223.333007812 478.333007812 264.333007812 490 309 490 c 0
 329 490 348.5 486.666992188 367.5 480 c 0
 386.5 473.333007812 400.833007812 467 410.5 461 c 0
 420.166992188 455 432.666992188 446.333007812 448 435 c 0
 452.666992188 431.666992188 455.166992188 426.666992188 455.5 420 c 0
 455.833007812 413.333007812 453.666992188 407.333007812 449 402 c 0
 444.333007812 396.666992188 438.666992188 393.333007812 432 392 c 0
 425.333007812 390.666992188 419.666992188 391.666992188 415 395 c 0
 371 427 332.333007812 443 299 443 c 0
 265.666992188 443 235.833007812 434.333007812 209.5 417 c 0
 183.166992188 399.666992188 168.333007812 381.333007812 165 362 c 0
 161.666992188 342.666992188 168.666992188 325.666992188 186 311 c 1
 206 296.333007812 235.666992188 285.333007812 275 278 c 1
 277 277 l 1
 326.333007812 268.333007812 364.333007812 254 391 234 c 0
 424.333007812 210 437 178.333007812 429 139 c 1
 422.333007812 99.6669921875 398.666992188 66.6669921875 358 40 c 0
 317.333007812 13.3330078125 269.5 0.1669921875 214.5 0.5 c 0
 159.5 0.8330078125 108 23.6669921875 60 69 c 0
EndSplineSet
EndChar

StartChar: t
Encoding: 116 116 55
Width: 400
Flags: MW
HStem: 1 21G<131.333 145.333> 441 49<63.6665 140 67 131 67 181 189 315>
VStem: 66 101<22.6665 76>
LayerCount: 2
Fore
SplineSet
66 76 m 1
 67 91 l 1
 131 441 l 1
 67 441 l 2
 60.3330078125 441 54.5 443.333007812 49.5 448 c 0
 44.5 452.666992188 42 458.5 42 465.5 c 0
 42 472.5 44.3330078125 478.333007812 49 483 c 0
 53.6669921875 487.666992188 59.6669921875 490 67 490 c 2
 140 490 l 1
 171 681 l 2
 174.333007812 696.333007812 184 703 200 701 c 0
 206.666992188 699.666992188 211.833007812 696.333007812 215.5 691 c 0
 219.166992188 685.666992188 220.666992188 679.666992188 220 673 c 2
 189 490 l 1
 315 490 l 2
 321.666992188 490 327.333007812 487.5 332 482.5 c 0
 336.666992188 477.5 339 471.666992188 339 465 c 0
 339 458.333007812 336.666992188 452.666992188 332 448 c 0
 327.333007812 443.333007812 321.666992188 441 315 441 c 2
 181 441 l 1
 116 83 l 2
 115.333007812 81.6669921875 115 79.3330078125 115 76 c 0
 116.333007812 59.3330078125 125.333007812 50.6669921875 142 50 c 0
 148.666992188 50 154.5 47.6669921875 159.5 43 c 0
 164.5 38.3330078125 167 32.6669921875 167 26 c 0
 167 19.3330078125 164.5 13.5 159.5 8.5 c 0
 154.5 3.5 148.666992188 1 142 1 c 0
 120.666992188 1 102.666992188 8.3330078125 88 23 c 0
 73.3330078125 37.6669921875 66 55.3330078125 66 76 c 1
EndSplineSet
EndChar

StartChar: u
Encoding: 117 117 56
Width: 613
Flags: MW
HStem: 1 48
VStem: 83 48<169 171.667 169 174.667>
LayerCount: 2
Fore
SplineSet
491.5 483.5 m 0
 496.5 487.166992188 502.333007812 488.5 509 487.5 c 0
 515.666992188 486.5 520.833007812 483.333007812 524.5 478 c 0
 528.166992188 472.666992188 529.333007812 466.666992188 528 460 c 2
 482 195 l 2
 472 140.333007812 445 94.5 401 57.5 c 0
 357 20.5 309.166992188 1.8330078125 257.5 1.5 c 0
 205.833007812 1.1669921875 163.833007812 17.1669921875 131.5 49.5 c 0
 99.1669921875 81.8330078125 83 121.666992188 83 169 c 0
 83 180.333007812 84 192 86 204 c 2
 133 468 l 2
 134.333007812 474.666992188 137.666992188 479.833007812 143 483.5 c 0
 148.333007812 487.166992188 154.166992188 488.5 160.5 487.5 c 0
 166.833007812 486.5 171.833007812 483.333007812 175.5 478 c 0
 179.166992188 472.666992188 180.333007812 466.666992188 179 460 c 2
 133 195 l 2
 131.666992188 183 131 174.333007812 131 169 c 0
 131.666992188 133.666992188 143 105 165 83 c 0
 187 61 217.666992188 49.6669921875 257 49 c 0
 296.333007812 48.3330078125 334.166992188 63.5 370.5 94.5 c 0
 406.833007812 125.5 428.333007812 162 435 204 c 2
 482 468 l 2
 483.333007812 474.666992188 486.5 479.833007812 491.5 483.5 c 0
EndSplineSet
EndChar

StartChar: v
Encoding: 118 118 57
Width: 582
Flags: W
HStem: 2 21G<185.667 187.333> 3 21G<179 180 179 179 191 192 191 191>
LayerCount: 2
Fore
SplineSet
173 6 m 1x40
 167.666992188 11.3330078125 165 14.6669921875 165 16 c 0
 163.666992188 17.3330078125 163 18.6669921875 163 20 c 2
 56 457 l 2
 54.6669921875 463 55.5 468.833007812 58.5 474.5 c 0
 61.5 480.166992188 66.3330078125 483.833007812 73 485.5 c 0
 79.6669921875 487.166992188 85.6669921875 486.333007812 91 483 c 0
 96.3330078125 479.666992188 99.6669921875 474.666992188 101 468 c 2
 195 87 l 1
 426 475 l 2
 434.666992188 488.333007812 445.666992188 491 459 483 c 0
 464.333007812 479.666992188 467.833007812 474.666992188 469.5 468 c 0
 471.166992188 461.333007812 470.333007812 455.333007812 467 450 c 2
 206 14 l 2
 205.333007812 14 205 13.6669921875 205 13 c 2
 201 8 l 1
 192 3 l 1
 191 3 l 2x40
 189.666992188 2.3330078125 188.166992188 2 186.5 2 c 0x80
 184.833007812 2 182.666992188 2.3330078125 180 3 c 2
 179 3 l 1
 176.333007812 4.3330078125 174.666992188 5.3330078125 174 6 c 2
 173 6 l 1x40
EndSplineSet
EndChar

StartChar: w
Encoding: 119 119 58
Width: 861
Flags: W
HStem: 2 21G<190.667 191.333 462 462.333> 3 21G<185 186 185 185 194 197 194 194 456 457 456 456 464 469 464 464>
LayerCount: 2
Fore
SplineSet
178 6 m 1x40
 171.333007812 12.6669921875 168 17.6669921875 168 21 c 2
 61 457 l 2
 57.6669921875 471.666992188 63.3330078125 481.333007812 78 486 c 0
 84.6669921875 487.333007812 90.8330078125 486.333007812 96.5 483 c 0
 102.166992188 479.666992188 105.666992188 474.666992188 107 468 c 2
 201 87 l 1
 362 357 l 2
 366 365 372.666992188 369 382 369 c 0
 395.333007812 370.333007812 403.333007812 364.333007812 406 351 c 2
 472 87 l 1
 703 475 l 2
 711.666992188 488.333007812 722.333007812 491 735 483 c 0
 740.333007812 479.666992188 743.833007812 474.666992188 745.5 468 c 0
 747.166992188 461.333007812 746.333007812 455.333007812 743 450 c 2
 483 14 l 2
 482.333007812 12 481 10.6669921875 479 10 c 1
 478 8 l 2
 476.666992188 6.6669921875 475.666992188 6 475 6 c 0
 474.333007812 6 474 5.8330078125 474 5.5 c 0
 474 5.1669921875 473.666992188 5 473 5 c 2
 469 3 l 1
 464 3 l 2x40
 463.333007812 2.3330078125 462.666992188 2 462 2 c 2x80
 457 3 l 1
 456 3 l 1
 450 6 l 1
 449 6 l 1
 442.333007812 12.6669921875 439 17.6669921875 439 21 c 2
 374 287 l 1
 212 14 l 1
 207 8 l 1
 198 4 l 2
 198 3.3330078125 197.666992188 3 197 3 c 2
 194 3 l 2x40
 192.666992188 2.3330078125 191.666992188 2 191 2 c 0x80
 190.333007812 2 188.666992188 2.3330078125 186 3 c 2
 185 3 l 1
 179 6 l 1
 178 6 l 1x40
EndSplineSet
EndChar

StartChar: x
Encoding: 120 120 59
Width: 570
Flags: MW
HStem: 2 21G<90.6665 97.3335 404.667 411.333>
LayerCount: 2
Fore
SplineSet
472 478 m 2
 482.666992188 490 494 490.666992188 506 480 c 0
 517.333007812 468.666992188 517.666992188 457.333007812 507 446 c 2
 320 241 l 1
 433 38 l 2
 439.666992188 24 436.666992188 13 424 5 c 0
 420 3 414.666992188 2 408 2 c 0
 401.333007812 2 396 6.3330078125 392 15 c 2
 288 205 l 1
 112 10 l 2
 106.666992188 4.6669921875 100.666992188 2 94 2 c 0
 87.3330078125 2 82 4.3330078125 78 9 c 1
 72.6669921875 13 69.8330078125 18.3330078125 69.5 25 c 0
 69.1669921875 31.6669921875 71.3330078125 37.3330078125 76 42 c 2
 263 247 l 1
 150 451 l 2
 146.666992188 456.333007812 146 462.166992188 148 468.5 c 0
 150 474.833007812 153.666992188 479.666992188 159 483 c 0
 173 491 184 488 192 474 c 2
 296 284 l 1
 472 478 l 2
EndSplineSet
EndChar

StartChar: y
Encoding: 121 121 60
Width: 588
Flags: MW
HStem: -193 48<152 166 152 166> 1 47
VStem: 63 47<167 173 167 173>
LayerCount: 2
Fore
SplineSet
488 488 m 0
 494 486.666992188 498.833007812 484 502.5 480 c 0
 506.166992188 476 508 471.666992188 508 467 c 1
 509.333007812 465 509.333007812 462.666992188 508 460 c 2
 433 34 l 2
 421.666992188 -29.3330078125 390.166992188 -82.8330078125 338.5 -126.5 c 0
 286.833007812 -170.166992188 229.333007812 -192.333007812 166 -193 c 0
 131.333007812 -193 98.6669921875 -185.333007812 68 -170 c 0
 54 -162 50.6669921875 -150.666992188 58 -136 c 0
 65.3330078125 -122.666992188 76 -119.666992188 90 -127 c 0
 112.666992188 -139 138 -145 166 -145 c 0
 216.666992188 -145.666992188 263.833007812 -127.333007812 307.5 -90 c 0
 351.166992188 -52.6669921875 377.333007812 -8.6669921875 386 42 c 2
 390 65 l 1
 344 22.3330078125 294 1 240 1 c 0
 186 1 142.666992188 16.6669921875 110 48 c 0
 78.6669921875 79.3330078125 63 119 63 167 c 0
 63 179 64 191 66 203 c 2
 112 469 l 2
 113.333007812 475 116.666992188 479.833007812 122 483.5 c 0
 127.333007812 487.166992188 133.333007812 488.666992188 140 488 c 0
 156 484 162.333007812 474.666992188 159 460 c 2
 112 194 l 2
 110.666992188 188 110 179 110 167 c 0
 110.666992188 132.333007812 122.166992188 103.833007812 144.5 81.5 c 0
 166.833007812 59.1669921875 197.5 47.8330078125 236.5 47.5 c 0
 275.5 47.1669921875 313.166992188 62.3330078125 349.5 93 c 0
 385.833007812 123.666992188 407.333007812 160.333007812 414 203 c 2
 461 469 l 2
 461.666992188 475 464.833007812 480 470.5 484 c 0
 476.166992188 488 482 489.333007812 488 488 c 0
EndSplineSet
EndChar

StartChar: z
Encoding: 122 122 61
Width: 554
Flags: W
HStem: -2 48<139 410 139 410> -1 21G<79 81 79 79> 443 47<159.667 492 163 434> 469 20G<495 497 497 497>
LayerCount: 2
Fore
SplineSet
512 472 m 2x10
 512 462 l 2
 511.333007812 461.333007812 511 460.666992188 511 460 c 0
 511 457.333007812 510.333007812 456 509 456 c 1
 509 454.666992188 508.666992188 454 508 454 c 2
 506 450 l 1
 139 46 l 1
 410 46 l 2
 416.666992188 46 422.333007812 43.6669921875 427 39 c 0
 431.666992188 34.3330078125 434 28.6669921875 434 22 c 0
 434 15.3330078125 431.666992188 9.6669921875 427 5 c 0
 422.333007812 0.3330078125 416.666992188 -2 410 -2 c 2
 84 -2 l 2x90
 82.6669921875 -1.3330078125 81.6669921875 -1 81 -1 c 2
 79 -1 l 1
 75.6669921875 2.3330078125 73.1669921875 4 71.5 4 c 0
 69.8330078125 4 69 4.3330078125 69 5 c 2
 67 7 l 2
 66.3330078125 7 66 7.6669921875 66 9 c 1
 64 10 l 1
 64 11.3330078125 63.6669921875 12.3330078125 63 13 c 2
 63 15 l 2
 62.3330078125 15 62 15.6669921875 62 17 c 2
 62 19 l 2
 61.3330078125 19.6669921875 61 20.6669921875 61 22 c 2
 61 24 l 2
 61 24.6669921875 61.3330078125 25.3330078125 62 26 c 2
 62 29 l 2
 62.6669921875 29.6669921875 63 30.3330078125 63 31 c 0
 63 31.6669921875 63.1669921875 32.3330078125 63.5 33 c 0
 63.8330078125 33.6669921875 64.1669921875 34 64.5 34 c 0
 64.8330078125 34 65 34.3330078125 65 35 c 2
 67 37 l 1
 67 38 l 1
 434 443 l 1
 163 443 l 2
 156.333007812 443 150.666992188 445.166992188 146 449.5 c 0
 141.333007812 453.833007812 139 459.333007812 139 466 c 0
 139 472.666992188 141.333007812 478.333007812 146 483 c 0
 150.666992188 487.666992188 156.333007812 490 163 490 c 2
 492 490 l 2x60
 493.333007812 490 494.333007812 489.666992188 495 489 c 2
 497 489 l 1
 498.333007812 487.666992188 499.666992188 487 501 487 c 2
 504 484 l 1
 505 484 l 1
 511 474 l 2
 511 472.666992188 511.333007812 472 512 472 c 2x10
EndSplineSet
EndChar

StartChar: exclam
Encoding: 33 33 62
Width: 252
Flags: MW
HStem: -2 21G<116 120 116 116>
LayerCount: 2
Fore
SplineSet
239 698 m 0
 245.666992188 696.666992188 250.833007812 693.166992188 254.5 687.5 c 0
 258.166992188 681.833007812 259.666992188 675.666992188 259 669 c 2
 170 167 l 2
 168 153.666992188 160 147 146 147 c 2
 142 147 l 1
 126.666992188 150.333007812 120 160 122 176 c 2
 211 678 l 2
 211.666992188 684.666992188 214.833007812 690 220.5 694 c 0
 226.166992188 698 232.333007812 699.333007812 239 698 c 0
128 70 m 0
 143.333007812 66.6669921875 150 57 148 41 c 2
 144 18 l 2
 143.333007812 12 140.5 7.1669921875 135.5 3.5 c 0
 130.5 -0.1669921875 125.333007812 -2 120 -2 c 2
 116 -2 l 1
 108.666992188 -0.6669921875 103.166992188 2.8330078125 99.5 8.5 c 0
 95.8330078125 14.1669921875 94.6669921875 20.3330078125 96 27 c 2
 100 50 l 2
 100.666992188 56.6669921875 103.833007812 62 109.5 66 c 0
 115.166992188 70 121.333007812 71.3330078125 128 70 c 0
EndSplineSet
EndChar

StartChar: parenleft
Encoding: 40 40 63
Width: 430
Flags: MW
HStem: -95 56<240 242 242 244> 649 56<375 378.667>
LayerCount: 2
Fore
SplineSet
146 -61 m 0
 77.5380859375 0.255859375 59.87109375 122.255859375 93 305 c 1
 112.333007812 418.333007812 144.333007812 510 189 580 c 0
 241.666992188 663.333007812 307 705 385 705 c 0
 392.333007812 705 398.333007812 702.166992188 403 696.5 c 0
 407.666992188 690.833007812 409.333007812 684.333007812 408 677 c 0
 406.666992188 669.666992188 402.666992188 663.166992188 396 657.5 c 0
 389.333007812 651.833007812 382.333007812 649 375 649 c 0
 322.333007812 648.333007812 275.666992188 617.333007812 235 556 c 1
 196.333007812 495.333007812 167.333007812 411.666992188 148 305 c 1
 130 197.666992188 129.666992188 114 147 54 c 0
 157 22 170.333007812 -1.5 187 -16.5 c 0
 203.666992188 -31.5 226 -39 254 -39 c 0
 261.333007812 -39 267.333007812 -41.8330078125 272 -47.5 c 0
 276.666992188 -53.1669921875 278.333007812 -59.8330078125 277 -67.5 c 0
 275.666992188 -75.1669921875 271.666992188 -81.6669921875 265 -87 c 0
 258.333007812 -92.3330078125 251.333007812 -95 244 -95 c 2
 242 -95 l 2
 203.333007812 -95 171.333007812 -83.6669921875 146 -61 c 0
EndSplineSet
EndChar

StartChar: parenright
Encoding: 41 41 64
Width: 430
Flags: MW
HStem: -95 56<92.3335 96 92.3335 125> 649 56<227 229 229 243.333>
LayerCount: 2
Fore
SplineSet
325 671 m 0
 393.461914062 609.744140625 411.12890625 487.744140625 378 305 c 1
 358.666992188 191.666992188 326.666992188 100 282 30 c 0
 229.333007812 -53.3330078125 164 -95 86 -95 c 0
 78.6669921875 -95 72.6669921875 -92.1669921875 68 -86.5 c 0
 63.3330078125 -80.8330078125 61.6669921875 -74.3330078125 63 -67 c 0
 64.3330078125 -59.6669921875 68.3330078125 -53.1669921875 75 -47.5 c 0
 81.6669921875 -41.8330078125 88.6669921875 -39 96 -39 c 0
 148.666992188 -38.3330078125 195.333007812 -7.3330078125 236 54 c 1
 274.666992188 114.666992188 303.666992188 198.333007812 323 305 c 1
 341 412.333007812 341 496.5 323 557.5 c 0
 305 618.5 269.666992188 649 217 649 c 0
 209.666992188 649 203.666992188 651.833007812 199 657.5 c 0
 194.333007812 663.166992188 192.666992188 669.833007812 194 677.5 c 0
 195.333007812 685.166992188 199.333007812 691.666992188 206 697 c 0
 212.666992188 702.333007812 219.666992188 705 227 705 c 2
 229 705 l 2
 267.666992188 705 299.666992188 693.666992188 325 671 c 0
EndSplineSet
EndChar

StartChar: plus
Encoding: 43 43 65
Width: 620
Flags: MW
HStem: 103 21G<266 272 266 266> 315 66<92.6665 282 97 270 348 522 97 337>
LayerCount: 2
Fore
SplineSet
522 381 m 2
 530.666992188 381 538.166992188 377.833007812 544.5 371.5 c 0
 550.833007812 365.166992188 554 357.333007812 554 348 c 0
 554 338.666992188 550.833007812 330.833007812 544.5 324.5 c 0
 538.166992188 318.166992188 530.666992188 315 522 315 c 2
 337 315 l 1
 304 130 l 2
 300.666992188 112 290 103 272 103 c 2
 266 103 l 1
 257.333007812 105 250.5 109.666992188 245.5 117 c 0
 240.5 124.333007812 238.666992188 132.333007812 240 141 c 2
 270 315 l 1
 97 315 l 2
 88.3330078125 315 80.6669921875 318.166992188 74 324.5 c 0
 67.3330078125 330.833007812 64 338.666992188 64 348 c 0
 64 357.333007812 67.3330078125 365.166992188 74 371.5 c 0
 80.6669921875 377.833007812 88.3330078125 381 97 381 c 2
 282 381 l 1
 315 566 l 2
 316.333007812 575.333007812 320.833007812 582.5 328.5 587.5 c 0
 336.166992188 592.5 344.333007812 594.166992188 353 592.5 c 0
 361.666992188 590.833007812 368.5 586.333007812 373.5 579 c 0
 378.5 571.666992188 380.333007812 563.666992188 379 555 c 2
 348 381 l 1
 522 381 l 2
EndSplineSet
EndChar

StartChar: less
Encoding: 60 60 66
Width: 620
Flags: MW
HStem: -1 21G<344.333 352.667>
LayerCount: 2
Fore
SplineSet
62 359 m 2
 64 364 l 2
 65.3330078125 365.333007812 66 366.333007812 66 367 c 2
 446 692 l 2
 452 697.333007812 459 699.666992188 467 699 c 0
 475 698.333007812 481.5 695 486.5 689 c 0
 491.5 683 493.666992188 676 493 668 c 0
 492.333007812 660 489 653.333007812 483 648 c 2
 129 345 l 1
 373 46 l 2
 377.666992188 39.3330078125 379.666992188 32.1669921875 379 24.5 c 0
 378.333007812 16.8330078125 375.166992188 10.6669921875 369.5 6 c 0
 363.833007812 1.3330078125 356.833007812 -1 348.5 -1 c 0
 340.166992188 -1 333.666992188 2.3330078125 329 9 c 2
 66 331 l 2
 66 331.666992188 65.3330078125 332.666992188 64 334 c 1
 64 335 l 1
 62.6669921875 336.333007812 62 337.666992188 62 339 c 2
 61 340 l 1
 61 344 l 2
 60.3330078125 344.666992188 60 345.333007812 60 346 c 2
 60 351 l 2
 60 352.333007812 60.3330078125 353.333007812 61 354 c 2
 61 357 l 2
 61 357.666992188 61.1669921875 358 61.5 358 c 0
 61.8330078125 358 62 358.333007812 62 359 c 2
EndSplineSet
EndChar

StartChar: greater
Encoding: 62 62 67
Width: 620
Flags: MW
HStem: 1 21G<116 124>
LayerCount: 2
Fore
SplineSet
523 341 m 2
 521 336 l 1
 519 334 518 332.833007812 518 332.5 c 0
 518 332.166992188 517 331 515 329 c 2
 139 8 l 2
 134.333007812 3.3330078125 128 1 120 1 c 0
 112 1 105.166992188 4.1669921875 99.5 10.5 c 0
 93.8330078125 16.8330078125 91.3330078125 24 92 32 c 0
 92.6669921875 40 96 46.3330078125 102 51 c 2
 456 354 l 1
 212 654 l 2
 207.333007812 660 205.333007812 666.833007812 206 674.5 c 0
 206.666992188 682.166992188 210 688.666992188 216 694 c 0
 222 699.333007812 229 701.666992188 237 701 c 0
 245 700.333007812 251.333007812 696.666992188 256 690 c 2
 519 369 l 2
 519.666992188 368.333007812 520 367.666992188 520 367 c 2
 523 360 l 2
 523.666992188 360 524 359.5 524 358.5 c 0
 524 357.5 524.333007812 356.333007812 525 355 c 2
 525 348 l 2
 525 347.333007812 524.666992188 346.666992188 524 346 c 2
 524 343 l 2
 524 342.333007812 523.833007812 342 523.5 342 c 0
 523.166992188 342 523 341.666992188 523 341 c 2
EndSplineSet
EndChar

StartChar: A
Encoding: 65 65 68
Width: 646
Flags: MW
HStem: 0 21G<84 91 567 574 574 579> 182 49<224 508 224 518 197 508> 680 20G<439.667 468>
LayerCount: 2
Fore
SplineSet
518 182 m 1
 197 182 l 1
 104 13 l 2
 100 4.3330078125 94.5 0 87.5 0 c 0
 80.5 0 75 1 71 3 c 0
 57 11 53.6669921875 22 61 36 c 2
 421 687 l 2
 425 695.666992188 433.333007812 700 446 700 c 0
 458.666992188 700 466 693.333007812 468 680 c 2
 598 29 l 2
 599.333007812 22.3330078125 598.166992188 16.1669921875 594.5 10.5 c 0
 590.833007812 4.8330078125 585.666992188 1.3330078125 579 0 c 1
 574 0 l 2
 560 0 552 6.6669921875 550 20 c 2
 518 182 l 1
508 231 m 1
 433 608 l 1
 224 231 l 1
 508 231 l 1
EndSplineSet
EndChar

StartChar: period
Encoding: 46 46 69
Width: 230
Flags: MW
HStem: 0 115<126.667 162.667>
LayerCount: 2
Fore
SplineSet
192.5 98.5 m 0
 201.5 87.5 204.333007812 73.8330078125 201 57.5 c 0
 197.666992188 41.1669921875 190 27.5 178 16.5 c 0
 166 5.5 151.666992188 0 135 0 c 0
 118.333007812 0 105.5 5.5 96.5 16.5 c 0
 87.5 27.5 84.6669921875 41.1669921875 88 57.5 c 0
 91.3330078125 73.8330078125 99.1669921875 87.5 111.5 98.5 c 0
 123.833007812 109.5 138.166992188 115 154.5 115 c 0
 170.833007812 115 183.5 109.5 192.5 98.5 c 0
EndSplineSet
EndChar

StartChar: question
Encoding: 63 63 70
Width: 534
Flags: MW
HStem: -1 21G<127.4 137.667> 653 46
VStem: 385 47<513 517>
LayerCount: 2
Fore
SplineSet
122 63.5 m 0
 127.333007812 67.1669921875 133.166992188 68.5 139.5 67.5 c 0
 145.833007812 66.5 150.833007812 63.3330078125 154.5 58 c 0
 158.166992188 52.6669921875 159.333007812 47 158 41 c 2
 154 19 l 2
 152 5.6669921875 144.333007812 -1 131 -1 c 0
 123.799804688 -1 118 2 113.599609375 8 c 0
 109.200195312 14 107.333007812 20.3330078125 108 27 c 2
 112 49 l 2
 113.333007812 55 116.666992188 59.8330078125 122 63.5 c 0
247 699 m 0
 300.333007812 699 344.5 681.833007812 379.5 647.5 c 0
 414.5 613.166992188 432 569.666992188 432 517 c 0
 432 509 430.666992188 496.333007812 428 479 c 0
 418 423.666992188 391.166992188 376.166992188 347.5 336.5 c 0
 303.833007812 296.833007812 254 274.333007812 198 269 c 1
 179 158 l 2
 177 144.666992188 169.333007812 138 156 138 c 0
 147.583007812 138 141.3125 141 137.1875 147 c 0
 133.0625 153 131.666992188 159.333007812 133 166 c 2
 155 291 l 2
 155 291.666992188 155.333007812 292.333007812 156 293 c 0
 157.333007812 307 165 314 179 314 c 0
 225.666992188 313.333007812 269.166992188 330.166992188 309.5 364.5 c 0
 359.833007812 407.345703125 385 458.178710938 385 517 c 0
 384.333007812 556.333007812 371.5 588.666992188 346.5 614 c 0
 321.5 639.333007812 290.833007812 652.166992188 254.5 652.5 c 0
 218.166992188 652.833007812 185.333007812 645.166992188 156 629.5 c 0
 126.666992188 613.833007812 102 592.666992188 82 566 c 0
 78 560.666992188 72.8330078125 557.666992188 66.5 557 c 0
 60.1669921875 556.333007812 54.3330078125 557.833007812 49 561.5 c 0
 43.6669921875 565.166992188 40.6669921875 570.166992188 40 576.5 c 0
 39.3330078125 582.833007812 41 588.666992188 45 594 c 0
 69 626 98.8330078125 651.5 134.5 670.5 c 0
 170.166992188 689.5 207.666992188 699 247 699 c 0
EndSplineSet
EndChar

StartChar: equal
Encoding: 61 61 71
Width: 620
Flags: MW
HStem: 210 57<103.333 477 107 477> 433 57<143 517 147 517>
LayerCount: 2
Fore
SplineSet
477 267 m 2
 485.666992188 267 492.666992188 264.166992188 498 258.5 c 0
 503.333007812 252.833007812 506 246.166992188 506 238.5 c 0
 506 230.833007812 503.333007812 224.166992188 498 218.5 c 0
 492.666992188 212.833007812 485.666992188 210 477 210 c 2
 107 210 l 2
 99.6669921875 210 93.1669921875 212.833007812 87.5 218.5 c 0
 81.8330078125 224.166992188 79 230.833007812 79 238.5 c 0
 79 246.166992188 81.8330078125 252.833007812 87.5 258.5 c 0
 93.1669921875 264.166992188 99.6669921875 267 107 267 c 2
 477 267 l 2
517 490 m 2
 524.333007812 490 530.833007812 487.166992188 536.5 481.5 c 0
 542.166992188 475.833007812 545 469.166992188 545 461.5 c 0
 545 453.833007812 542.166992188 447.166992188 536.5 441.5 c 0
 530.833007812 435.833007812 524.333007812 433 517 433 c 2
 147 433 l 2
 139 433 132.166992188 435.666992188 126.5 441 c 0
 120.833007812 446.333007812 118 453 118 461 c 0
 118 469 120.833007812 475.833007812 126.5 481.5 c 0
 132.166992188 487.166992188 139 490 147 490 c 2
 517 490 l 2
EndSplineSet
EndChar

StartChar: hyphen
Encoding: 45 45 72
Width: 408
Flags: MW
HStem: 328 38<78.6665 298 85 298>
LayerCount: 2
Fore
SplineSet
85 328 m 2
 72.3330078125 328 66 334.333007812 66 347 c 0
 66 359.666992188 72.3330078125 366 85 366 c 2
 298 366 l 2
 310.666992188 366 317 360 317 348 c 0
 317 342 315.166992188 337.166992188 311.5 333.5 c 0
 307.833007812 329.833007812 303.333007812 328 298 328 c 2
 85 328 l 2
EndSplineSet
EndChar

StartChar: colon
Encoding: 58 58 73
Width: 240
Flags: MW
HStem: -1 71<115 137.333> 527 72<208 230.333>
LayerCount: 2
Fore
SplineSet
249 588.5 m 0
 255 581.5 257.166992188 573 255.5 563 c 0
 253.833007812 553 248.833007812 544.5 240.5 537.5 c 0
 232.166992188 530.5 223 527 213 527 c 0
 203 527 195.166992188 530.5 189.5 537.5 c 0
 183.833007812 544.5 182 553 184 563 c 0
 185.333007812 573 190.166992188 581.5 198.5 588.5 c 0
 206.833007812 595.5 215.833007812 599 225.5 599 c 0
 235.166992188 599 243 595.5 249 588.5 c 0
155.5 59.5 m 0
 161.166992188 52.5 163.166992188 44.1669921875 161.5 34.5 c 0
 159.833007812 24.8330078125 155 16.5 147 9.5 c 0
 139 2.5 130 -1 120 -1 c 0
 110 -1 102.166992188 2.5 96.5 9.5 c 0
 90.8330078125 16.5 88.8330078125 24.8330078125 90.5 34.5 c 0
 92.1669921875 44.1669921875 97.1669921875 52.5 105.5 59.5 c 0
 113.833007812 66.5 122.833007812 70 132.5 70 c 0
 142.166992188 70 149.833007812 66.5 155.5 59.5 c 0
EndSplineSet
EndChar

StartChar: semicolon
Encoding: 59 59 74
Width: 240
Flags: MW
HStem: -103 21G<68 75.3335> 529 71<218.667 241>
LayerCount: 2
Fore
SplineSet
209 589.5 m 0
 217 596.5 226 600 236 600 c 0
 246 600 253.833007812 596.5 259.5 589.5 c 0
 265.166992188 582.5 267.333007812 574.166992188 266 564.5 c 0
 264.666992188 554.833007812 259.666992188 546.5 251 539.5 c 0
 242.333007812 532.5 233.166992188 529 223.5 529 c 0
 213.833007812 529 206.166992188 532.5 200.5 539.5 c 0
 194.833007812 546.5 192.833007812 554.833007812 194.5 564.5 c 0
 196.166992188 574.166992188 201 582.5 209 589.5 c 0
60 -88 m 0
 60 -82.6669921875 63 -78.3330078125 69 -75 c 0
 105.666992188 -55.6669921875 124 -30 124 2 c 1
 106.666992188 6.6669921875 99 18.3330078125 101 37 c 2
 103 58 l 2
 103.666992188 67.3330078125 107.666992188 75.1669921875 115 81.5 c 0
 122.333007812 87.8330078125 130.666992188 91 140 91 c 0
 149.333007812 91 156.833007812 87.8330078125 162.5 81.5 c 0
 168.166992188 75.1669921875 170.333007812 67.3330078125 169 58 c 2
 167 33 l 1
 161.666992188 -17.6669921875 148.666992188 -52.3330078125 128 -71 c 0
 118.666992188 -79.6669921875 108.333007812 -87.1669921875 97 -93.5 c 0
 85.6669921875 -99.8330078125 77.6669921875 -103 73 -103 c 0
 63 -103 58.6669921875 -98 60 -88 c 0
EndSplineSet
EndChar

StartChar: comma
Encoding: 44 44 75
Width: 230
Flags: MW
HStem: -104 21G<63 74.3335> 70 20G<152 161>
LayerCount: 2
Fore
SplineSet
56 -89 m 0
 57.3330078125 -83.6669921875 61 -79.3330078125 67 -76 c 0
 105 -57.3330078125 126.333007812 -31.6669921875 131 1 c 1
 113.666992188 5.6669921875 107 17.3330078125 111 36 c 2
 115 57 l 2
 117.666992188 66.3330078125 123 74.1669921875 131 80.5 c 0
 139 86.8330078125 147.5 90 156.5 90 c 0
 165.5 90 172.5 86.6669921875 177.5 80 c 0
 182.5 73.3330078125 183.666992188 65.6669921875 181 57 c 2
 176 32 l 2
 165.333007812 -19.3330078125 149.333007812 -54 128 -72 c 1
 100.666992188 -93.3330078125 80.6669921875 -104 68 -104 c 0
 58 -104 54 -99 56 -89 c 0
EndSplineSet
EndChar

StartChar: quotesingle
Encoding: 39 39 76
Width: 230
Flags: MW
HStem: 509 21G<77 88.3335> 683 20G<166 175>
LayerCount: 2
Fore
SplineSet
70 524 m 0
 71.3330078125 529.333007812 75 533.666992188 81 537 c 0
 119 555.666992188 140.333007812 581.333007812 145 614 c 1
 127.666992188 618.666992188 121 630.333007812 125 649 c 2
 129 670 l 2
 131.666992188 679.333007812 137 687.166992188 145 693.5 c 0
 153 699.833007812 161.5 703 170.5 703 c 0
 179.5 703 186.5 699.666992188 191.5 693 c 0
 196.5 686.333007812 197.666992188 678.666992188 195 670 c 2
 190 645 l 2
 179.333007812 593.666992188 163.333007812 559 142 541 c 1
 114.666992188 519.666992188 94.6669921875 509 82 509 c 0
 72 509 68 514 70 524 c 0
EndSplineSet
EndChar

StartChar: quotedbl
Encoding: 34 34 77
Width: 410
Flags: MW
HStem: 442 21G<78.3335 87.6665 258.333 267.667> 682 20G<128 147 147 152.333 308 327 327 332.333>
LayerCount: 2
Fore
SplineSet
250 461 m 2
 280 676 l 2
 282.666992188 693.333007812 292 702 308 702 c 2
 327 702 l 2
 337.666992188 702 343 696.333007812 343 685 c 0
 343 684.333007812 341.333007812 676.333007812 338 661 c 2
 281 460 l 2
 277 448 271.333007812 442 264 442 c 0
 252.666992188 442 248 448.333007812 250 461 c 2
70 461 m 2
 100 676 l 2
 102.666992188 693.333007812 112 702 128 702 c 2
 147 702 l 2
 157.666992188 702 163 696.333007812 163 685 c 0
 163 684.333007812 161.333007812 676.333007812 158 661 c 2
 101 460 l 2
 97 448 91.3330078125 442 84 442 c 0
 72.6669921875 442 68 448.333007812 70 461 c 2
EndSplineSet
EndChar

StartChar: underscore
Encoding: 95 95 78
Width: 600
Flags: MW
HStem: -160 44<-8 612 8 599>
LayerCount: 2
Fore
SplineSet
-5 -160 m 2
 -11 -160 -15.5 -157.833007812 -18.5 -153.5 c 0
 -21.5 -149.166992188 -22 -144 -20 -138 c 0
 -18.6669921875 -132 -15.1669921875 -126.833007812 -9.5 -122.5 c 0
 -3.8330078125 -118.166992188 2 -116 8 -116 c 2
 612 -116 l 2
 618 -116 622.5 -118.166992188 625.5 -122.5 c 0
 628.5 -126.833007812 629.166992188 -132 627.5 -138 c 0
 625.833007812 -144 622.166992188 -149.166992188 616.5 -153.5 c 0
 610.833007812 -157.833007812 605 -160 599 -160 c 2
 -5 -160 l 2
EndSplineSet
EndChar

StartChar: asterisk
Encoding: 42 42 79
Width: 430
Flags: MW
HStem: 400 21G<199 205> 684 20G<253 259>
LayerCount: 2
Fore
SplineSet
186 422 m 2
 213 531 l 1
 111 469 l 2
 105 465 99.3330078125 463 94 463 c 0
 88.6669921875 463 84.3330078125 465.166992188 81 469.5 c 0
 77.6669921875 473.833007812 76.8330078125 479.5 78.5 486.5 c 0
 80.1669921875 493.5 85.6669921875 499 95 503 c 2
 207 552 l 1
 113 601 l 2
 103.666992188 605.666992188 100 612 102 620 c 0
 104.666992188 632.666992188 112.666992188 639.666992188 126 641 c 0
 130 641 135 639 141 635 c 2
 221 573 l 1
 232 682 l 2
 232.666992188 688 235.333007812 693.166992188 240 697.5 c 0
 244.666992188 701.833007812 250 704 256 704 c 0
 262 704 266.5 701.833007812 269.5 697.5 c 0
 272.5 693.166992188 273.333007812 688 272 682 c 2
 245 573 l 1
 347 635 l 2
 353 639 358.666992188 641 364 641 c 0
 369.333007812 641 373.666992188 638.833007812 377 634.5 c 0
 380.333007812 630.166992188 381.333007812 625.333007812 380 620 c 0
 378.666992188 611.333007812 373 605 363 601 c 2
 251 552 l 1
 345 503 l 2
 353.666992188 499 357.333007812 493.5 356 486.5 c 0
 354.666992188 479.5 351.666992188 473.833007812 347 469.5 c 0
 342.333007812 465.166992188 337.666992188 463 333 463 c 0
 328.333007812 463 323 465 317 469 c 2
 237 531 l 1
 226 422 l 2
 225.333007812 416 222.666992188 410.833007812 218 406.5 c 0
 213.333007812 402.166992188 208 400 202 400 c 0
 196 400 191.5 402.166992188 188.5 406.5 c 0
 185.5 410.833007812 184.666992188 416 186 422 c 2
EndSplineSet
EndChar

StartChar: at
Encoding: 64 64 80
Width: 980
Flags: MW
HStem: 0 48<350 361.667 350 366> 162 49<382 382> 488 49 651 49<423.333 508>
VStem: 53 49<257.667 301.667> 228 48<319 323.333 319 350.91> 539 49<374.333 380> 714 49
LayerCount: 2
Fore
SplineSet
556 180 m 0
 556 168 561 162 571 162 c 0
 587.095703125 162 602.952148438 168.666992188 618.571289062 182 c 0
 634.190429688 195.333007812 644.666992188 206 650 214 c 1
 651 215 l 1
 693 274.872070312 713.833007812 339.506835938 713.5 408.904296875 c 0
 713.166992188 478.301757812 690 535.833007812 644 581.5 c 0
 598 627.166992188 538.333007812 650.333007812 465 651 c 0
 381.666992188 651 304.666992188 621 234 561 c 0
 163.333007812 501 120.666992188 429 106 345 c 0
 103.333007812 329 102 311.666992188 102 293 c 0
 102 222.333007812 125 164 171 118 c 0
 217 72 276.666992188 48.6669921875 350 48 c 0
 373.333007812 48 399 51.3330078125 427 58 c 0
 433.666992188 59.3330078125 439.833007812 58.3330078125 445.5 55 c 0
 451.166992188 51.6669921875 454.833007812 46.6669921875 456.5 40 c 0
 458.166992188 33.3330078125 457.166992188 27 453.5 21 c 0
 449.833007812 15 444.666992188 11.3330078125 438 10 c 0
 411.333007812 3.3330078125 382 0 350 0 c 0
 263.333007812 0 192.166992188 27.8330078125 136.5 83.5 c 0
 80.8330078125 139.166992188 53 209 53 293 c 0
 53 310.333007812 54.6669921875 330.666992188 58 354 c 0
 75.3330078125 450 123.333007812 531.5 202 598.5 c 0
 280.666992188 665.5 368.333007812 699.333007812 465 700 c 0
 551 700 622.333007812 671.666992188 679 615 c 0
 735 560.333007812 763 490.666992188 763 406 c 0
 763 328.98046875 739 255.647460938 691 186 c 1
 658.1953125 146.633789062 624.861328125 122.967773438 591 115 c 0
 581.666992188 113.666992188 575 113 571 113 c 0
 550.333007812 112.333007812 534.666992188 118.833007812 524 132.5 c 0
 513.333007812 146.166992188 508 162 508 180 c 2
 508 192 l 1
 512 216 l 1
 471.333007812 180 428 162 382 162 c 0
 336 162 298.666992188 177.5 270 208.5 c 0
 241.333007812 239.5 227.333007812 276.333007812 228 319 c 0
 228 382.819335938 253.333007812 437.486328125 304 483 c 0
 343.333007812 518.333007812 386.333007812 536.166992188 433 536.5 c 0
 479.666992188 536.833007812 517.166992188 522 545.5 492 c 0
 573.833007812 462 588 424.666992188 588 380 c 0
 588 368.666992188 587.333007812 359.833007812 586 353.5 c 0
 584.666992188 347.166992188 584 343 584 341 c 0
 584 339 583.666992188 337.666992188 583 337 c 2
 583 334 l 1
 557 185 l 2
 557 184.333007812 556.666992188 182.666992188 556 180 c 0
279 345 m 0
 277 336.333007812 276 327.666992188 276 319 c 0
 276.666992188 287 286.333007812 261.166992188 305 241.5 c 0
 323.666992188 221.833007812 349.666992188 211.666992188 383 211 c 0
 416.333007812 210.333007812 448.666992188 224.166992188 480 252.5 c 0
 519.333007812 288.067382812 539 330.567382812 539 380 c 0
 538.333007812 412 528.833007812 437.833007812 510.5 457.5 c 0
 492.166992188 477.166992188 467.666992188 487.333007812 437 488 c 2
 435 488 l 2
 399.666992188 488 366.5 473.833007812 335.5 445.5 c 0
 304.5 417.166992188 285.666992188 383.666992188 279 345 c 0
EndSplineSet
EndChar

StartChar: backslash
Encoding: 92 92 81
Width: 500
Flags: MW
HStem: 2 21G<301.667 309.333>
LayerCount: 2
Fore
SplineSet
320 3 m 0
 318 2.3330078125 313.166992188 2 305.5 2 c 0
 297.833007812 2 292 7 288 17 c 2
 15 665 l 2
 12.3330078125 671.666992188 12.1669921875 678 14.5 684 c 0
 16.8330078125 690 21.3330078125 694.333007812 28 697 c 0
 42 702.333007812 52.6669921875 698 60 684 c 1
 333 36 l 2
 339 21.3330078125 334.666992188 10.3330078125 320 3 c 0
EndSplineSet
EndChar

StartChar: quotedblleft
Encoding: 256 8220 82
Width: 410
Flags: MW
HStem: 509 21G<102 111 282 291> 683 20G<188.667 200 368.667 380>
LayerCount: 2
Fore
SplineSet
387 688 m 0
 385.666992188 682.666992188 382 678.333007812 376 675 c 0
 338 656.333007812 316.666992188 630.666992188 312 598 c 1
 329.333007812 593.333007812 336 581.666992188 332 563 c 2
 328 542 l 2
 325.333007812 532.666992188 320 524.833007812 312 518.5 c 0
 304 512.166992188 295.5 509 286.5 509 c 0
 277.5 509 270.5 512.333007812 265.5 519 c 0
 260.5 525.666992188 259.333007812 533.333007812 262 542 c 2
 267 567 l 1
 278.333007812 618.333007812 294.333007812 653 315 671 c 1
 342.333007812 692.333007812 362.333007812 703 375 703 c 0
 385 703 389 698 387 688 c 0
207 688 m 0
 205.666992188 682.666992188 202 678.333007812 196 675 c 0
 158 656.333007812 136.666992188 630.666992188 132 598 c 1
 149.333007812 593.333007812 156 581.666992188 152 563 c 2
 148 542 l 2
 145.333007812 532.666992188 140 524.833007812 132 518.5 c 0
 124 512.166992188 115.5 509 106.5 509 c 0
 97.5 509 90.5 512.333007812 85.5 519 c 0
 80.5 525.666992188 79.3330078125 533.333007812 82 542 c 2
 87 567 l 2
 97.6669921875 618.333007812 113.666992188 653 135 671 c 1
 162.333007812 692.333007812 182.333007812 703 195 703 c 0
 205 703 209 698 207 688 c 0
EndSplineSet
EndChar

StartChar: quotedblright
Encoding: 257 8221 83
Width: 410
Flags: MW
HStem: 509 21G<68 79.3335 248 259.333> 683 20G<157 166 337 346>
LayerCount: 2
Fore
SplineSet
61 524 m 0
 62.3330078125 529.333007812 66 533.666992188 72 537 c 0
 110 555.666992188 131.333007812 581.333007812 136 614 c 1
 118.666992188 618.666992188 112 630.333007812 116 649 c 2
 120 670 l 2
 122.666992188 679.333007812 128 687.166992188 136 693.5 c 0
 144 699.833007812 152.5 703 161.5 703 c 0
 170.5 703 177.5 699.666992188 182.5 693 c 0
 187.5 686.333007812 188.666992188 678.666992188 186 670 c 2
 181 645 l 1
 169.666992188 593.666992188 153.666992188 559 133 541 c 1
 105.666992188 519.666992188 85.6669921875 509 73 509 c 0
 63 509 59 514 61 524 c 0
241 524 m 0
 242.333007812 529.333007812 246 533.666992188 252 537 c 0
 290 555.666992188 311.333007812 581.333007812 316 614 c 1
 298.666992188 618.666992188 292 630.333007812 296 649 c 2
 300 670 l 2
 302.666992188 679.333007812 308 687.166992188 316 693.5 c 0
 324 699.833007812 332.5 703 341.5 703 c 0
 350.5 703 357.5 699.666992188 362.5 693 c 0
 367.5 686.333007812 368.666992188 678.666992188 366 670 c 2
 361 645 l 1
 349.666992188 593.666992188 333.666992188 559 313 541 c 1
 285.666992188 519.666992188 265.666992188 509 253 509 c 0
 243 509 239 514 241 524 c 0
EndSplineSet
EndChar

StartChar: quoteleft
Encoding: 259 8216 85
Width: 230
Flags: MW
HStem: 509 21G<188.667 200> 683 20G<102 111>
LayerCount: 2
Fore
SplineSet
207 524 m 0
 209 514 205 509 195 509 c 0
 182.333007812 509 162.333007812 519.666992188 135 541 c 1
 114.333007812 559 98.3330078125 593.666992188 87 645 c 1
 82 670 l 2
 79.3330078125 678.666992188 80.5 686.333007812 85.5 693 c 0
 90.5 699.666992188 97.5 703 106.5 703 c 0
 115.5 703 124 699.833007812 132 693.5 c 0
 140 687.166992188 145.333007812 679.333007812 148 670 c 2
 152 649 l 2
 156 630.333007812 149.333007812 618.666992188 132 614 c 1
 136.666992188 581.333007812 158 555.666992188 196 537 c 0
 202 533.666992188 205.666992188 529.333007812 207 524 c 0
EndSplineSet
EndChar

StartChar: quoteright
Encoding: 260 8217 86
Width: 230
Flags: MW
HStem: 509 21G<68 79.3335> 683 20G<157 166>
LayerCount: 2
Fore
SplineSet
61 524 m 0
 62.3330078125 529.333007812 66 533.666992188 72 537 c 0
 110 555.666992188 131.333007812 581.333007812 136 614 c 1
 118.666992188 618.666992188 112 630.333007812 116 649 c 2
 120 670 l 2
 122.666992188 679.333007812 128 687.166992188 136 693.5 c 0
 144 699.833007812 152.5 703 161.5 703 c 0
 170.5 703 177.5 699.666992188 182.5 693 c 0
 187.5 686.333007812 188.666992188 678.666992188 186 670 c 2
 181 645 l 1
 169.666992188 593.666992188 153.666992188 559 133 541 c 1
 105.666992188 519.666992188 85.6669921875 509 73 509 c 0
 63 509 59 514 61 524 c 0
EndSplineSet
EndChar

StartChar: E
Encoding: 69 69 87
Width: 593
Flags: MW
HStem: -2 49<126 491 159 491 159 491> 323 49<217 507 217 507 208 507> 649 49<266 606 266 266>
LayerCount: 2
Fore
SplineSet
126 -2 m 1
 110.666992188 1.3330078125 104 11 106 27 c 2
 221 678 l 2
 223 691.333007812 231.333007812 698 246 698 c 2
 606 698 l 2
 612.666992188 698 618.333007812 695.5 623 690.5 c 0
 627.666992188 685.5 630 679.666992188 630 673 c 0
 630 666.333007812 627.666992188 660.666992188 623 656 c 0
 618.333007812 651.333007812 612.666992188 649 606 649 c 2
 266 649 l 1
 217 372 l 1
 507 372 l 2
 513.666992188 372 519.333007812 369.666992188 524 365 c 0
 528.666992188 360.333007812 531 354.666992188 531 348 c 0
 531 341.333007812 528.666992188 335.5 524 330.5 c 0
 519.333007812 325.5 513.666992188 323 507 323 c 2
 208 323 l 1
 159 47 l 1
 491 47 l 2
 497.666992188 47 503.333007812 44.5 508 39.5 c 0
 512.666992188 34.5 515 28.6669921875 515 22 c 0
 515 15.3330078125 512.666992188 9.6669921875 508 5 c 0
 503.333007812 0.3330078125 497.666992188 -2 491 -2 c 2
 126 -2 l 1
EndSplineSet
EndChar

StartChar: slash
Encoding: 47 47 88
Width: 500
Flags: MW
HStem: 0 21G<22.6665 30.3335>
LayerCount: 2
Fore
SplineSet
12 1 m 0
 -2.6669921875 8.3330078125 -7 19.3330078125 -1 34 c 2
 272 682 l 1
 279.333007812 696 290 700.333007812 304 695 c 0
 310.666992188 692.333007812 315.166992188 688 317.5 682 c 0
 319.833007812 676 319.666992188 669.666992188 317 663 c 2
 44 15 l 2
 40 5 34.1669921875 0 26.5 0 c 0
 18.8330078125 0 14 0.3330078125 12 1 c 0
EndSplineSet
EndChar

StartChar: grave
Encoding: 96 96 89
Width: 500
Flags: MW
HStem: 592 21G<263.667 274.333> 703 20G<205 215>
LayerCount: 2
Fore
SplineSet
285 601 m 0
 285 595 279.666992188 592 269 592 c 0
 258.333007812 592 249 596.333007812 241 605 c 2
 172 682 l 2
 166 689.333007812 163.333007812 695.5 164 700.5 c 0
 164.666992188 705.5 170 710.5 180 715.5 c 0
 190 720.5 200 723 210 723 c 0
 220 723 228 717 234 705 c 2
 283 612 l 2
 285 608.666992188 285.666992188 605 285 601 c 0
EndSplineSet
EndChar

StartChar: acute
Encoding: 180 180 90
Width: 500
Flags: MW
HStem: 592 21G<212.667 223.333> 703 20G<272 282>
LayerCount: 2
Fore
SplineSet
246 605 m 2
 238 596.333007812 228.666992188 592 218 592 c 0
 207.333007812 592 202 595 202 601 c 0
 201.333007812 605 202 608.666992188 204 612 c 2
 253 705 l 2
 259 717 267 723 277 723 c 0
 287 723 297 720.5 307 715.5 c 0
 317 710.5 322.333007812 705.5 323 700.5 c 0
 323.666992188 695.5 321 689.333007812 315 682 c 2
 246 605 l 2
EndSplineSet
EndChar

StartChar: tilde
Encoding: 261 732 91
Width: 500
Flags: W
HStem: 584 21G<120.333 126.667> 595 52<315.667 326.333> 636 52<186.667 197.333> 679 20G<386.333 392.667>
LayerCount: 2
Fore
SplineSet
142 598 m 0x20
 136 588.666992188 129.833007812 584 123.5 584 c 0
 117.166992188 584 112.5 585.666992188 109.5 589 c 0
 106.5 592.333007812 105.333007812 596.333007812 106 601 c 2
 110 613 l 1
 122.666992188 641 136 660.5 150 671.5 c 0
 164 682.5 178.833007812 688 194.5 688 c 0xa0
 210.166992188 688 232.5 681.166992188 261.5 667.5 c 0
 290.5 653.833007812 310.333007812 647 321 647 c 0
 340.333007812 647 357 659.666992188 371 685 c 0
 377 694.333007812 383.166992188 699 389.5 699 c 0
 395.833007812 699 400.5 697.333007812 403.5 694 c 0
 409.436523438 687.404296875 409.26953125 679.404296875 403 670 c 1
 390.333007812 642 377 622.5 363 611.5 c 0
 349 600.5 334.166992188 595 318.5 595 c 0x50
 302.833007812 595 280.5 601.833007812 251.5 615.5 c 0
 222.5 629.166992188 202.666992188 636 192 636 c 0
 172.666992188 636 156 623.333007812 142 598 c 0x20
EndSplineSet
EndChar

StartChar: Agrave
Encoding: 192 192 92
Width: 790
Flags: MW
HStem: 0 21G<84.6665 91.3335 568 575 575 580> 182 49<225 509 225 519 198 509> 680 20G<440.667 469> 903 20G<456 466>
LayerCount: 2
Fore
SplineSet
519 182 m 1
 198 182 l 1
 105 13 l 2
 100.333007812 4.3330078125 94.6669921875 0 88 0 c 0
 81.3330078125 0 76 1 72 3 c 0
 58 11 54.6669921875 22 62 36 c 2
 422 687 l 2
 426 695.666992188 434.333007812 700 447 700 c 0
 459.666992188 700 467 693.333007812 469 680 c 2
 599 29 l 2
 600.333007812 22.3330078125 599.166992188 16.1669921875 595.5 10.5 c 0
 591.833007812 4.8330078125 586.666992188 1.3330078125 580 0 c 1
 575 0 l 2
 561 0 553 6.6669921875 551 20 c 2
 519 182 l 1
509 231 m 1
 434 608 l 1
 225 231 l 1
 509 231 l 1
536 801 m 0
 536 795 530.666992188 792 520 792 c 0
 509.333007812 792 500 796.333007812 492 805 c 2
 423 882 l 2
 417 889.333007812 414.333007812 895.5 415 900.5 c 0
 415.666992188 905.5 421 910.5 431 915.5 c 0
 441 920.5 451 923 461 923 c 0
 471 923 479 917 485 905 c 2
 534 812 l 2
 536 808.666992188 536.666992188 805 536 801 c 0
EndSplineSet
EndChar

StartChar: Aacute
Encoding: 193 193 93
Width: 790
Flags: MW
HStem: 0 21G<84.6665 91.3335 568 575 575 580> 182 49<225 509 225 519 198 509> 680 20G<440.667 469> 903 20G<476 486>
LayerCount: 2
Fore
SplineSet
519 182 m 1
 198 182 l 1
 105 13 l 2
 100.333007812 4.3330078125 94.6669921875 0 88 0 c 0
 81.3330078125 0 76 1 72 3 c 0
 58 11 54.6669921875 22 62 36 c 2
 422 687 l 2
 426 695.666992188 434.333007812 700 447 700 c 0
 459.666992188 700 467 693.333007812 469 680 c 2
 599 29 l 2
 600.333007812 22.3330078125 599.166992188 16.1669921875 595.5 10.5 c 0
 591.833007812 4.8330078125 586.666992188 1.3330078125 580 0 c 1
 575 0 l 2
 561 0 553 6.6669921875 551 20 c 2
 519 182 l 1
509 231 m 1
 434 608 l 1
 225 231 l 1
 509 231 l 1
450 805 m 2
 442 796.333007812 432.666992188 792 422 792 c 0
 411.333007812 792 406 795 406 801 c 0
 405.333007812 805 406 808.666992188 408 812 c 2
 457 905 l 2
 463 917 471 923 481 923 c 0
 491 923 501 920.5 511 915.5 c 0
 521 910.5 526.333007812 905.5 527 900.5 c 0
 527.666992188 895.5 525 889.333007812 519 882 c 2
 450 805 l 2
EndSplineSet
EndChar

StartChar: circumflex
Encoding: 262 710 94
Width: 500
Flags: MW
HStem: 592 21G<150.667 160.333 336.333 347.667> 700 20G<262 270 270 274.333>
LayerCount: 2
Fore
SplineSet
257 663 m 1
 187 605 l 2
 175.666992188 596.333007812 165.166992188 592 155.5 592 c 0
 145.833007812 592 141 595.333007812 141 602 c 1
 142.333007812 606.666992188 144.666992188 610.666992188 148 614 c 2
 232 702 l 2
 242.666992188 714 252.666992188 720 262 720 c 2
 270 720 l 2
 278.666992188 720 287.333007812 714 296 702 c 2
 356 614 l 2
 358.666992188 609.333007812 359.666992188 605.333007812 359 602 c 0
 359 595.333007812 353.333007812 592 342 592 c 0
 330.666992188 592 321 596.333007812 313 605 c 2
 257 663 l 1
EndSplineSet
EndChar

StartChar: Atilde
Encoding: 195 195 95
Width: 790
Flags: W
HStem: 0 21G<84.6665 91.3335 568 575 575 580> 182 49<225 509 225 519 198 509> 680 20G<440.667 469> 795 52<543.333 554> 836 52<414.667 425.333> 879 20G<614.333 620.667>
LayerCount: 2
Fore
SplineSet
519 182 m 1xe0
 198 182 l 1
 105 13 l 2
 100.333007812 4.3330078125 94.6669921875 0 88 0 c 0
 81.3330078125 0 76 1 72 3 c 0
 58 11 54.6669921875 22 62 36 c 2
 422 687 l 2
 426 695.666992188 434.333007812 700 447 700 c 0
 459.666992188 700 467 693.333007812 469 680 c 2
 599 29 l 2
 600.333007812 22.3330078125 599.166992188 16.1669921875 595.5 10.5 c 0
 591.833007812 4.8330078125 586.666992188 1.3330078125 580 0 c 1
 575 0 l 2
 561 0 553 6.6669921875 551 20 c 2
 519 182 l 1xe0
509 231 m 1
 434 608 l 1
 225 231 l 1
 509 231 l 1
370 798 m 0
 364 788.666992188 357.833007812 784 351.5 784 c 0
 345.166992188 784 340.5 785.666992188 337.5 789 c 0
 334.5 792.333007812 333.333007812 796.333007812 334 801 c 2
 338 813 l 1
 350.666992188 841 364 860.5 378 871.5 c 0
 392 882.5 406.833007812 888 422.5 888 c 0xe8
 438.166992188 888 460.333007812 881.166992188 489 867.5 c 0
 517.666992188 853.833007812 537.666992188 847 549 847 c 0
 568.333007812 847 585 859.666992188 599 885 c 0
 605 894.333007812 611.166992188 899 617.5 899 c 0
 623.833007812 899 628.5 897.333007812 631.5 894 c 0
 637.436523438 887.404296875 637.26953125 879.404296875 631 870 c 1
 618.333007812 842 605 822.5 591 811.5 c 0
 577 800.5 562 795 546 795 c 0xf4
 530 795 507.666992188 801.833007812 479 815.5 c 0
 450.333007812 829.166992188 430.666992188 836 420 836 c 0xe8
 400.666992188 836 384 823.333007812 370 798 c 0
EndSplineSet
EndChar

StartChar: Egrave
Encoding: 200 200 96
Width: 670
Flags: MW
HStem: -2 49<126 491 159 491 159 491> 323 49<217 507 217 507 208 507> 649 49<266 606 266 266> 903 20G<425 435>
LayerCount: 2
Fore
SplineSet
126 -2 m 1
 110.666992188 1.3330078125 104 11 106 27 c 2
 221 678 l 2
 223 691.333007812 231.333007812 698 246 698 c 2
 606 698 l 2
 612.666992188 698 618.333007812 695.5 623 690.5 c 0
 627.666992188 685.5 630 679.666992188 630 673 c 0
 630 666.333007812 627.666992188 660.666992188 623 656 c 0
 618.333007812 651.333007812 612.666992188 649 606 649 c 2
 266 649 l 1
 217 372 l 1
 507 372 l 2
 513.666992188 372 519.333007812 369.666992188 524 365 c 0
 528.666992188 360.333007812 531 354.666992188 531 348 c 0
 531 341.333007812 528.666992188 335.5 524 330.5 c 0
 519.333007812 325.5 513.666992188 323 507 323 c 2
 208 323 l 1
 159 47 l 1
 491 47 l 2
 497.666992188 47 503.333007812 44.5 508 39.5 c 0
 512.666992188 34.5 515 28.6669921875 515 22 c 0
 515 15.3330078125 512.666992188 9.6669921875 508 5 c 0
 503.333007812 0.3330078125 497.666992188 -2 491 -2 c 2
 126 -2 l 1
505 801 m 0
 505 795 499.666992188 792 489 792 c 0
 478.333007812 792 469 796.333007812 461 805 c 2
 392 882 l 2
 386 889.333007812 383.333007812 895.5 384 900.5 c 0
 384.666992188 905.5 390 910.5 400 915.5 c 0
 410 920.5 420 923 430 923 c 0
 440 923 448 917 454 905 c 2
 503 812 l 2
 505 808.666992188 505.666992188 805 505 801 c 0
EndSplineSet
EndChar

StartChar: Eacute
Encoding: 201 201 97
Width: 670
Flags: MW
HStem: -2 49<126 491 159 491 159 491> 323 49<217 507 217 507 208 507> 649 49<266 606 266 266> 903 20G<488 498>
LayerCount: 2
Fore
SplineSet
126 -2 m 1
 110.666992188 1.3330078125 104 11 106 27 c 2
 221 678 l 2
 223 691.333007812 231.333007812 698 246 698 c 2
 606 698 l 2
 612.666992188 698 618.333007812 695.5 623 690.5 c 0
 627.666992188 685.5 630 679.666992188 630 673 c 0
 630 666.333007812 627.666992188 660.666992188 623 656 c 0
 618.333007812 651.333007812 612.666992188 649 606 649 c 2
 266 649 l 1
 217 372 l 1
 507 372 l 2
 513.666992188 372 519.333007812 369.666992188 524 365 c 0
 528.666992188 360.333007812 531 354.666992188 531 348 c 0
 531 341.333007812 528.666992188 335.5 524 330.5 c 0
 519.333007812 325.5 513.666992188 323 507 323 c 2
 208 323 l 1
 159 47 l 1
 491 47 l 2
 497.666992188 47 503.333007812 44.5 508 39.5 c 0
 512.666992188 34.5 515 28.6669921875 515 22 c 0
 515 15.3330078125 512.666992188 9.6669921875 508 5 c 0
 503.333007812 0.3330078125 497.666992188 -2 491 -2 c 2
 126 -2 l 1
462 805 m 2
 454 796.333007812 444.666992188 792 434 792 c 0
 423.333007812 792 418 795 418 801 c 0
 417.333007812 805 418 808.666992188 420 812 c 2
 469 905 l 2
 475 917 483 923 493 923 c 0
 503 923 513 920.5 523 915.5 c 0
 533 910.5 538.333007812 905.5 539 900.5 c 0
 539.666992188 895.5 537 889.333007812 531 882 c 2
 462 805 l 2
EndSplineSet
EndChar

StartChar: Igrave
Encoding: 204 204 98
Width: 274
Flags: MW
HStem: -2 21G<37 41 37 37> 903 20G<136 146>
LayerCount: 2
Fore
SplineSet
41 -2 m 2
 37 -2 l 2
 30.3330078125 -1.3330078125 25 1.8330078125 21 7.5 c 0
 17 13.1669921875 15.6669921875 19.3330078125 17 26 c 2
 132 677 l 2
 132.666992188 683.666992188 135.833007812 689 141.5 693 c 0
 147.166992188 697 153.333007812 698.5 160 697.5 c 0
 166.666992188 696.5 172 693.166992188 176 687.5 c 0
 180 681.833007812 181.333007812 675.666992188 180 669 c 2
 65 18 l 2
 63 4.6669921875 55 -2 41 -2 c 2
216 801 m 0
 216 795 210.666992188 792 200 792 c 0
 189.333007812 792 180 796.333007812 172 805 c 2
 103 882 l 2
 97 889.333007812 94.3330078125 895.5 95 900.5 c 0
 95.6669921875 905.5 101 910.5 111 915.5 c 0
 121 920.5 131 923 141 923 c 0
 151 923 159 917 165 905 c 2
 214 812 l 2
 216 808.666992188 216.666992188 805 216 801 c 0
EndSplineSet
EndChar

StartChar: Iacute
Encoding: 205 205 99
Width: 274
Flags: MW
HStem: -2 21G<133 137 133 133> 903 20G<277 287>
LayerCount: 2
Fore
SplineSet
137 -2 m 2
 133 -2 l 2
 126.333007812 -1.3330078125 121 1.8330078125 117 7.5 c 0
 113 13.1669921875 111.666992188 19.3330078125 113 26 c 2
 228 677 l 2
 228.666992188 683.666992188 231.833007812 689 237.5 693 c 0
 243.166992188 697 249.333007812 698.5 256 697.5 c 0
 262.666992188 696.5 268 693.166992188 272 687.5 c 0
 276 681.833007812 277.333007812 675.666992188 276 669 c 2
 161 18 l 2
 159 4.6669921875 151 -2 137 -2 c 2
251 805 m 2
 243 796.333007812 233.666992188 792 223 792 c 0
 212.333007812 792 207 795 207 801 c 0
 206.333007812 805 207 808.666992188 209 812 c 2
 258 905 l 2
 264 917 272 923 282 923 c 0
 292 923 302 920.5 312 915.5 c 0
 322 910.5 327.333007812 905.5 328 900.5 c 0
 328.666992188 895.5 326 889.333007812 320 882 c 2
 251 805 l 2
EndSplineSet
EndChar

StartChar: Icircumflex
Encoding: 206 206 100
Width: 274
Flags: MW
HStem: -2 21G<50 54 50 50> 900 20G<200 208 208 212.333>
LayerCount: 2
Fore
SplineSet
54 -2 m 2
 50 -2 l 2
 43.3330078125 -1.3330078125 38 1.8330078125 34 7.5 c 0
 30 13.1669921875 28.6669921875 19.3330078125 30 26 c 2
 145 677 l 2
 145.666992188 683.666992188 148.833007812 689 154.5 693 c 0
 160.166992188 697 166.333007812 698.5 173 697.5 c 0
 179.666992188 696.5 185 693.166992188 189 687.5 c 0
 193 681.833007812 194.333007812 675.666992188 193 669 c 2
 78 18 l 2
 76 4.6669921875 68 -2 54 -2 c 2
195 863 m 1
 125 805 l 2
 113.666992188 796.333007812 103.166992188 792 93.5 792 c 0
 83.8330078125 792 79 795.333007812 79 802 c 1
 80.3330078125 806.666992188 82.6669921875 810.666992188 86 814 c 2
 170 902 l 2
 180.666992188 914 190.666992188 920 200 920 c 2
 208 920 l 2
 216.666992188 920 225.333007812 914 234 902 c 2
 294 814 l 2
 296.666992188 809.333007812 297.666992188 805.333007812 297 802 c 0
 297 795.333007812 291.333007812 792 280 792 c 0
 268.666992188 792 259 796.333007812 251 805 c 2
 195 863 l 1
EndSplineSet
EndChar

StartChar: Idieresis
Encoding: 207 207 101
Width: 274
Flags: MW
HStem: -2 21G<42 46 42 42>
LayerCount: 2
Fore
SplineSet
46 -2 m 2
 42 -2 l 2
 35.3330078125 -1.3330078125 30 1.8330078125 26 7.5 c 0
 22 13.1669921875 20.6669921875 19.3330078125 22 26 c 2
 137 677 l 2
 137.666992188 683.666992188 140.833007812 689 146.5 693 c 0
 152.166992188 697 158.333007812 698.5 165 697.5 c 0
 171.666992188 696.5 177 693.166992188 181 687.5 c 0
 185 681.833007812 186.333007812 675.666992188 185 669 c 2
 70 18 l 2
 68 4.6669921875 60 -2 46 -2 c 2
EndSplineSet
EndChar

StartChar: Oacute
Encoding: 211 211 104
Width: 850
Flags: MW
HStem: 0 48<352 391 352 402.333> 651 49<426.333 507.667 465 507.667> 903 20G<521 531>
VStem: 73 49<289 297 289 299.667> 697 49<402 410>
LayerCount: 2
Fore
SplineSet
467 700 m 0
 548.333007812 700 615.166992188 672.166992188 667.5 616.5 c 0
 719.833007812 560.833007812 746 492 746 410 c 0
 746 388.666992188 744 367 740 345 c 1
 716 350 l 1
 740 345 l 1
 722.666992188 249 676.5 167.5 601.5 100.5 c 0
 526.5 33.5 445.666992188 0 359 0 c 0
 272.333007812 0 203 27.3330078125 151 82 c 0
 99 136.666992188 73 205.666992188 73 289 c 0
 73 310.333007812 75 332 79 354 c 0
 96.3330078125 450 142.333007812 531.5 217 598.5 c 0
 291.666992188 665.5 375 699.333007812 467 700 c 0
692 354 m 0
 695.333007812 375.333007812 697 394 697 410 c 0
 696.333007812 480 674.666992188 537.5 632 582.5 c 0
 589.333007812 627.5 534.333007812 650.333007812 467 651 c 2
 465 651 l 2
 387.666992188 651 315.666992188 621 249 561 c 0
 182.333007812 501 141.666992188 429 127 345 c 0
 123.666992188 323.666992188 122 305 122 289 c 0
 122.666992188 219 144.333007812 161.5 187 116.5 c 0
 229.666992188 71.5 284.666992188 48.6669921875 352 48 c 0
 430 48 502.5 78 569.5 138 c 0
 636.5 198 677.333007812 270 692 354 c 0
495 805 m 2
 487 796.333007812 477.666992188 792 467 792 c 0
 456.333007812 792 451 795 451 801 c 0
 450.333007812 805 451 808.666992188 453 812 c 2
 502 905 l 2
 508 917 516 923 526 923 c 0
 536 923 546 920.5 556 915.5 c 0
 566 910.5 571.333007812 905.5 572 900.5 c 0
 572.666992188 895.5 570 889.333007812 564 882 c 2
 495 805 l 2
EndSplineSet
EndChar

StartChar: Otilde
Encoding: 213 213 106
Width: 850
Flags: W
HStem: 0 48<352 391 352 402.333> 651 49<426.333 507.667 465 507.667> 795 52<596.667 607> 836 52<468 478.667> 879 20G<667.333 673.667>
VStem: 73 49<289 297 289 299.667> 697 49<402 410>
LayerCount: 2
Fore
SplineSet
467 700 m 0xc6
 548.333007812 700 615.166992188 672.166992188 667.5 616.5 c 0
 719.833007812 560.833007812 746 492 746 410 c 0
 746 388.666992188 744 367 740 345 c 1
 716 350 l 1
 740 345 l 1
 722.666992188 249 676.5 167.5 601.5 100.5 c 0
 526.5 33.5 445.666992188 0 359 0 c 0
 272.333007812 0 203 27.3330078125 151 82 c 0
 99 136.666992188 73 205.666992188 73 289 c 0
 73 310.333007812 75 332 79 354 c 0
 96.3330078125 450 142.333007812 531.5 217 598.5 c 0
 291.666992188 665.5 375 699.333007812 467 700 c 0xc6
692 354 m 0
 695.333007812 375.333007812 697 394 697 410 c 0
 696.333007812 480 674.666992188 537.5 632 582.5 c 0
 589.333007812 627.5 534.333007812 650.333007812 467 651 c 2
 465 651 l 2
 387.666992188 651 315.666992188 621 249 561 c 0
 182.333007812 501 141.666992188 429 127 345 c 0
 123.666992188 323.666992188 122 305 122 289 c 0
 122.666992188 219 144.333007812 161.5 187 116.5 c 0
 229.666992188 71.5 284.666992188 48.6669921875 352 48 c 0
 430 48 502.5 78 569.5 138 c 0
 636.5 198 677.333007812 270 692 354 c 0
423 798 m 0
 417 788.666992188 410.833007812 784 404.5 784 c 0
 398.166992188 784 393.5 785.666992188 390.5 789 c 0
 387.5 792.333007812 386.333007812 796.333007812 387 801 c 2
 391 813 l 1
 403.666992188 841 417 860.5 431 871.5 c 0
 445 882.5 460 888 476 888 c 0xd6
 492 888 514.333007812 881.166992188 543 867.5 c 0
 571.666992188 853.833007812 591.333007812 847 602 847 c 0
 621.333007812 847 638 859.666992188 652 885 c 0
 658 894.333007812 664.166992188 899 670.5 899 c 0
 676.833007812 899 681.5 897.333007812 684.5 894 c 0
 690.436523438 887.404296875 690.26953125 879.404296875 684 870 c 1
 671.333007812 842 658 822.5 644 811.5 c 0
 630 800.5 615 795 599 795 c 0xee
 583 795 560.833007812 801.833007812 532.5 815.5 c 0
 504.166992188 829.166992188 484.333007812 836 473 836 c 0xd6
 453.666992188 836 437 823.333007812 423 798 c 0
EndSplineSet
EndChar

StartChar: Ugrave
Encoding: 217 217 107
Width: 760
Flags: MW
HStem: 1 49 903 20G<457 467>
VStem: 93 49<239 246>
LayerCount: 2
Fore
SplineSet
712 701 m 0
 727.333007812 697.666992188 734 688 732 672 c 2
 662 280 l 2
 648 202.666992188 609.333007812 137 546 83 c 0
 482.666992188 29 412.333007812 1.6669921875 335 1 c 2
 334 1 l 2
 265.333007812 1 207.666992188 23.6669921875 161 69 c 0
 115.666992188 114.333007812 93 171 93 239 c 0
 93 253 94.6669921875 269.333007812 98 288 c 2
 167 681 l 2
 167.666992188 687.666992188 170.833007812 693 176.5 697 c 0
 182.166992188 701 188.333007812 702.333007812 195 701 c 0
 210.333007812 697.666992188 217 688 215 672 c 2
 146 280 l 2
 143.333007812 267.333007812 142 253.666992188 142 239 c 0
 142.666992188 184.333007812 160.666992188 139.333007812 196 104 c 0
 231.333007812 68.6669921875 279.5 50.6669921875 340.5 50 c 0
 401.5 49.3330078125 459.666992188 72.6669921875 515 120 c 0
 570.333007812 167.333007812 603.333007812 223.333007812 614 288 c 2
 684 681 l 2
 684.666992188 687.666992188 687.833007812 693 693.5 697 c 0
 699.166992188 701 705.333007812 702.333007812 712 701 c 0
537 801 m 0
 537 795 531.666992188 792 521 792 c 0
 510.333007812 792 501 796.333007812 493 805 c 2
 424 882 l 2
 418 889.333007812 415.333007812 895.5 416 900.5 c 0
 416.666992188 905.5 422 910.5 432 915.5 c 0
 442 920.5 452 923 462 923 c 0
 472 923 480 917 486 905 c 2
 535 812 l 2
 537 808.666992188 537.666992188 805 537 801 c 0
EndSplineSet
EndChar

StartChar: Uacute
Encoding: 218 218 108
Width: 760
Flags: MW
HStem: 1 49 903 20G<507 517>
VStem: 93 49<239 246>
LayerCount: 2
Fore
SplineSet
712 701 m 0
 727.333007812 697.666992188 734 688 732 672 c 2
 662 280 l 2
 648 202.666992188 609.333007812 137 546 83 c 0
 482.666992188 29 412.333007812 1.6669921875 335 1 c 2
 334 1 l 2
 265.333007812 1 207.666992188 23.6669921875 161 69 c 0
 115.666992188 114.333007812 93 171 93 239 c 0
 93 253 94.6669921875 269.333007812 98 288 c 2
 167 681 l 2
 167.666992188 687.666992188 170.833007812 693 176.5 697 c 0
 182.166992188 701 188.333007812 702.333007812 195 701 c 0
 210.333007812 697.666992188 217 688 215 672 c 2
 146 280 l 2
 143.333007812 267.333007812 142 253.666992188 142 239 c 0
 142.666992188 184.333007812 160.666992188 139.333007812 196 104 c 0
 231.333007812 68.6669921875 279.5 50.6669921875 340.5 50 c 0
 401.5 49.3330078125 459.666992188 72.6669921875 515 120 c 0
 570.333007812 167.333007812 603.333007812 223.333007812 614 288 c 2
 684 681 l 2
 684.666992188 687.666992188 687.833007812 693 693.5 697 c 0
 699.166992188 701 705.333007812 702.333007812 712 701 c 0
481 805 m 2
 473 796.333007812 463.666992188 792 453 792 c 0
 442.333007812 792 437 795 437 801 c 0
 436.333007812 805 437 808.666992188 439 812 c 2
 488 905 l 2
 494 917 502 923 512 923 c 0
 522 923 532 920.5 542 915.5 c 0
 552 910.5 557.333007812 905.5 558 900.5 c 0
 558.666992188 895.5 556 889.333007812 550 882 c 2
 481 805 l 2
EndSplineSet
EndChar

StartChar: Ucircumflex
Encoding: 219 219 109
Width: 760
Flags: MW
HStem: 1 49 900 20G<505 513 513 517.333>
VStem: 93 49<239 246>
LayerCount: 2
Fore
SplineSet
712 701 m 0
 727.333007812 697.666992188 734 688 732 672 c 2
 662 280 l 2
 648 202.666992188 609.333007812 137 546 83 c 0
 482.666992188 29 412.333007812 1.6669921875 335 1 c 2
 334 1 l 2
 265.333007812 1 207.666992188 23.6669921875 161 69 c 0
 115.666992188 114.333007812 93 171 93 239 c 0
 93 253 94.6669921875 269.333007812 98 288 c 2
 167 681 l 2
 167.666992188 687.666992188 170.833007812 693 176.5 697 c 0
 182.166992188 701 188.333007812 702.333007812 195 701 c 0
 210.333007812 697.666992188 217 688 215 672 c 2
 146 280 l 2
 143.333007812 267.333007812 142 253.666992188 142 239 c 0
 142.666992188 184.333007812 160.666992188 139.333007812 196 104 c 0
 231.333007812 68.6669921875 279.5 50.6669921875 340.5 50 c 0
 401.5 49.3330078125 459.666992188 72.6669921875 515 120 c 0
 570.333007812 167.333007812 603.333007812 223.333007812 614 288 c 2
 684 681 l 2
 684.666992188 687.666992188 687.833007812 693 693.5 697 c 0
 699.166992188 701 705.333007812 702.333007812 712 701 c 0
500 863 m 1
 430 805 l 2
 418.666992188 796.333007812 408.166992188 792 398.5 792 c 0
 388.833007812 792 384 795.333007812 384 802 c 1
 385.333007812 806.666992188 387.666992188 810.666992188 391 814 c 2
 475 902 l 2
 485.666992188 914 495.666992188 920 505 920 c 2
 513 920 l 2
 521.666992188 920 530.333007812 914 539 902 c 2
 599 814 l 2
 601.666992188 809.333007812 602.666992188 805.333007812 602 802 c 0
 602 795.333007812 596.333007812 792 585 792 c 0
 573.666992188 792 564 796.333007812 556 805 c 2
 500 863 l 1
EndSplineSet
EndChar

StartChar: Yacute
Encoding: 221 221 110
Width: 716
Flags: MW
HStem: -1 21G<203 208 203 203> 903 20G<420 430>
LayerCount: 2
Fore
SplineSet
581 658 m 2
 287 334 l 1
 232 19 l 2
 231.333007812 13 228.5 8.1669921875 223.5 4.5 c 0
 218.5 0.8330078125 213.333007812 -1 208 -1 c 2
 203 -1 l 2
 196.333007812 -0.3330078125 191 2.8330078125 187 8.5 c 0
 183 14.1669921875 181.666992188 20.3330078125 183 27 c 2
 239 341 l 1
 61 662 l 2
 57.6669921875 668 57 674.166992188 59 680.5 c 0
 61 686.833007812 64.6669921875 691.666992188 70 695 c 0
 76 698.333007812 82.3330078125 699.166992188 89 697.5 c 0
 95.6669921875 695.833007812 100.666992188 692 104 686 c 2
 269 387 l 1
 544 690 l 2
 548.666992188 695.333007812 554.333007812 698.166992188 561 698.5 c 0
 567.666992188 698.833007812 573.666992188 696.666992188 579 692 c 0
 591 681.333007812 591.666992188 670 581 658 c 2
394 805 m 2
 386 796.333007812 376.666992188 792 366 792 c 0
 355.333007812 792 350 795 350 801 c 0
 349.333007812 805 350 808.666992188 352 812 c 2
 401 905 l 2
 407 917 415 923 425 923 c 0
 435 923 445 920.5 455 915.5 c 0
 465 910.5 470.333007812 905.5 471 900.5 c 0
 471.666992188 895.5 469 889.333007812 463 882 c 2
 394 805 l 2
EndSplineSet
EndChar

StartChar: agrave
Encoding: 224 224 111
Width: 574
Flags: MW
HStem: 0 48 440 48 703 20G<407 417>
VStem: 63 47<203 209.667 203 211.333>
LayerCount: 2
Fore
SplineSet
258 0 m 0
 201.333007812 0 154.666992188 19.3330078125 118 58 c 0
 81.3330078125 96.6669921875 63 145 63 203 c 0
 63 219.666992188 64.3330078125 234.666992188 67 248 c 0
 79 314.666992188 110.833007812 371.166992188 162.5 417.5 c 0
 214.166992188 463.833007812 270.166992188 487.166992188 330.5 487.5 c 0
 390.833007812 487.833007812 439.666992188 468.333007812 477 429 c 0
 489 415.666992188 498.666992188 402.333007812 506 389 c 1
 520 468 l 2
 521.333007812 474.666992188 524.5 479.833007812 529.5 483.5 c 0
 534.5 487.166992188 540.333007812 488.5 547 487.5 c 0
 553.666992188 486.5 558.833007812 483.333007812 562.5 478 c 0
 566.166992188 472.666992188 567.666992188 466.666992188 567 460 c 2
 489 20 l 2
 487 6.6669921875 479 0 465 0 c 2
 461 0 l 1
 454.333007812 1.3330078125 449.166992188 4.6669921875 445.5 10 c 0
 441.833007812 15.3330078125 440.666992188 21.3330078125 442 28 c 2
 453 92 l 1
 399 32 334 1.3330078125 258 0 c 0
114 240 m 0
 111.333007812 228.666992188 110 216.333007812 110 203 c 0
 110.666992188 157.666992188 124.666992188 120.666992188 152 92 c 0
 179.333007812 63.3330078125 216.5 48.6669921875 263.5 48 c 0
 310.5 47.3330078125 356.166992188 66.6669921875 400.5 106 c 0
 456.166992188 155.388671875 484 215.0546875 484 285 c 0
 483.333007812 330.333007812 469.5 367.333007812 442.5 396 c 0
 415.5 424.666992188 380 439.333007812 336 440 c 2
 335 440 l 2
 284.333007812 440 237.166992188 420.333007812 193.5 381 c 0
 149.833007812 341.666992188 123.333007812 294.666992188 114 240 c 0
487 601 m 0
 487 595 481.666992188 592 471 592 c 0
 460.333007812 592 451 596.333007812 443 605 c 2
 374 682 l 2
 368 689.333007812 365.333007812 695.5 366 700.5 c 0
 366.666992188 705.5 372 710.5 382 715.5 c 0
 392 720.5 402 723 412 723 c 0
 422 723 430 717 436 705 c 2
 485 612 l 2
 487 608.666992188 487.666992188 605 487 601 c 0
EndSplineSet
EndChar

StartChar: aacute
Encoding: 225 225 112
Width: 574
Flags: MW
HStem: 0 48 440 48 703 20G<357 367>
VStem: 63 47<203 209.667 203 211.333>
LayerCount: 2
Fore
SplineSet
258 0 m 0
 201.333007812 0 154.666992188 19.3330078125 118 58 c 0
 81.3330078125 96.6669921875 63 145 63 203 c 0
 63 219.666992188 64.3330078125 234.666992188 67 248 c 0
 79 314.666992188 110.833007812 371.166992188 162.5 417.5 c 0
 214.166992188 463.833007812 270.166992188 487.166992188 330.5 487.5 c 0
 390.833007812 487.833007812 439.666992188 468.333007812 477 429 c 0
 489 415.666992188 498.666992188 402.333007812 506 389 c 1
 520 468 l 2
 521.333007812 474.666992188 524.5 479.833007812 529.5 483.5 c 0
 534.5 487.166992188 540.333007812 488.5 547 487.5 c 0
 553.666992188 486.5 558.833007812 483.333007812 562.5 478 c 0
 566.166992188 472.666992188 567.666992188 466.666992188 567 460 c 2
 489 20 l 2
 487 6.6669921875 479 0 465 0 c 2
 461 0 l 1
 454.333007812 1.3330078125 449.166992188 4.6669921875 445.5 10 c 0
 441.833007812 15.3330078125 440.666992188 21.3330078125 442 28 c 2
 453 92 l 1
 399 32 334 1.3330078125 258 0 c 0
114 240 m 0
 111.333007812 228.666992188 110 216.333007812 110 203 c 0
 110.666992188 157.666992188 124.666992188 120.666992188 152 92 c 0
 179.333007812 63.3330078125 216.5 48.6669921875 263.5 48 c 0
 310.5 47.3330078125 356.166992188 66.6669921875 400.5 106 c 0
 456.166992188 155.388671875 484 215.0546875 484 285 c 0
 483.333007812 330.333007812 469.5 367.333007812 442.5 396 c 0
 415.5 424.666992188 380 439.333007812 336 440 c 2
 335 440 l 2
 284.333007812 440 237.166992188 420.333007812 193.5 381 c 0
 149.833007812 341.666992188 123.333007812 294.666992188 114 240 c 0
331 605 m 2
 323 596.333007812 313.666992188 592 303 592 c 0
 292.333007812 592 287 595 287 601 c 0
 286.333007812 605 287 608.666992188 289 612 c 2
 338 705 l 2
 344 717 352 723 362 723 c 0
 372 723 382 720.5 392 715.5 c 0
 402 710.5 407.333007812 705.5 408 700.5 c 0
 408.666992188 695.5 406 689.333007812 400 682 c 2
 331 605 l 2
EndSplineSet
EndChar

StartChar: acircumflex
Encoding: 226 226 113
Width: 574
Flags: W
HStem: 0 48 440 48 488 104 700 20G<419 427 427 431.333>
VStem: 63 47<203 209.667 203 211.333>
LayerCount: 2
Fore
SplineSet
258 0 m 0x98
 201.333007812 0 154.666992188 19.3330078125 118 58 c 0
 81.3330078125 96.6669921875 63 145 63 203 c 0
 63 219.666992188 64.3330078125 234.666992188 67 248 c 0
 79 314.666992188 110.833007812 371.166992188 162.5 417.5 c 0
 214.166992188 463.833007812 270.166992188 487.166992188 330.5 487.5 c 0
 390.833007812 487.833007812 439.666992188 468.333007812 477 429 c 0
 489 415.666992188 498.666992188 402.333007812 506 389 c 1
 520 468 l 2
 521.333007812 474.666992188 524.5 479.833007812 529.5 483.5 c 0
 534.5 487.166992188 540.333007812 488.5 547 487.5 c 0
 553.666992188 486.5 558.833007812 483.333007812 562.5 478 c 0
 566.166992188 472.666992188 567.666992188 466.666992188 567 460 c 2
 489 20 l 2
 487 6.6669921875 479 0 465 0 c 2
 461 0 l 1
 454.333007812 1.3330078125 449.166992188 4.6669921875 445.5 10 c 0
 441.833007812 15.3330078125 440.666992188 21.3330078125 442 28 c 2
 453 92 l 1
 399 32 334 1.3330078125 258 0 c 0x98
114 240 m 0
 111.333007812 228.666992188 110 216.333007812 110 203 c 0
 110.666992188 157.666992188 124.666992188 120.666992188 152 92 c 0
 179.333007812 63.3330078125 216.5 48.6669921875 263.5 48 c 0
 310.5 47.3330078125 356.166992188 66.6669921875 400.5 106 c 0
 456.166992188 155.388671875 484 215.0546875 484 285 c 0
 483.333007812 330.333007812 469.5 367.333007812 442.5 396 c 0
 415.5 424.666992188 380 439.333007812 336 440 c 2
 335 440 l 2xd8
 284.333007812 440 237.166992188 420.333007812 193.5 381 c 0
 149.833007812 341.666992188 123.333007812 294.666992188 114 240 c 0
414 663 m 1
 344 605 l 2
 332.666992188 596.333007812 322.166992188 592 312.5 592 c 0
 302.833007812 592 298 595.333007812 298 602 c 1
 299.333007812 606.666992188 301.666992188 610.666992188 305 614 c 2
 389 702 l 2
 399.666992188 714 409.666992188 720 419 720 c 2
 427 720 l 2
 435.666992188 720 444.333007812 714 453 702 c 2
 513 614 l 2
 515.666992188 609.333007812 516.666992188 605.333007812 516 602 c 0
 516 595.333007812 510.333007812 592 499 592 c 0xb8
 487.666992188 592 478 596.333007812 470 605 c 2
 414 663 l 1
EndSplineSet
EndChar

StartChar: atilde
Encoding: 227 227 114
Width: 574
Flags: W
HStem: 0 48 440 48 595 52<477.333 488> 636 52<348.667 359.333> 679 20G<548.333 554.667>
VStem: 63 47<203 209.667 203 211.333>
LayerCount: 2
Fore
SplineSet
258 0 m 0xc4
 201.333007812 0 154.666992188 19.3330078125 118 58 c 0
 81.3330078125 96.6669921875 63 145 63 203 c 0
 63 219.666992188 64.3330078125 234.666992188 67 248 c 0
 79 314.666992188 110.833007812 371.166992188 162.5 417.5 c 0
 214.166992188 463.833007812 270.166992188 487.166992188 330.5 487.5 c 0
 390.833007812 487.833007812 439.666992188 468.333007812 477 429 c 0
 489 415.666992188 498.666992188 402.333007812 506 389 c 1
 520 468 l 2
 521.333007812 474.666992188 524.5 479.833007812 529.5 483.5 c 0
 534.5 487.166992188 540.333007812 488.5 547 487.5 c 0
 553.666992188 486.5 558.833007812 483.333007812 562.5 478 c 0
 566.166992188 472.666992188 567.666992188 466.666992188 567 460 c 2
 489 20 l 2
 487 6.6669921875 479 0 465 0 c 2
 461 0 l 1
 454.333007812 1.3330078125 449.166992188 4.6669921875 445.5 10 c 0
 441.833007812 15.3330078125 440.666992188 21.3330078125 442 28 c 2
 453 92 l 1
 399 32 334 1.3330078125 258 0 c 0xc4
114 240 m 0
 111.333007812 228.666992188 110 216.333007812 110 203 c 0
 110.666992188 157.666992188 124.666992188 120.666992188 152 92 c 0
 179.333007812 63.3330078125 216.5 48.6669921875 263.5 48 c 0
 310.5 47.3330078125 356.166992188 66.6669921875 400.5 106 c 0
 456.166992188 155.388671875 484 215.0546875 484 285 c 0
 483.333007812 330.333007812 469.5 367.333007812 442.5 396 c 0
 415.5 424.666992188 380 439.333007812 336 440 c 2
 335 440 l 2
 284.333007812 440 237.166992188 420.333007812 193.5 381 c 0
 149.833007812 341.666992188 123.333007812 294.666992188 114 240 c 0
304 598 m 0
 298 588.666992188 291.833007812 584 285.5 584 c 0
 279.166992188 584 274.5 585.666992188 271.5 589 c 0
 268.5 592.333007812 267.333007812 596.333007812 268 601 c 2
 272 613 l 1
 284.666992188 641 298 660.5 312 671.5 c 0
 326 682.5 340.833007812 688 356.5 688 c 0xd4
 372.166992188 688 394.333007812 681.166992188 423 667.5 c 0
 451.666992188 653.833007812 471.666992188 647 483 647 c 0
 502.333007812 647 519 659.666992188 533 685 c 0
 539 694.333007812 545.166992188 699 551.5 699 c 0
 557.833007812 699 562.5 697.333007812 565.5 694 c 0
 571.436523438 687.404296875 571.26953125 679.404296875 565 670 c 1
 552.333007812 642 539 622.5 525 611.5 c 0
 511 600.5 496 595 480 595 c 0xec
 464 595 441.666992188 601.833007812 413 615.5 c 0
 384.333007812 629.166992188 364.666992188 636 354 636 c 0xd4
 334.666992188 636 318 623.333007812 304 598 c 0
EndSplineSet
EndChar

StartChar: egrave
Encoding: 232 232 115
Width: 584
Flags: MW
HStem: 1 48 235 49<124 494 124 516 111 494> 442 48 703 20G<376 386>
VStem: 61 48<182.333 211.667 182.333 213> 494 48<284 286 286 286>
LayerCount: 2
Fore
SplineSet
542 286 m 0
 542 276.666992188 541 266 539 254 c 1
 535 241.333007812 527.333007812 235 516 235 c 2
 111 235 l 1
 109.666992188 228.333007812 109 218.333007812 109 205 c 0
 109 159.666992188 123.166992188 122.5 151.5 93.5 c 0
 179.833007812 64.5 213.666992188 49.8330078125 253 49.5 c 0
 328.4609375 48.8603515625 390.4609375 78.693359375 439 139 c 0
 443.666992188 144.333007812 449.166992188 147.333007812 455.5 148 c 0
 461.833007812 148.666992188 467.666992188 146.666992188 473 142 c 0
 485 132 486 121.333007812 476 110 c 0
 450 76.6669921875 418.166992188 50.1669921875 380.5 30.5 c 0
 342.833007812 10.8330078125 303.333007812 1 262 1 c 2
 261 1 l 2
 203 1 155.166992188 20.5 117.5 59.5 c 0
 79.8330078125 98.5 61 147 61 205 c 0
 61 221 62.3330078125 236 65 250 c 0
 77 316.666992188 109.5 373.166992188 162.5 419.5 c 0
 215.5 465.833007812 273 489.166992188 335 489.5 c 0
 397 489.833007812 447 470.333007812 485 431 c 0
 523 391.666992188 542 343.333007812 542 286 c 0
341 442 m 0
 295.666992188 442.666992188 252.5 427.833007812 211.5 397.5 c 0
 170.5 367.166992188 141.333007812 329.333007812 124 284 c 1
 494 284 l 1
 494 286 l 2
 493.333007812 331.333007812 479 368.5 451 397.5 c 0
 423 426.5 386.333007812 441.333007812 341 442 c 0
456 601 m 0
 456 595 450.666992188 592 440 592 c 0
 429.333007812 592 420 596.333007812 412 605 c 2
 343 682 l 2
 337 689.333007812 334.333007812 695.5 335 700.5 c 0
 335.666992188 705.5 341 710.5 351 715.5 c 0
 361 720.5 371 723 381 723 c 0
 391 723 399 717 405 705 c 2
 454 612 l 2
 456 608.666992188 456.666992188 605 456 601 c 0
EndSplineSet
EndChar

StartChar: eacute
Encoding: 233 233 116
Width: 584
Flags: MW
HStem: 1 48 235 49<124 494 124 516 111 494> 442 48 703 20G<348 358>
VStem: 61 48<182.333 211.667 182.333 213> 494 48<284 286 286 286>
LayerCount: 2
Fore
SplineSet
542 286 m 0
 542 276.666992188 541 266 539 254 c 1
 535 241.333007812 527.333007812 235 516 235 c 2
 111 235 l 1
 109.666992188 228.333007812 109 218.333007812 109 205 c 0
 109 159.666992188 123.166992188 122.5 151.5 93.5 c 0
 179.833007812 64.5 213.666992188 49.8330078125 253 49.5 c 0
 328.4609375 48.8603515625 390.4609375 78.693359375 439 139 c 0
 443.666992188 144.333007812 449.166992188 147.333007812 455.5 148 c 0
 461.833007812 148.666992188 467.666992188 146.666992188 473 142 c 0
 485 132 486 121.333007812 476 110 c 0
 450 76.6669921875 418.166992188 50.1669921875 380.5 30.5 c 0
 342.833007812 10.8330078125 303.333007812 1 262 1 c 2
 261 1 l 2
 203 1 155.166992188 20.5 117.5 59.5 c 0
 79.8330078125 98.5 61 147 61 205 c 0
 61 221 62.3330078125 236 65 250 c 0
 77 316.666992188 109.5 373.166992188 162.5 419.5 c 0
 215.5 465.833007812 273 489.166992188 335 489.5 c 0
 397 489.833007812 447 470.333007812 485 431 c 0
 523 391.666992188 542 343.333007812 542 286 c 0
341 442 m 0
 295.666992188 442.666992188 252.5 427.833007812 211.5 397.5 c 0
 170.5 367.166992188 141.333007812 329.333007812 124 284 c 1
 494 284 l 1
 494 286 l 2
 493.333007812 331.333007812 479 368.5 451 397.5 c 0
 423 426.5 386.333007812 441.333007812 341 442 c 0
322 605 m 2
 314 596.333007812 304.666992188 592 294 592 c 0
 283.333007812 592 278 595 278 601 c 0
 277.333007812 605 278 608.666992188 280 612 c 2
 329 705 l 2
 335 717 343 723 353 723 c 0
 363 723 373 720.5 383 715.5 c 0
 393 710.5 398.333007812 705.5 399 700.5 c 0
 399.666992188 695.5 397 689.333007812 391 682 c 2
 322 605 l 2
EndSplineSet
EndChar

StartChar: ecircumflex
Encoding: 234 234 117
Width: 584
Flags: W
HStem: 1 48 235 49<124 494 124 516 111 494> 442 48 490 102 700 20G<400 408 408 412.333>
VStem: 61 48<182.333 211.667 182.333 213> 494 48<284 286 286 286>
LayerCount: 2
Fore
SplineSet
542 286 m 0xce
 542 276.666992188 541 266 539 254 c 1
 535 241.333007812 527.333007812 235 516 235 c 2
 111 235 l 1
 109.666992188 228.333007812 109 218.333007812 109 205 c 0
 109 159.666992188 123.166992188 122.5 151.5 93.5 c 0
 179.833007812 64.5 213.666992188 49.8330078125 253 49.5 c 0
 328.4609375 48.8603515625 390.4609375 78.693359375 439 139 c 0
 443.666992188 144.333007812 449.166992188 147.333007812 455.5 148 c 0
 461.833007812 148.666992188 467.666992188 146.666992188 473 142 c 0
 485 132 486 121.333007812 476 110 c 0
 450 76.6669921875 418.166992188 50.1669921875 380.5 30.5 c 0
 342.833007812 10.8330078125 303.333007812 1 262 1 c 2
 261 1 l 2
 203 1 155.166992188 20.5 117.5 59.5 c 0
 79.8330078125 98.5 61 147 61 205 c 0
 61 221 62.3330078125 236 65 250 c 0
 77 316.666992188 109.5 373.166992188 162.5 419.5 c 0
 215.5 465.833007812 273 489.166992188 335 489.5 c 0
 397 489.833007812 447 470.333007812 485 431 c 0
 523 391.666992188 542 343.333007812 542 286 c 0xce
341 442 m 0xee
 295.666992188 442.666992188 252.5 427.833007812 211.5 397.5 c 0
 170.5 367.166992188 141.333007812 329.333007812 124 284 c 1
 494 284 l 1
 494 286 l 2
 493.333007812 331.333007812 479 368.5 451 397.5 c 0
 423 426.5 386.333007812 441.333007812 341 442 c 0xee
395 663 m 1
 325 605 l 2
 313.666992188 596.333007812 303.166992188 592 293.5 592 c 0
 283.833007812 592 279 595.333007812 279 602 c 1
 280.333007812 606.666992188 282.666992188 610.666992188 286 614 c 2
 370 702 l 2
 380.666992188 714 390.666992188 720 400 720 c 2
 408 720 l 2
 416.666992188 720 425.333007812 714 434 702 c 2
 494 614 l 2
 496.666992188 609.333007812 497.666992188 605.333007812 497 602 c 0
 497 595.333007812 491.333007812 592 480 592 c 0xde
 468.666992188 592 459 596.333007812 451 605 c 2
 395 663 l 1
EndSplineSet
EndChar

StartChar: igrave
Encoding: 236 236 118
Width: 249
Flags: MW
HStem: 0 21G<24 24 24 28> 703 20G<103 113>
LayerCount: 2
Fore
SplineSet
24 0 m 2
 17.3330078125 0.6669921875 12.1669921875 3.8330078125 8.5 9.5 c 0
 4.8330078125 15.1669921875 3.6669921875 21 5 27 c 2
 82 469 l 2
 82.6669921875 475.666992188 85.8330078125 480.833007812 91.5 484.5 c 0
 97.1669921875 488.166992188 103.333007812 489.666992188 110 489 c 0
 126 485 132.333007812 475.333007812 129 460 c 2
 51 19 l 2
 49 6.3330078125 41.3330078125 0 28 0 c 2
 24 0 l 2
183 601 m 0
 183 595 177.666992188 592 167 592 c 0
 156.333007812 592 147 596.333007812 139 605 c 2
 70 682 l 2
 64 689.333007812 61.3330078125 695.5 62 700.5 c 0
 62.6669921875 705.5 68 710.5 78 715.5 c 0
 88 720.5 98 723 108 723 c 0
 118 723 126 717 132 705 c 2
 181 612 l 2
 183 608.666992188 183.666992188 605 183 601 c 0
EndSplineSet
EndChar

StartChar: iacute
Encoding: 237 237 119
Width: 249
Flags: MW
HStem: 0 21G<122 122 122 126> 703 20G<247 257>
LayerCount: 2
Fore
SplineSet
122 0 m 2
 115.333007812 0.6669921875 110.166992188 3.8330078125 106.5 9.5 c 0
 102.833007812 15.1669921875 101.666992188 21 103 27 c 2
 180 469 l 2
 180.666992188 475.666992188 183.833007812 480.833007812 189.5 484.5 c 0
 195.166992188 488.166992188 201.333007812 489.666992188 208 489 c 0
 224 485 230.333007812 475.333007812 227 460 c 2
 149 19 l 2
 147 6.3330078125 139.333007812 0 126 0 c 2
 122 0 l 2
221 605 m 2
 213 596.333007812 203.666992188 592 193 592 c 0
 182.333007812 592 177 595 177 601 c 0
 176.333007812 605 177 608.666992188 179 612 c 2
 228 705 l 2
 234 717 242 723 252 723 c 0
 262 723 272 720.5 282 715.5 c 0
 292 710.5 297.333007812 705.5 298 700.5 c 0
 298.666992188 695.5 296 689.333007812 290 682 c 2
 221 605 l 2
EndSplineSet
EndChar

StartChar: icircumflex
Encoding: 238 238 120
Width: 249
Flags: MW
HStem: 0 21G<37 37 37 41> 700 20G<149 157 157 161.333>
LayerCount: 2
Fore
SplineSet
37 0 m 2
 30.3330078125 0.6669921875 25.1669921875 3.8330078125 21.5 9.5 c 0
 17.8330078125 15.1669921875 16.6669921875 21 18 27 c 2
 95 469 l 2
 95.6669921875 475.666992188 98.8330078125 480.833007812 104.5 484.5 c 0
 110.166992188 488.166992188 116.333007812 489.666992188 123 489 c 0
 139 485 145.333007812 475.333007812 142 460 c 2
 64 19 l 2
 62 6.3330078125 54.3330078125 0 41 0 c 2
 37 0 l 2
144 663 m 1
 74 605 l 2
 62.6669921875 596.333007812 52.1669921875 592 42.5 592 c 0
 32.8330078125 592 28 595.333007812 28 602 c 1
 29.3330078125 606.666992188 31.6669921875 610.666992188 35 614 c 2
 119 702 l 2
 129.666992188 714 139.666992188 720 149 720 c 2
 157 720 l 2
 165.666992188 720 174.333007812 714 183 702 c 2
 243 614 l 2
 245.666992188 609.333007812 246.666992188 605.333007812 246 602 c 0
 246 595.333007812 240.333007812 592 229 592 c 0
 217.666992188 592 208 596.333007812 200 605 c 2
 144 663 l 1
EndSplineSet
EndChar

StartChar: ograve
Encoding: 242 242 122
Width: 640
Flags: MW
HStem: 0 47 442 48 703 20G<445 455>
VStem: 58 48<204 212> 482 47<281.667 286>
LayerCount: 2
Fore
SplineSet
529 286 m 0
 529 269.333007812 527.666992188 254 525 240 c 1
 502 245 l 1
 525 240 l 1
 513 173.333007812 481 116.666992188 429 70 c 0
 377 23.3330078125 319 0 255 0 c 2
 254 0 l 2
 197.333007812 0 150.5 19.5 113.5 58.5 c 0
 76.5 97.5 58 146 58 204 c 0
 58 220 59.3330078125 235 62 249 c 0
 74 315.666992188 106.166992188 372.333007812 158.5 419 c 0
 210.833007812 465.666992188 267.166992188 489.166992188 327.5 489.5 c 0
 387.833007812 489.833007812 436.5 470.666992188 473.5 432 c 0
 510.5 393.333007812 529 344.666992188 529 286 c 0
478 249 m 0
 480.666992188 265 482 277.333007812 482 286 c 0
 481.333007812 331.333007812 467.333007812 368.5 440 397.5 c 0
 412.666992188 426.5 377 441.333007812 333 442 c 2
 331 442 l 2
 280.333007812 442 233 422.166992188 189 382.5 c 0
 133.666992188 332.616210938 106 273.116210938 106 204 c 0
 106.666992188 158 120.666992188 120.5 148 91.5 c 0
 175.333007812 62.5 212.666992188 47.6669921875 260 47 c 0
 307.333007812 46.3330078125 353.166992188 66 397.5 106 c 0
 441.833007812 146 468.666992188 193.666992188 478 249 c 0
525 601 m 0
 525 595 519.666992188 592 509 592 c 0
 498.333007812 592 489 596.333007812 481 605 c 2
 412 682 l 2
 406 689.333007812 403.333007812 695.5 404 700.5 c 0
 404.666992188 705.5 410 710.5 420 715.5 c 0
 430 720.5 440 723 450 723 c 0
 460 723 468 717 474 705 c 2
 523 612 l 2
 525 608.666992188 525.666992188 605 525 601 c 0
EndSplineSet
EndChar

StartChar: oacute
Encoding: 243 243 123
Width: 640
Flags: MW
HStem: 0 47 442 48 703 20G<334 344>
VStem: 58 48<204 212> 482 47<281.667 286>
LayerCount: 2
Fore
SplineSet
529 286 m 0
 529 269.333007812 527.666992188 254 525 240 c 1
 502 245 l 1
 525 240 l 1
 513 173.333007812 481 116.666992188 429 70 c 0
 377 23.3330078125 319 0 255 0 c 2
 254 0 l 2
 197.333007812 0 150.5 19.5 113.5 58.5 c 0
 76.5 97.5 58 146 58 204 c 0
 58 220 59.3330078125 235 62 249 c 0
 74 315.666992188 106.166992188 372.333007812 158.5 419 c 0
 210.833007812 465.666992188 267.166992188 489.166992188 327.5 489.5 c 0
 387.833007812 489.833007812 436.5 470.666992188 473.5 432 c 0
 510.5 393.333007812 529 344.666992188 529 286 c 0
478 249 m 0
 480.666992188 265 482 277.333007812 482 286 c 0
 481.333007812 331.333007812 467.333007812 368.5 440 397.5 c 0
 412.666992188 426.5 377 441.333007812 333 442 c 2
 331 442 l 2
 280.333007812 442 233 422.166992188 189 382.5 c 0
 133.666992188 332.616210938 106 273.116210938 106 204 c 0
 106.666992188 158 120.666992188 120.5 148 91.5 c 0
 175.333007812 62.5 212.666992188 47.6669921875 260 47 c 0
 307.333007812 46.3330078125 353.166992188 66 397.5 106 c 0
 441.833007812 146 468.666992188 193.666992188 478 249 c 0
308 605 m 2
 300 596.333007812 290.666992188 592 280 592 c 0
 269.333007812 592 264 595 264 601 c 0
 263.333007812 605 264 608.666992188 266 612 c 2
 315 705 l 2
 321 717 329 723 339 723 c 0
 349 723 359 720.5 369 715.5 c 0
 379 710.5 384.333007812 705.5 385 700.5 c 0
 385.666992188 695.5 383 689.333007812 377 682 c 2
 308 605 l 2
EndSplineSet
EndChar

StartChar: ocircumflex
Encoding: 244 244 124
Width: 640
Flags: W
HStem: 0 47 442 48 490 102 700 20G<414 422 422 426.333>
VStem: 58 48<204 212> 482 47<281.667 286>
LayerCount: 2
Fore
SplineSet
529 286 m 0x9c
 529 269.333007812 527.666992188 254 525 240 c 1
 502 245 l 1
 525 240 l 1
 513 173.333007812 481 116.666992188 429 70 c 0
 377 23.3330078125 319 0 255 0 c 2
 254 0 l 2
 197.333007812 0 150.5 19.5 113.5 58.5 c 0
 76.5 97.5 58 146 58 204 c 0
 58 220 59.3330078125 235 62 249 c 0
 74 315.666992188 106.166992188 372.333007812 158.5 419 c 0
 210.833007812 465.666992188 267.166992188 489.166992188 327.5 489.5 c 0
 387.833007812 489.833007812 436.5 470.666992188 473.5 432 c 0
 510.5 393.333007812 529 344.666992188 529 286 c 0x9c
478 249 m 0
 480.666992188 265 482 277.333007812 482 286 c 0
 481.333007812 331.333007812 467.333007812 368.5 440 397.5 c 0
 412.666992188 426.5 377 441.333007812 333 442 c 2
 331 442 l 2xdc
 280.333007812 442 233 422.166992188 189 382.5 c 0
 133.666992188 332.616210938 106 273.116210938 106 204 c 0
 106.666992188 158 120.666992188 120.5 148 91.5 c 0
 175.333007812 62.5 212.666992188 47.6669921875 260 47 c 0
 307.333007812 46.3330078125 353.166992188 66 397.5 106 c 0
 441.833007812 146 468.666992188 193.666992188 478 249 c 0
409 663 m 1
 339 605 l 2
 327.666992188 596.333007812 317.166992188 592 307.5 592 c 0
 297.833007812 592 293 595.333007812 293 602 c 1
 294.333007812 606.666992188 296.666992188 610.666992188 300 614 c 2
 384 702 l 2
 394.666992188 714 404.666992188 720 414 720 c 2
 422 720 l 2
 430.666992188 720 439.333007812 714 448 702 c 2
 508 614 l 2
 510.666992188 609.333007812 511.666992188 605.333007812 511 602 c 0
 511 595.333007812 505.333007812 592 494 592 c 0xbc
 482.666992188 592 473 596.333007812 465 605 c 2
 409 663 l 1
EndSplineSet
EndChar

StartChar: otilde
Encoding: 245 245 125
Width: 640
Flags: W
HStem: 0 47 442 48 595 52<430.667 441.333> 636 52<302 312.667> 679 20G<501.333 507.667>
VStem: 58 48<204 212> 482 47<281.667 286>
LayerCount: 2
Fore
SplineSet
529 286 m 0xc6
 529 269.333007812 527.666992188 254 525 240 c 1
 502 245 l 1
 525 240 l 1
 513 173.333007812 481 116.666992188 429 70 c 0
 377 23.3330078125 319 0 255 0 c 2
 254 0 l 2
 197.333007812 0 150.5 19.5 113.5 58.5 c 0
 76.5 97.5 58 146 58 204 c 0
 58 220 59.3330078125 235 62 249 c 0
 74 315.666992188 106.166992188 372.333007812 158.5 419 c 0
 210.833007812 465.666992188 267.166992188 489.166992188 327.5 489.5 c 0
 387.833007812 489.833007812 436.5 470.666992188 473.5 432 c 0
 510.5 393.333007812 529 344.666992188 529 286 c 0xc6
478 249 m 0
 480.666992188 265 482 277.333007812 482 286 c 0
 481.333007812 331.333007812 467.333007812 368.5 440 397.5 c 0
 412.666992188 426.5 377 441.333007812 333 442 c 2
 331 442 l 2
 280.333007812 442 233 422.166992188 189 382.5 c 0
 133.666992188 332.616210938 106 273.116210938 106 204 c 0
 106.666992188 158 120.666992188 120.5 148 91.5 c 0
 175.333007812 62.5 212.666992188 47.6669921875 260 47 c 0
 307.333007812 46.3330078125 353.166992188 66 397.5 106 c 0
 441.833007812 146 468.666992188 193.666992188 478 249 c 0
257 598 m 0
 251 588.666992188 244.833007812 584 238.5 584 c 0
 232.166992188 584 227.5 585.666992188 224.5 589 c 0
 221.5 592.333007812 220.333007812 596.333007812 221 601 c 2
 225 613 l 1
 237.666992188 641 251 660.5 265 671.5 c 0
 279 682.5 294 688 310 688 c 0xd6
 326 688 348.333007812 681.166992188 377 667.5 c 0
 405.666992188 653.833007812 425.333007812 647 436 647 c 0
 455.333007812 647 472 659.666992188 486 685 c 0
 492 694.333007812 498.166992188 699 504.5 699 c 0
 510.833007812 699 515.5 697.333007812 518.5 694 c 0
 524.436523438 687.404296875 524.26953125 679.404296875 518 670 c 1
 505.333007812 642 492 622.5 478 611.5 c 0
 464 600.5 449.166992188 595 433.5 595 c 0xee
 417.833007812 595 395.666992188 601.833007812 367 615.5 c 0
 338.333007812 629.166992188 318.333007812 636 307 636 c 0xd6
 287.666992188 636 271 623.333007812 257 598 c 0
EndSplineSet
EndChar

StartChar: uacute
Encoding: 250 250 127
Width: 613
Flags: MW
HStem: 1 48 703 20G<377 387>
VStem: 83 48<169 171.667 169 174.667>
LayerCount: 2
Fore
SplineSet
491.5 483.5 m 0
 496.5 487.166992188 502.333007812 488.5 509 487.5 c 0
 515.666992188 486.5 520.833007812 483.333007812 524.5 478 c 0
 528.166992188 472.666992188 529.333007812 466.666992188 528 460 c 2
 482 195 l 2
 472 140.333007812 445 94.5 401 57.5 c 0
 357 20.5 309.166992188 1.8330078125 257.5 1.5 c 0
 205.833007812 1.1669921875 163.833007812 17.1669921875 131.5 49.5 c 0
 99.1669921875 81.8330078125 83 121.666992188 83 169 c 0
 83 180.333007812 84 192 86 204 c 2
 133 468 l 2
 134.333007812 474.666992188 137.666992188 479.833007812 143 483.5 c 0
 148.333007812 487.166992188 154.166992188 488.5 160.5 487.5 c 0
 166.833007812 486.5 171.833007812 483.333007812 175.5 478 c 0
 179.166992188 472.666992188 180.333007812 466.666992188 179 460 c 2
 133 195 l 2
 131.666992188 183 131 174.333007812 131 169 c 0
 131.666992188 133.666992188 143 105 165 83 c 0
 187 61 217.666992188 49.6669921875 257 49 c 0
 296.333007812 48.3330078125 334.166992188 63.5 370.5 94.5 c 0
 406.833007812 125.5 428.333007812 162 435 204 c 2
 482 468 l 2
 483.333007812 474.666992188 486.5 479.833007812 491.5 483.5 c 0
351 605 m 2
 343 596.333007812 333.666992188 592 323 592 c 0
 312.333007812 592 307 595 307 601 c 0
 306.333007812 605 307 608.666992188 309 612 c 2
 358 705 l 2
 364 717 372 723 382 723 c 0
 392 723 402 720.5 412 715.5 c 0
 422 710.5 427.333007812 705.5 428 700.5 c 0
 428.666992188 695.5 426 689.333007812 420 682 c 2
 351 605 l 2
EndSplineSet
EndChar

StartChar: trademark
Encoding: 263 8482 130
Width: 690
Flags: W
HStem: 399 21G<280 282 280 280 513 515 513 513> 400 21G<83 83 83 84> 680 20G 680 21<28.6665 235 32 121 142 142 142 235>
LayerCount: 2
Fore
SplineSet
83 400 m 1x50
 75.6669921875 401.333007812 72.6669921875 405.333007812 74 412 c 2
 121 680 l 1
 32 680 l 2
 25.3330078125 680 22 683.5 22 690.5 c 0
 22 697.5 25.3330078125 701 32 701 c 2
 235 701 l 2
 241.666992188 701 245 697.5 245 690.5 c 0
 245 683.5 241.666992188 680 235 680 c 2
 142 680 l 1
 95 409 l 2
 93.6669921875 403 90 400 84 400 c 2
 83 400 l 1x50
513 399 m 1xa0
 506.333007812 400.333007812 503.666992188 404.333007812 505 411 c 2
 548 656 l 1
 428 522 l 2
 426 520 423.333007812 519 420 519 c 2
 419 519 l 2
 415 519 412 521 410 525 c 2
 337 659 l 1
 293 408 l 2
 292.333007812 402 288.666992188 399 282 399 c 2
 280 399 l 2
 274 399.666992188 271 403.666992188 271 411 c 1
 321 691 l 2
 322.333007812 697 326 700 332 700 c 0
 335.333007812 700 338.666992188 698.333007812 342 695 c 1
 422 547 l 1
 556 696 l 2
 558 698.666992188 560.666992188 700 564 700 c 2
 566 700 l 1
 573.333007812 698.666992188 576.333007812 694.666992188 575 688 c 2
 525 408 l 2
 524.333007812 402 521 399 515 399 c 2
 513 399 l 1xa0
EndSplineSet
EndChar

StartChar: copyright
Encoding: 169 169 131
Width: 830
Flags: MW
HStem: -12 28<367 461 367 464.333> 166 40<400.333 438.667 400.333 441.333> 505 40<397 434> 684 28<369 463>
VStem: 53 30<348 350 302 399.667> 237 44<354 355 355 356 356 357 334.667 381.667> 747 30<350 352 300.333 398>
LayerCount: 2
Fore
SplineSet
414 -12 m 0
 313.333007812 -12 228 23.1669921875 158 93.5 c 0
 88 163.833007812 53 248.666992188 53 348 c 2
 53 350 l 2
 53 449.333007812 88.3330078125 534.5 159 605.5 c 0
 229.666992188 676.5 315.333007812 712 416 712 c 0
 516.666992188 712 602 676.833007812 672 606.5 c 0
 742 536.166992188 777 451.333007812 777 352 c 2
 777 350 l 2
 777 250.666992188 741.666992188 165.5 671 94.5 c 0
 600.333007812 23.5 514.666992188 -12 414 -12 c 0
414 16 m 0
 508 16 587 48.5 651 113.5 c 0
 715 178.5 747 257.333007812 747 350 c 2
 747 352 l 2
 747 444 715.333007812 522.333007812 652 587 c 0
 588.666992188 651.666992188 510 684 416 684 c 0
 322 684 243 651.5 179 586.5 c 0
 115 521.5 83 442.666992188 83 350 c 2
 83 348 l 2
 83 256 114.666992188 177.666992188 178 113 c 0
 241.333007812 48.3330078125 320 16 414 16 c 0
553 220 m 0
 511.666992188 184 466.166992188 166 416.5 166 c 0
 366.833007812 166 324.5 184.333007812 289.5 221 c 0
 254.5 257.666992188 237 302 237 354 c 2
 237 356 l 2
 237 407.333007812 254.666992188 451.666992188 290 489 c 0
 325.333007812 526.333007812 367.833007812 545 417.5 545 c 0
 467.166992188 545 511 528.333007812 549 495 c 0
 555 490.333007812 558 484.666992188 558 478 c 0
 558 471.333007812 555.833007812 466 551.5 462 c 0
 547.166992188 458 542.333007812 456 537 456 c 0
 531.666992188 456 526 458.333007812 520 463 c 0
 487.333007812 491 452.5 505 415.5 505 c 0
 378.5 505 346.833007812 490.5 320.5 461.5 c 0
 294.166992188 432.5 281 397.666992188 281 357 c 2
 281 355 l 2
 281 314.333007812 294.5 279.333007812 321.5 250 c 0
 348.5 220.666992188 381.166992188 206 419.5 206 c 0
 457.833007812 206 493.333007812 220.666992188 526 250 c 1
 531.333007812 253.333007812 536.333007812 255 541 255 c 0
 545.666992188 255 550 253 554 249 c 0
 558 245 560 240 560 234 c 0
 560 228 557.666992188 223.333007812 553 220 c 0
EndSplineSet
EndChar

StartChar: registered
Encoding: 174 174 132
Width: 416
Flags: W
HStem: 360 21G<183.333 231.667> 532 94<160 214 214 215 160 214> 642 68<148.667 232.667 184.333 214>
VStem: 34 20<534 535 512.667 559> 34 110<534 535 535 559> 160 98<455.667 482.333 455.667 517 455.667 517 455.667 626> 276 106<511 587.667> 362 20<535 536 511 557.333>
LayerCount: 2
Fore
SplineSet
331 411.5 m 0xf6
 297 377.166992188 255.833007812 360 207.5 360 c 0
 159.166992188 360 118.166992188 377 84.5 411 c 0
 50.8330078125 445 34 486 34 534 c 2
 34 535 l 2
 34 583 51 624.166992188 85 658.5 c 0
 119 692.833007812 160.166992188 710 208.5 710 c 0
 256.833007812 710 297.833007812 693 331.5 659 c 0
 365.166992188 625 382 584 382 536 c 2
 382 535 l 2
 382 487 365 445.833007812 331 411.5 c 0xf6
208 379 m 0
 251.333007812 379 287.833007812 394.333007812 317.5 425 c 0
 347.166992188 455.666992188 362 492.333007812 362 535 c 2
 362 536 l 2xf5
 362 578.666992188 347.166992188 615.166992188 317.5 645.5 c 0
 287.833007812 675.833007812 251.333007812 691 208 691 c 0
 164.666992188 691 128.166992188 675.666992188 98.5 645 c 0
 68.8330078125 614.333007812 54 577.666992188 54 535 c 2
 54 534 l 2
 54 491.333007812 68.8330078125 454.833007812 98.5 424.5 c 0
 128.166992188 394.166992188 164.666992188 379 208 379 c 0
258 471 m 0
 258 440.333007812 264.666992188 425 278 425 c 2
 279 425 l 1
 283 426 l 2
 287 427.333007812 288.333007812 430.666992188 287 436 c 0
 285.666992188 439.333007812 283 441 279 441 c 1
 275 443 273 454.166992188 273 474.5 c 0
 273 494.833007812 263 510.333007812 243 521 c 0
 241.666992188 521 240.666992188 521.333007812 240 522 c 1
 264 533.333007812 276 552.333007812 276 579 c 0
 276 596.333007812 270 611.166992188 258 623.5 c 0
 246 635.833007812 231.333007812 642 214 642 c 2
 151 642 l 2
 146.333007812 642 144 639.333007812 144 634 c 2
 144 430 l 2xee
 144 424.666992188 146.666992188 422 152 422 c 0
 157.333007812 422 160 424.666992188 160 430 c 2
 160 517 l 1
 213 517 l 1
 214 516 l 1
 243.333007812 508.666992188 258 493.666992188 258 471 c 0
261 579 m 0
 261 566.333007812 256.5 555.333007812 247.5 546 c 0
 238.5 536.666992188 227.666992188 532 215 532 c 2
 160 532 l 1
 160 626 l 1
 214 626 l 2
 227.333007812 626 238.5 621.333007812 247.5 612 c 0
 256.5 602.666992188 261 591.666992188 261 579 c 0
EndSplineSet
EndChar

StartChar: exclamdown
Encoding: 161 161 133
Width: 252
Flags: MW
HStem: 680 20G
LayerCount: 2
Fore
SplineSet
115 0 m 0
 108.333007812 1.3330078125 103.166992188 4.8330078125 99.5 10.5 c 0
 95.8330078125 16.1669921875 94.3330078125 22.3330078125 95 29 c 2
 184 531 l 2
 186 544.333007812 194 551 208 551 c 2
 212 551 l 1
 227.333007812 547.666992188 234 538 232 522 c 2
 143 20 l 2
 142.333007812 13.3330078125 139.166992188 8 133.5 4 c 0
 127.833007812 0 121.666992188 -1.3330078125 115 0 c 0
226 628 m 0
 210.666992188 631.333007812 204 641 206 657 c 2
 210 680 l 2
 210.666992188 686 213.5 690.833007812 218.5 694.5 c 0
 223.5 698.166992188 228.666992188 700 234 700 c 2
 238 700 l 1
 245.333007812 698.666992188 250.833007812 695.166992188 254.5 689.5 c 0
 258.166992188 683.833007812 259.333007812 677.666992188 258 671 c 2
 254 648 l 2
 253.333007812 641.333007812 250.166992188 636 244.5 632 c 0
 238.833007812 628 232.666992188 626.666992188 226 628 c 0
EndSplineSet
EndChar

StartChar: questiondown
Encoding: 191 191 134
Width: 534
Flags: MW
HStem: -1 46 679 20G<330 356.6>
VStem: 52 47<181 185>
LayerCount: 2
Fore
SplineSet
362 634.5 m 0
 356.666992188 630.833007812 350.833007812 629.5 344.5 630.5 c 0
 338.166992188 631.5 333.166992188 634.666992188 329.5 640 c 0
 325.833007812 645.333007812 324.666992188 651 326 657 c 2
 330 679 l 2
 332 692.333007812 339.666992188 699 353 699 c 0
 360.200195312 699 366 696 370.400390625 690 c 0
 374.799804688 684 376.666992188 677.666992188 376 671 c 2
 372 649 l 2
 370.666992188 643 367.333007812 638.166992188 362 634.5 c 0
237 -1 m 0
 183.666992188 -1 139.5 16.1669921875 104.5 50.5 c 0
 69.5 84.8330078125 52 128.333007812 52 181 c 0
 52 189 53.3330078125 201.666992188 56 219 c 0
 66 274.333007812 92.8330078125 321.833007812 136.5 361.5 c 0
 180.166992188 401.166992188 230 423.666992188 286 429 c 1
 305 540 l 2
 307 553.333007812 314.666992188 560 328 560 c 0
 336.416992188 560 342.6875 557 346.8125 551 c 0
 350.9375 545 352.333007812 538.666992188 351 532 c 2
 329 407 l 2
 329 406.333007812 328.666992188 405.666992188 328 405 c 0
 326.666992188 391 319 384 305 384 c 0
 258.333007812 384.666992188 214.833007812 367.833007812 174.5 333.5 c 0
 124.166992188 290.654296875 99 239.821289062 99 181 c 0
 99.6669921875 141.666992188 112.5 109.333007812 137.5 84 c 0
 162.5 58.6669921875 193.166992188 45.8330078125 229.5 45.5 c 0
 265.833007812 45.1669921875 298.666992188 52.8330078125 328 68.5 c 0
 357.333007812 84.1669921875 382 105.333007812 402 132 c 0
 406 137.333007812 411.166992188 140.333007812 417.5 141 c 0
 423.833007812 141.666992188 429.666992188 140.166992188 435 136.5 c 0
 440.333007812 132.833007812 443.333007812 127.833007812 444 121.5 c 0
 444.666992188 115.166992188 443 109.333007812 439 104 c 0
 415 72 385.166992188 46.5 349.5 27.5 c 0
 313.833007812 8.5 276.333007812 -1 237 -1 c 0
EndSplineSet
EndChar

StartChar: oe
Encoding: 264 339 135
Width: 1055
Flags: W
HStem: 1 21G<656.667 686 686 687> 2 47 236 48<548 919 548 941 535 919> 444 48
VStem: 58 48<206 214> 919 48<284 286 286 286>
LayerCount: 2
Fore
SplineSet
967 286 m 0x6c
 967 276.666992188 966 266 964 254 c 1
 960.666992188 242 953 236 941 236 c 2
 535 236 l 1
 533.666992188 229.333007812 533 219.333007812 533 206 c 0
 533 160 547.166992188 122.5 575.5 93.5 c 0
 603.833007812 64.5 637.666992188 49.8330078125 677 49.5 c 0
 753.750976562 48.849609375 816.083984375 79.0166015625 864 140 c 0
 868.666992188 145.333007812 874.166992188 148.333007812 880.5 149 c 0
 886.833007812 149.666992188 892.666992188 147.833007812 898 143.5 c 0
 903.333007812 139.166992188 906.333007812 133.833007812 907 127.5 c 0
 907.666992188 121.166992188 905.666992188 115.333007812 901 110 c 0
 874.333007812 76.6669921875 842.166992188 50.1669921875 804.5 30.5 c 0
 766.833007812 10.8330078125 727.666992188 1 687 1 c 2
 686 1 l 2xac
 627.333007812 1 579 20.6669921875 541 60 c 0
 517 84 500.333007812 114 491 150 c 1
 466.333007812 106 432.666992188 70.3330078125 390 43 c 0
 347.333007812 15.6669921875 302.333007812 2 255 2 c 2
 254 2 l 2
 197.333007812 2 150.5 21.5 113.5 60.5 c 0
 76.5 99.5 58 148 58 206 c 0
 58 222 59.3330078125 237 62 251 c 0
 74 317.666992188 106.166992188 374.333007812 158.5 421 c 0
 210.833007812 467.666992188 267.166992188 491.166992188 327.5 491.5 c 0
 387.833007812 491.833007812 437 472 475 432 c 0
 498.333007812 408 514 378 522 342 c 1
 547.333007812 386 581.833007812 421.666992188 625.5 449 c 0
 669.166992188 476.333007812 718 490.166992188 772 490.5 c 0
 826 490.833007812 872 471.333007812 910 432 c 0
 948 392.666992188 967 344 967 286 c 0x6c
478 251 m 0
 480.666992188 267 482 279.333007812 482 288 c 0
 481.333007812 333.333007812 467.333007812 370.5 440 399.5 c 0
 412.666992188 428.5 377 443.333007812 333 444 c 2
 331 444 l 2
 280.333007812 444 233 424.166992188 189 384.5 c 0
 133.666992188 334.616210938 106 275.116210938 106 206 c 0
 106.666992188 160 120.666992188 122.5 148 93.5 c 0
 175.333007812 64.5 212.666992188 49.6669921875 260 49 c 0x7c
 307.333007812 48.3330078125 353.166992188 68 397.5 108 c 0
 441.833007812 148 468.666992188 195.666992188 478 251 c 0
876 398.5 m 0
 848 427.5 811.166992188 442.333007812 765.5 443 c 0
 719.833007812 443.666992188 676.5 428.833007812 635.5 398.5 c 0
 594.5 368.166992188 565.333007812 330 548 284 c 1
 919 284 l 1
 919 286 l 2
 918.333007812 332 904 369.5 876 398.5 c 0
EndSplineSet
EndChar

StartChar: dollar
Encoding: 36 36 136
Width: 632
Flags: MW
HStem: -102 21G<263.667 270.333> 0 45<317 326> 655 45<436 445> 742 20G<481.667 488.333>
LayerCount: 2
Fore
SplineSet
454 738 m 2
 456 744.666992188 460 750.333007812 466 755 c 0
 472 759.666992188 478.333007812 762 485 762 c 0
 491.666992188 762 496.666992188 759.666992188 500 755 c 0
 503.333007812 750.333007812 504 744.666992188 502 738 c 2
 493 698 l 1
 554.333007812 692.666992188 607.666992188 669.333007812 653 628 c 0
 660.333007812 620.666992188 663.166992188 613.333007812 661.5 606 c 0
 659.833007812 598.666992188 655.833007812 592.5 649.5 587.5 c 0
 643.166992188 582.5 636.5 580 629.5 580 c 0
 622.5 580 617 582.333007812 613 587 c 0
 575.666992188 624.333007812 531 646 479 652 c 1
 408 372 l 1
 480 356 529.333007812 333.166992188 556 303.5 c 0
 582.666992188 273.833007812 589.666992188 233.5 577 182.5 c 0
 564.333007812 131.5 533.666992188 88.8330078125 485 54.5 c 0
 436.333007812 20.1669921875 380.333007812 2 317 0 c 1
 298 -78 l 2
 296 -84.6669921875 292 -90.3330078125 286 -95 c 0
 280 -99.6669921875 273.666992188 -102 267 -102 c 0
 260.333007812 -102 255.333007812 -99.6669921875 252 -95 c 0
 248.666992188 -90.3330078125 248 -84.6669921875 250 -78 c 2
 269 1 l 1
 187.666992188 7.6669921875 120.666992188 40 68 98 c 0
 62.6669921875 104 60.8330078125 110.666992188 62.5 118 c 0
 64.1669921875 125.333007812 68.1669921875 131.5 74.5 136.5 c 0
 80.8330078125 141.5 87.5 144 94.5 144 c 0
 101.5 144 106.666992188 141.666992188 110 137 c 0
 154 83.6669921875 211.333007812 53.3330078125 282 46 c 1
 355 331 l 1
 283.666992188 347.666992188 235.166992188 370.666992188 209.5 400 c 0
 183.833007812 429.333007812 177.333007812 469.166992188 190 519.5 c 0
 202.666992188 569.833007812 233.166992188 612.166992188 281.5 646.5 c 0
 329.833007812 680.833007812 384.333007812 698.666992188 445 700 c 1
 454 738 l 2
456 84.5 m 0
 493.333007812 110.166992188 516.5 141.666992188 525.5 179 c 0
 534.5 216.333007812 529.833007812 245.833007812 511.5 267.5 c 0
 493.166992188 289.166992188 454.666992188 307 396 321 c 1
 326 45 l 1
 375.333007812 45.6669921875 418.666992188 58.8330078125 456 84.5 c 0
310 616 m 0
 274 590.666992188 251.333007812 559.833007812 242 523.5 c 0
 232.666992188 487.166992188 236.666992188 458.166992188 254 436.5 c 0
 271.333007812 414.833007812 309.333007812 396.666992188 368 382 c 1
 436 655 l 1
 388 654.333007812 346 641.333007812 310 616 c 0
EndSplineSet
EndChar

StartChar: numbersign
Encoding: 35 35 137
Width: 700
Flags: W
HStem: -4 238<126 137.333 381 392.333> 187 47<63.6665 184 75 168 75 216 232 423 487 588> 470 47<151.667 281 163 265 163 313 329 520 584 676> 470 234<151.667 369 155 369 313 369 357.667 369 357.667 520 357.667 568 612.667 624>
LayerCount: 2
Fore
SplineSet
113 25 m 2x80
 168 187 l 1
 67 187 l 2
 60.3330078125 187 55.1669921875 189.166992188 51.5 193.5 c 0
 47.8330078125 197.833007812 46.3330078125 203.333007812 47 210 c 0
 47.6669921875 216.666992188 50.8330078125 222.333007812 56.5 227 c 0
 62.1669921875 231.666992188 68.3330078125 234 75 234 c 2
 184 234 l 1
 265 470 l 1
 155 470 l 2
 148.333007812 470 143 472.166992188 139 476.5 c 0
 135 480.833007812 133.666992188 486.333007812 135 493 c 0
 135.666992188 499.666992188 138.833007812 505.333007812 144.5 510 c 0
 150.166992188 514.666992188 156.333007812 517 163 517 c 2
 281 517 l 1x60
 336 682 l 2
 340.666992188 696.666992188 350.333007812 704 365 704 c 0x10
 373 704 378.333007812 701.166992188 381 695.5 c 0
 383.666992188 689.833007812 384 683 382 675 c 2
 329 517 l 1
 536 517 l 1x20
 591 682 l 2
 595.666992188 696.666992188 605.333007812 704 620 704 c 0x10
 628 704 633.333007812 701.166992188 636 695.5 c 0
 638.666992188 689.833007812 639 683 637 675 c 2
 584 517 l 1
 684 517 l 2
 690.666992188 517 695.833007812 514.833007812 699.5 510.5 c 0
 703.166992188 506.166992188 704.666992188 500.666992188 704 494 c 0
 703.333007812 487.333007812 700.166992188 481.666992188 694.5 477 c 0
 688.833007812 472.333007812 682.666992188 470 676 470 c 2x20
 568 470 l 1
 487 234 l 1
 596 234 l 2
 602.666992188 234 607.833007812 231.833007812 611.5 227.5 c 0
 615.166992188 223.166992188 616.666992188 217.666992188 616 211 c 0
 615.333007812 204.333007812 612.166992188 198.666992188 606.5 194 c 0
 600.833007812 189.333007812 594.666992188 187 588 187 c 2
 471 187 l 1x50
 414 18 l 2
 409.333007812 3.3330078125 399.666992188 -4 385 -4 c 0x80
 377 -4 371.666992188 -1.1669921875 369 4.5 c 0
 366.333007812 10.1669921875 366 17 368 25 c 2
 423 187 l 1
 216 187 l 1x40
 159 18 l 2
 154.333007812 3.3330078125 144.666992188 -4 130 -4 c 0
 122 -4 116.666992188 -1.1669921875 114 4.5 c 0
 111.333007812 10.1669921875 111 17 113 25 c 2x80
232 234 m 1
 439 234 l 1
 520 470 l 1
 313 470 l 1
 232 234 l 1
EndSplineSet
EndChar

StartChar: bracketleft
Encoding: 91 91 138
Width: 430
Flags: MW
HStem: -130 38<117.667 362 150 353> 662 38<307 519 307 307>
LayerCount: 2
Fore
SplineSet
101 -104 m 2
 264 674 l 2
 265.333007812 680.666992188 269.166992188 686.666992188 275.5 692 c 0
 281.833007812 697.333007812 288.666992188 700 296 700 c 2
 528 700 l 2
 532.666992188 700 536.666992188 698.166992188 540 694.5 c 0
 543.333007812 690.833007812 544.5 686.5 543.5 681.5 c 0
 542.5 676.5 539.5 672 534.5 668 c 0
 529.5 664 524.333007812 662 519 662 c 2
 307 662 l 1
 150 -92 l 1
 362 -92 l 2
 366.666992188 -92 370.5 -93.8330078125 373.5 -97.5 c 0
 376.5 -101.166992188 377.5 -105.5 376.5 -110.5 c 0
 375.5 -115.5 372.666992188 -120 368 -124 c 0
 363.333007812 -128 358.333007812 -130 353 -130 c 2
 121 -130 l 2
 114.333007812 -130 109 -127.5 105 -122.5 c 0
 101 -117.5 99.6669921875 -111.333007812 101 -104 c 2
EndSplineSet
EndChar

StartChar: bracketright
Encoding: 93 93 139
Width: 430
Flags: MW
HStem: -130 38<69.6665 293 81 293 81 304> 662 38<235.667 479 247 450>
LayerCount: 2
Fore
SplineSet
499 674 m 2
 336 -104 l 2
 334.666992188 -110.666992188 330.833007812 -116.666992188 324.5 -122 c 0
 318.166992188 -127.333007812 311.333007812 -130 304 -130 c 2
 72 -130 l 2
 67.3330078125 -130 63.3330078125 -128.166992188 60 -124.5 c 0
 56.6669921875 -120.833007812 55.5 -116.5 56.5 -111.5 c 0
 57.5 -106.5 60.5 -102 65.5 -98 c 0
 70.5 -94 75.6669921875 -92 81 -92 c 2
 293 -92 l 1
 450 662 l 1
 238 662 l 2
 233.333007812 662 229.5 663.833007812 226.5 667.5 c 0
 223.5 671.166992188 222.5 675.5 223.5 680.5 c 0
 224.5 685.5 227.333007812 690 232 694 c 0
 236.666992188 698 241.666992188 700 247 700 c 2
 479 700 l 2
 485.666992188 700 491 697.5 495 692.5 c 0
 499 687.5 500.333007812 681.333007812 499 674 c 2
EndSplineSet
EndChar

StartChar: braceleft
Encoding: 123 123 140
Width: 480
Flags: MW
HStem: 268 38<80 109.304>
LayerCount: 2
Fore
SplineSet
287 -139 m 0
 187.698242188 -117.076171875 136.032226562 -80.2431640625 132 -28.5 c 0
 130 -2.8330078125 134 27.3330078125 144 62 c 2
 166 141 l 2
 173.333007812 167 176.666992188 189.5 176 208.5 c 0
 174.608398438 248.166992188 141.608398438 268 77 268 c 0
 60.3330078125 268 54.3330078125 274.333007812 59 287 c 1
 62.3330078125 299.666992188 72 306 88 306 c 0
 136.666992188 306 172.833007812 316.5 196.5 337.5 c 0
 220.166992188 358.5 238.333007812 390.333007812 251 433 c 2
 273 512 l 2
 281 540 290.333007812 563.666992188 301 583 c 0
 311.666992188 602.333007812 326.666992188 620.666992188 346 638 c 0
 382.55859375 670.776367188 444.55859375 695.776367188 532 713 c 0
 538 714.333007812 542.666992188 713.5 546 710.5 c 0
 549.333007812 707.5 550.333007812 703 549 697 c 1
 545.666992188 689 540 683.666992188 532 681 c 0
 457.333007812 663 407.166992188 642.5 381.5 619.5 c 0
 355.833007812 596.5 335.666992188 558.666992188 321 506 c 2
 299 431 l 2
 287 389 269 357 245 335 c 0
 221 313 190.666992188 297 154 287 c 1
 175.333007812 279 191.5 269.833007812 202.5 259.5 c 0
 213.5 249.166992188 221 234.333007812 225 215 c 0
 229 195.666992188 226 171.666992188 216 143 c 1
 194 68 l 1
 176.666992188 19.3330078125 174.833007812 -17.5 188.5 -42.5 c 0
 202.166992188 -67.5 241 -89 305 -107 c 1
 312.333007812 -110.333007812 314.666992188 -115.666992188 312 -123 c 0
 308.666992188 -136.333007812 300.333007812 -141.666992188 287 -139 c 0
EndSplineSet
EndChar

StartChar: braceright
Encoding: 125 125 141
Width: 480
Flags: MW
HStem: 268 38<495.696 525>
LayerCount: 2
Fore
SplineSet
318 713 m 0
 417.301757812 691.076171875 468.967773438 654.243164062 473 602.5 c 0
 475 576.833007812 471 546.666992188 461 512 c 2
 439 433 l 2
 431.666992188 407 428.333007812 384.5 429 365.5 c 0
 430.391601562 325.833007812 463.391601562 306 528 306 c 0
 544.666992188 306 550.666992188 299.666992188 546 287 c 1
 542.666992188 274.333007812 533 268 517 268 c 0
 468.333007812 268 432.166992188 257.5 408.5 236.5 c 0
 384.833007812 215.5 366.666992188 183.666992188 354 141 c 2
 332 62 l 2
 324 34 314.666992188 10.3330078125 304 -9 c 0
 293.333007812 -28.3330078125 278.333007812 -46.6669921875 259 -64 c 0
 222.44140625 -96.7763671875 160.44140625 -121.776367188 73 -139 c 0
 67 -140.333007812 62.3330078125 -139.5 59 -136.5 c 0
 55.6669921875 -133.5 54.6669921875 -129 56 -123 c 1
 59.3330078125 -115 65 -109.666992188 73 -107 c 0
 147.666992188 -89 197.833007812 -68.5 223.5 -45.5 c 0
 249.166992188 -22.5 269.333007812 15.3330078125 284 68 c 2
 306 143 l 2
 318 185 336 217 360 239 c 0
 384 261 414.333007812 277 451 287 c 1
 429.666992188 295 413.5 304.166992188 402.5 314.5 c 0
 391.5 324.833007812 384 339.666992188 380 359 c 0
 376 378.333007812 379 402.333007812 389 431 c 1
 411 506 l 1
 428.333007812 554.666992188 430.166992188 591.5 416.5 616.5 c 0
 402.833007812 641.5 364 663 300 681 c 1
 292.666992188 684.333007812 290.333007812 689.666992188 293 697 c 0
 296.333007812 710.333007812 304.666992188 715.666992188 318 713 c 0
EndSplineSet
EndChar

StartChar: divide
Encoding: 247 247 142
Width: 620
Flags: W
HStem: 27 97<236 275> 27 217<236 247> 292 217<378 389 378 541> 412 97<350 389>
LayerCount: 2
Fore
SplineSet
84 244 m 2x60
 528 244 l 2
 542 244 552.666992188 252 560 268 c 1
 561.333007812 274.666992188 560.166992188 280.333007812 556.5 285 c 0
 552.833007812 289.666992188 547.666992188 292 541 292 c 2
 97 292 l 2
 90.3330078125 292 84.1669921875 289.666992188 78.5 285 c 0
 72.8330078125 280.333007812 69.1669921875 274.666992188 67.5 268 c 0
 65.8330078125 261.333007812 66.5 255.666992188 69.5 251 c 0
 72.5 246.333007812 77.3330078125 244 84 244 c 2x60
352 497.5 m 0
 362 505.166992188 372.5 509 383.5 509 c 0x20
 394.5 509 402.833007812 505 408.5 497 c 0
 414.166992188 489 415.333007812 479.666992188 412 469 c 2
 407 452 l 2
 404.333007812 441.333007812 397.833007812 432 387.5 424 c 0
 377.166992188 416 366.5 412 355.5 412 c 0x10
 344.5 412 336.166992188 415.833007812 330.5 423.5 c 0
 324.833007812 431.166992188 323.666992188 440.666992188 327 452 c 2
 332 469 l 2
 335.333007812 480.333007812 342 489.833007812 352 497.5 c 0
237.5 112 m 0
 247.833007812 120 258.5 124 269.5 124 c 0
 280.5 124 288.833007812 120.166992188 294.5 112.5 c 0
 300.166992188 104.833007812 301.333007812 95.3330078125 298 84 c 2
 293 67 l 2
 289.666992188 55.6669921875 283 46.1669921875 273 38.5 c 0
 263 30.8330078125 252.5 27 241.5 27 c 0x80
 230.5 27 222.166992188 31 216.5 39 c 0
 210.833007812 47 209.666992188 56.3330078125 213 67 c 2
 218 84 l 2
 220.666992188 94.6669921875 227.166992188 104 237.5 112 c 0
EndSplineSet
EndChar

StartChar: aring
Encoding: 229 229 143
Width: 574
Flags: MW
HStem: 0 48<202.333 236.333> 443 47<272 321.667> 560 41<319 330> 697 39<337 349>
LayerCount: 2
Fore
SplineSet
512 490 m 0
 518.666992188 490 524 487.666992188 528 483 c 0
 532 478.333007812 533.333007812 472.666992188 532 466 c 2
 454 24 l 2
 453.333007812 17.3330078125 450.166992188 11.6669921875 444.5 7 c 0
 438.833007812 2.3330078125 432.666992188 0 426 0 c 0
 419.333007812 0 414 2.3330078125 410 7 c 0
 406 11.6669921875 404.666992188 17.3330078125 406 24 c 2
 419 97 l 1
 392.333007812 67 361.333007812 43.3330078125 326 26 c 0
 290.666992188 8.6669921875 254.666992188 0 218 0 c 0
 154 0 103.666992188 24 67 72 c 0
 30.3330078125 120 17.6669921875 177.666992188 29 245 c 0
 41 312.333007812 73.8330078125 370 127.5 418 c 0
 181.166992188 466 240 490 304 490 c 0
 340.666992188 490 373.833007812 481.333007812 403.5 464 c 0
 433.166992188 446.666992188 456 423.333007812 472 394 c 1
 484 466 l 2
 487.333007812 482 496.666992188 490 512 490 c 0
107.5 105.5 m 0
 137.166992188 67.1669921875 177.166992188 48 227.5 48 c 0
 277.833007812 48 324.333007812 67.1669921875 367 105.5 c 0
 409.666992188 143.833007812 435.666992188 190.333007812 445 245 c 0
 455 299.666992188 445.333007812 346.333007812 416 385 c 0
 386.666992188 423.666992188 346.833007812 443 296.5 443 c 0
 246.166992188 443 199.5 423.666992188 156.5 385 c 0
 113.5 346.333007812 87.1669921875 299.666992188 77.5 245 c 0
 67.8330078125 190.333007812 77.8330078125 143.833007812 107.5 105.5 c 0
386 586 m 0
 364.666992188 568.666992188 342 560 318 560 c 0
 294 560 274.5 568.833007812 259.5 586.5 c 0
 244.5 604.166992188 239 624.333007812 243 647 c 1
 243 648 l 1
 247.666992188 672 260.5 692.666992188 281.5 710 c 0
 302.5 727.333007812 325 736 349 736 c 0
 373 736 392.666992188 727.333007812 408 710 c 0
 423.333007812 692.666992188 428.666992188 672 424 648 c 1
 424 647 l 1
 420 623.666992188 407.333007812 603.333007812 386 586 c 0
294.5 615 m 0
 302.166992188 605.666992188 312.5 601 325.5 601 c 0
 338.5 601 350.5 605.666992188 361.5 615 c 0
 372.5 624.333007812 379 635 381 647 c 1
 381 648 l 1
 383.666992188 660.666992188 381.166992188 672 373.5 682 c 0
 365.833007812 692 355.5 697 342.5 697 c 0
 329.5 697 317.5 692 306.5 682 c 0
 295.5 672 288.666992188 660.666992188 286 648 c 1
 286 647 l 1
 284 635 286.833007812 624.333007812 294.5 615 c 0
EndSplineSet
EndChar

StartChar: Aring
Encoding: 197 197 144
Width: 790
Flags: W
HStem: 0 21G<109 114.333> 1 21G<100 100> 181 49<252 535 252 545 226 535> 757 39<484 495.667>
LayerCount: 2
Fore
SplineSet
109 0 m 1xb0
 100 1 l 1x70
 94.6669921875 3.6669921875 91 8.1669921875 89 14.5 c 0
 87 20.8330078125 88 27 92 33 c 2
 422 633 l 1
 395.333007812 650.333007812 384.666992188 675 390 707 c 1
 391 708 l 1
 395 732 407.5 752.666992188 428.5 770 c 0
 449.5 787.333007812 472 796 496 796 c 0
 520 796 539.666992188 787.333007812 555 770 c 0
 570.333007812 752.666992188 576 732 572 708 c 1
 571 707 l 1
 568.333007812 691 561.166992188 676 549.5 662 c 0
 537.833007812 648 523.666992188 637.333007812 507 630 c 1
 626 33 l 2
 627.333007812 27 626.166992188 20.8330078125 622.5 14.5 c 0
 617.641601562 6.1083984375 609.510742188 1.59375 598.106445312 0.9560546875 c 0
 586.702148438 0.318359375 580 5.3330078125 578 16 c 2
 545 181 l 1
 226 181 l 1
 135 16 l 2
 128.333007812 5.3330078125 119.666992188 0 109 0 c 1xb0
433 707 m 1
 431 693 434.166992188 681.833007812 442.5 673.5 c 0
 450.833007812 665.166992188 460.166992188 661 470.5 661 c 0
 480.833007812 661 490.666992188 663.666992188 500 669 c 0
 516.666992188 677.666992188 526 690.333007812 528 707 c 1
 529 708 l 1
 531 720.666992188 528.166992188 732 520.5 742 c 0
 512.833007812 752 502.333007812 757 489 757 c 0
 475.666992188 757 463.666992188 752 453 742 c 0
 442.333007812 732 436 720.666992188 434 708 c 1
 433 707 l 1
252 230 m 1
 535 230 l 1
 461 606 l 1
 252 230 l 1
EndSplineSet
EndChar

StartChar: ae
Encoding: 230 230 145
Width: 954
Flags: W
HStem: 0 49 1 21G<647.667 677 677 678> 236 48<539 910 539 932 526 910> 442 49
VStem: 51 47<204 210.667 204 212.333> 910 48<284 286 286 286>
LayerCount: 2
Fore
SplineSet
958 286 m 0xbc
 958 276.666992188 957 266 955 254 c 1
 951.666992188 242 944 236 932 236 c 2
 526 236 l 1
 524.666992188 229.333007812 524 219.333007812 524 206 c 0
 524 160 538.166992188 122.5 566.5 93.5 c 0
 594.833007812 64.5 628.666992188 49.8330078125 668 49.5 c 0
 744.750976562 48.849609375 807.083984375 79.0166015625 855 140 c 0
 859.666992188 145.333007812 865.166992188 148.333007812 871.5 149 c 0
 877.833007812 149.666992188 883.666992188 147.833007812 889 143.5 c 0
 894.333007812 139.166992188 897.333007812 133.833007812 898 127.5 c 0
 898.666992188 121.166992188 896.666992188 115.333007812 892 110 c 0
 865.333007812 76.6669921875 833.166992188 50.1669921875 795.5 30.5 c 0
 757.833007812 10.8330078125 718.666992188 1 678 1 c 2
 677 1 l 2x7c
 618.333007812 1 570 20.6669921875 532 60 c 0
 516 76 503.666992188 93.6669921875 495 113 c 1
 479 20 l 2
 477 6.6669921875 469 0 455 0 c 2
 451 0 l 1
 444.333007812 1.3330078125 439.166992188 4.6669921875 435.5 10 c 0
 431.833007812 15.3330078125 430.666992188 21.3330078125 432 28 c 2
 443 92 l 1
 388.333007812 32 323 1.3330078125 247 0 c 1
 189.666992188 0 142.666992188 19.3330078125 106 58 c 0
 69.3330078125 96.6669921875 51 145.333007812 51 204 c 0
 51 220.666992188 52.3330078125 235.666992188 55 249 c 0
 67 315.666992188 99 372.333007812 151 419 c 0
 203 465.666992188 259.333007812 489.166992188 320 489.5 c 0
 380.666992188 489.833007812 429.666992188 470.333007812 467 431 c 0
 479 417.666992188 488.666992188 404.333007812 496 391 c 1
 510 470 l 2
 511.333007812 476.666992188 514.5 481.833007812 519.5 485.5 c 0
 524.5 489.166992188 530.333007812 490.5 537 489.5 c 0
 543.666992188 488.5 548.833007812 485.333007812 552.5 480 c 0
 556.166992188 474.666992188 557.666992188 468.666992188 557 462 c 2
 543 385 l 1
 601 454.333007812 672 489.666992188 756 491 c 0
 814.666992188 491 863 471.333007812 901 432 c 0
 939 392.666992188 958 344 958 286 c 0xbc
102 241 m 0
 99.3330078125 229.666992188 98 217.333007812 98 204 c 0
 98.6669921875 158.666992188 112.666992188 121.5 140 92.5 c 0
 167.333007812 63.5 204.666992188 48.6669921875 252 48 c 0
 299.333007812 47.3330078125 345.333007812 66.8330078125 390 106.5 c 0
 446 156.231445312 474 216.064453125 474 286 c 0
 473.333007812 332 459.333007812 369.333007812 432 398 c 0
 404.666992188 426.666992188 369 441.333007812 325 442 c 2
 324 442 l 2
 273.333007812 442 226 422.166992188 182 382.5 c 0
 138 342.833007812 111.333007812 295.666992188 102 241 c 0
867 398.5 m 0
 839 427.5 802.166992188 442.333007812 756.5 443 c 0
 710.833007812 443.666992188 667.5 428.833007812 626.5 398.5 c 0
 585.5 368.166992188 556.333007812 330 539 284 c 1
 910 284 l 1
 910 286 l 2
 909.333007812 332 895 369.5 867 398.5 c 0
EndSplineSet
EndChar

StartChar: Scaron
Encoding: 265 352 146
Width: 640
Flags: W
HStem: 0 44<308 342.333> 657 43<396.667 433.667> 700 220<396.667 405.667 394.333 443>
LayerCount: 2
Fore
SplineSet
485 849 m 1xa0
 555 907 l 2
 566.333007812 915.666992188 576.833007812 920 586.5 920 c 0
 596.166992188 920 601 916.666992188 601 910 c 1
 599.666992188 905.333007812 597.333007812 901.333007812 594 898 c 2
 510 810 l 2
 499.333007812 798 489.333007812 792 480 792 c 2
 472 792 l 2
 463.333007812 792 454.666992188 798 446 810 c 2
 386 898 l 2
 383.333007812 902.666992188 382.333007812 906.666992188 383 910 c 0
 383 916.666992188 388.666992188 920 400 920 c 0
 411.333007812 920 421 915.666992188 429 907 c 2
 485 849 l 1xa0
73 100 m 0
 141.666992188 34 220 0.6669921875 308 0 c 0
 376.666992188 0 439 18.3330078125 495 55 c 1
 553 91 586.833007812 136.166992188 596.5 190.5 c 0
 613.971679688 288.704101562 541.805664062 353.538085938 380 385 c 1
 378 385 l 1
 317.333007812 396.333007812 271.666992188 413.5 241 436.5 c 0
 210.333007812 459.5 198 488.166992188 204 522.5 c 0
 210 556.833007812 233.666992188 587.666992188 275 615 c 0
 319 643 368 657 422 657 c 0
 445.333007812 657 468.666992188 652.833007812 492 644.5 c 0
 515.333007812 636.166992188 533.333007812 628 546 620 c 0
 558.666992188 612 576 600 598 584 c 0
 608.666992188 576 619.333007812 578 630 590 c 0
 640 602.666992188 639.666992188 612.666992188 629 620 c 0
 607.666992188 636 589.666992188 648.666992188 575 658 c 0
 560.333007812 667.333007812 539.333007812 676.666992188 512 686 c 0
 484.666992188 695.333007812 457 700 429 700 c 0xc0
 364.333007812 700 305.666992188 683 253 649 c 0
 200.333007812 615 169.5 572.833007812 160.5 522.5 c 0
 144.313476562 431.97265625 211.479492188 371.805664062 362 342 c 1
 364 342 l 1
 433.333007812 328 483.833007812 308.833007812 515.5 284.5 c 0
 547.166992188 260.166992188 559.833007812 229 553.5 191 c 0
 547.166992188 153 520.833007812 119 474.5 89 c 0
 428.166992188 59 375.333007812 44 316 44 c 0
 240 44 170 73.6669921875 106 133 c 0
 102 137 97 138.666992188 91 138 c 0
 85 137.333007812 79.6669921875 134.666992188 75 130 c 0
 70.3330078125 125.333007812 67.8330078125 120 67.5 114 c 0
 67.1669921875 108 69 103.333007812 73 100 c 0
EndSplineSet
EndChar

StartChar: scaron
Encoding: 266 353 147
Width: 497
Flags: W
HStem: 0 48 443 47<286.667 315.667> 443 149<282.333 377.333> 700 20G<479 487 487 491.333>
LayerCount: 2
Fore
SplineSet
60 69 m 0xd0
 108 23.6669921875 159.5 0.8330078125 214.5 0.5 c 0
 269.5 0.1669921875 317.333007812 13.3330078125 358 40 c 0
 398.666992188 66.6669921875 422.333007812 99.6669921875 429 139 c 1
 437 178.333007812 424.333007812 210 391 234 c 0
 364.333007812 254 326.333007812 268.333007812 277 277 c 1
 275 278 l 1
 235.666992188 285.333007812 206 296.333007812 186 311 c 1
 168.666992188 325.666992188 161.666992188 342.666992188 165 362 c 0
 168.333007812 381.333007812 183.166992188 399.666992188 209.5 417 c 0
 235.833007812 434.333007812 265.666992188 443 299 443 c 0
 332.333007812 443 371 427 415 395 c 0
 419.666992188 391.666992188 425.333007812 390.666992188 432 392 c 0
 438.666992188 393.333007812 444.333007812 396.666992188 449 402 c 0
 453.666992188 407.333007812 455.833007812 413.333007812 455.5 420 c 0
 455.166992188 426.666992188 452.666992188 431.666992188 448 435 c 0
 432.666992188 446.333007812 420.166992188 455 410.5 461 c 0
 400.833007812 467 386.5 473.333007812 367.5 480 c 0
 348.5 486.666992188 329 490 309 490 c 0
 264.333007812 490 223.333007812 478.333007812 186 455 c 1
 146.666992188 429 123.666992188 397.5 117 360.5 c 0
 110.333007812 323.5 122.333007812 293.666992188 153 271 c 0
 176.333007812 253 211.666992188 239.666992188 259 231 c 1
 260 230 l 1
 348.856445312 213.012695312 389.189453125 182.6796875 381 139 c 0
 377.666992188 116.333007812 361.666992188 95.5 333 76.5 c 0
 304.333007812 57.5 270.666992188 48 232 48 c 0
 182 48 137 67.3330078125 97 106 c 0
 92.3330078125 110.666992188 86.6669921875 112.666992188 80 112 c 0
 73.3330078125 111.333007812 67.3330078125 108.333007812 62 103 c 0
 50 91 49.3330078125 79.6669921875 60 69 c 0xd0
474 663 m 1
 404 605 l 2
 392.666992188 596.333007812 382.166992188 592 372.5 592 c 0
 362.833007812 592 358 595.333007812 358 602 c 1
 359.333007812 606.666992188 361.666992188 610.666992188 365 614 c 2
 449 702 l 2
 459.666992188 714 469.666992188 720 479 720 c 2
 487 720 l 2
 495.666992188 720 504.333007812 714 513 702 c 2
 573 614 l 2
 575.666992188 609.333007812 576.666992188 605.333007812 576 602 c 0
 576 595.333007812 570.333007812 592 559 592 c 0xb0
 547.666992188 592 538 596.333007812 530 605 c 2
 474 663 l 1
EndSplineSet
EndChar

StartChar: quotedblbase
Encoding: 267 8222 148
Width: 410
Flags: MW
HStem: -97 21G<63 74.3335 243 254.333> 77 20G<152 161 332 341>
LayerCount: 2
Fore
SplineSet
56 -82 m 0
 57.3330078125 -76.6669921875 61 -72.3330078125 67 -69 c 0
 105 -50.3330078125 126.333007812 -24.6669921875 131 8 c 1
 113.666992188 12.6669921875 107 24.3330078125 111 43 c 2
 115 64 l 2
 117.666992188 73.3330078125 123 81.1669921875 131 87.5 c 0
 139 93.8330078125 147.5 97 156.5 97 c 0
 165.5 97 172.5 93.6669921875 177.5 87 c 0
 182.5 80.3330078125 183.666992188 72.6669921875 181 64 c 2
 176 39 l 2
 165.333007812 -12.3330078125 149.333007812 -47 128 -65 c 1
 100.666992188 -86.3330078125 80.6669921875 -97 68 -97 c 0
 58 -97 54 -92 56 -82 c 0
236 -82 m 0
 237.333007812 -76.6669921875 241 -72.3330078125 247 -69 c 0
 285 -50.3330078125 306.333007812 -24.6669921875 311 8 c 1
 293.666992188 12.6669921875 287 24.3330078125 291 43 c 2
 295 64 l 2
 297.666992188 73.3330078125 303 81.1669921875 311 87.5 c 0
 319 93.8330078125 327.5 97 336.5 97 c 0
 345.5 97 352.5 93.6669921875 357.5 87 c 0
 362.5 80.3330078125 363.666992188 72.6669921875 361 64 c 2
 356 39 l 2
 345.333007812 -12.3330078125 329.333007812 -47 308 -65 c 1
 280.666992188 -86.3330078125 260.666992188 -97 248 -97 c 0
 238 -97 234 -92 236 -82 c 0
EndSplineSet
EndChar

StartChar: ellipsis
Encoding: 268 8230 149
Width: 680
Flags: MW
HStem: 0 115<124.667 163.333>
LayerCount: 2
Fore
SplineSet
193 98.5 m 0
 201.666992188 87.5 204.5 73.8330078125 201.5 57.5 c 0
 198.5 41.1669921875 190.5 27.5 177.5 16.5 c 0
 164.5 5.5 149.666992188 0 133 0 c 0
 116.333007812 0 104 5.5 96 16.5 c 0
 88 27.5 85.5 41.1669921875 88.5 57.5 c 0
 91.5 73.8330078125 99.1669921875 87.5 111.5 98.5 c 0
 123.833007812 109.5 138.333007812 115 155 115 c 0
 171.666992188 115 184.333007812 109.5 193 98.5 c 0
434 98.5 m 0
 442.666992188 87.5 445.5 73.8330078125 442.5 57.5 c 0
 439.5 41.1669921875 431.5 27.5 418.5 16.5 c 0
 405.5 5.5 390.666992188 0 374 0 c 0
 357.333007812 0 345 5.5 337 16.5 c 0
 329 27.5 326.5 41.1669921875 329.5 57.5 c 0
 332.5 73.8330078125 340.166992188 87.5 352.5 98.5 c 0
 364.833007812 109.5 379.333007812 115 396 115 c 0
 412.666992188 115 425.333007812 109.5 434 98.5 c 0
675 98.5 m 0
 683.666992188 87.5 686.5 73.8330078125 683.5 57.5 c 0
 680.5 41.1669921875 672.5 27.5 659.5 16.5 c 0
 646.5 5.5 631.666992188 0 615 0 c 0
 598.333007812 0 586 5.5 578 16.5 c 0
 570 27.5 567.5 41.1669921875 570.5 57.5 c 0
 573.5 73.8330078125 581.166992188 87.5 593.5 98.5 c 0
 605.833007812 109.5 620.333007812 115 637 115 c 0
 653.666992188 115 666.333007812 109.5 675 98.5 c 0
EndSplineSet
EndChar

